G04*
G04 #@! TF.GenerationSoftware,Altium Limited,Altium Designer,21.5.1 (32)*
G04*
G04 Layer_Physical_Order=2*
G04 Layer_Color=16711680*
%FSLAX24Y24*%
%MOIN*%
G70*
G04*
G04 #@! TF.SameCoordinates,102D7F98-6BBB-4BC2-A7D8-B36395918042*
G04*
G04*
G04 #@! TF.FilePolarity,Positive*
G04*
G01*
G75*
%ADD13C,0.0079*%
%ADD44C,0.0240*%
%ADD45C,0.0260*%
%ADD46C,0.0118*%
G36*
X3253Y-1678D02*
X-2781D01*
Y3371D01*
X3253D01*
Y-1678D01*
D02*
G37*
%LPC*%
G36*
X1565Y2760D02*
X-13D01*
X-67Y2749D01*
X-113Y2719D01*
X-648Y2184D01*
X-650Y2181D01*
X-693Y2172D01*
X-766Y2123D01*
X-786Y2094D01*
X-836Y2089D01*
X-967Y2220D01*
X-1020Y2256D01*
X-1082Y2268D01*
X-1520D01*
X-1587Y2313D01*
X-1673Y2330D01*
X-1759Y2313D01*
X-1832Y2264D01*
X-1880Y2192D01*
X-1896Y2112D01*
X-2020Y1988D01*
X-2056Y1935D01*
X-2068Y1873D01*
Y-319D01*
X-2113Y-387D01*
X-2130Y-472D01*
X-2113Y-558D01*
X-2064Y-631D01*
X-1992Y-680D01*
X-1912Y-696D01*
X-1233Y-1375D01*
X-1180Y-1410D01*
X-1118Y-1422D01*
X-252D01*
X-184Y-1467D01*
X-98Y-1484D01*
X-13Y-1467D01*
X55Y-1422D01*
X928D01*
X996Y-1467D01*
X1082Y-1484D01*
X1168Y-1467D01*
X1240Y-1418D01*
X1289Y-1346D01*
X1306Y-1260D01*
X1289Y-1174D01*
X1240Y-1101D01*
X1168Y-1053D01*
X1082Y-1036D01*
X996Y-1053D01*
X928Y-1098D01*
X55D01*
X-13Y-1053D01*
X-98Y-1036D01*
X-184Y-1053D01*
X-252Y-1098D01*
X-1051D01*
X-1683Y-466D01*
X-1698Y-387D01*
X-1743Y-319D01*
Y1806D01*
X-1667Y1883D01*
X-1587Y1898D01*
X-1520Y1944D01*
X-1149D01*
X-966Y1761D01*
X-960Y1752D01*
X-821Y1612D01*
X-768Y1577D01*
X-706Y1565D01*
X841D01*
X903Y1577D01*
X956Y1612D01*
X1207Y1864D01*
X1287Y1879D01*
X1360Y1928D01*
X1408Y2001D01*
X1425Y2087D01*
X1408Y2172D01*
X1360Y2245D01*
X1287Y2294D01*
X1201Y2311D01*
X1115Y2294D01*
X1042Y2245D01*
X994Y2172D01*
X978Y2093D01*
X774Y1889D01*
X-359D01*
X-391Y1928D01*
X-383Y1965D01*
X-397Y2033D01*
X46Y2476D01*
X1506D01*
X1758Y2225D01*
Y1217D01*
X1666Y1125D01*
X1646Y1129D01*
X1560Y1112D01*
X1487Y1063D01*
X1439Y991D01*
X1422Y905D01*
X1439Y819D01*
X1487Y746D01*
X1560Y697D01*
X1646Y680D01*
X1732Y697D01*
X1805Y746D01*
X1853Y819D01*
X1870Y905D01*
X1866Y924D01*
X2000Y1058D01*
X2031Y1104D01*
X2042Y1158D01*
Y2283D01*
X2031Y2338D01*
X2000Y2384D01*
X1665Y2719D01*
X1619Y2749D01*
X1565Y2760D01*
D02*
G37*
%LPD*%
D13*
Y2618D02*
X1900Y2283D01*
X-13Y2618D02*
X1565D01*
X1900Y1158D02*
Y2283D01*
X-547Y2084D02*
X-13Y2618D01*
X1646Y905D02*
X1900Y1158D01*
X-607Y1965D02*
Y2008D01*
X-547Y2069D01*
Y2084D01*
D44*
X3130Y1880D02*
D03*
X-1978Y3248D02*
D03*
X1043Y2864D02*
D03*
X3130Y-659D02*
D03*
X2096D02*
D03*
X2579Y128D02*
D03*
X3130Y89D02*
D03*
X1929Y69D02*
D03*
X2096Y-1555D02*
D03*
X3130D02*
D03*
X-2165Y1821D02*
D03*
X-1348Y2884D02*
D03*
X-1663Y2530D02*
D03*
X-2657Y2421D02*
D03*
Y3248D02*
D03*
X-1289D02*
D03*
X-177D02*
D03*
Y2835D02*
D03*
X-2657Y-433D02*
D03*
Y-1555D02*
D03*
X-1122D02*
D03*
X-1132Y-738D02*
D03*
X2028Y3248D02*
D03*
Y2697D02*
D03*
X1043Y3248D02*
D03*
X3130D02*
D03*
Y2589D02*
D03*
X3130Y778D02*
D03*
X-2697Y1417D02*
D03*
Y935D02*
D03*
X1201Y2392D02*
D03*
X1201Y2087D02*
D03*
X-1673Y2106D02*
D03*
X-1906Y-817D02*
D03*
X-1906Y-472D02*
D03*
X1082Y-1260D02*
D03*
X1082Y-1565D02*
D03*
X-98Y-1565D02*
D03*
X-98Y-1260D02*
D03*
X1644Y2215D02*
D03*
X-607Y1965D02*
D03*
X-307Y2015D02*
D03*
X3120Y1161D02*
D03*
X1646Y905D02*
D03*
X2366Y1114D02*
D03*
X2686Y709D02*
D03*
D45*
X-709Y1102D02*
D03*
X-236D02*
D03*
X236D02*
D03*
X709D02*
D03*
X-709Y630D02*
D03*
X-236D02*
D03*
X236D02*
D03*
X709D02*
D03*
X-709Y157D02*
D03*
X-236D02*
D03*
X236D02*
D03*
X709D02*
D03*
X-709Y-315D02*
D03*
X-236D02*
D03*
X236D02*
D03*
X709D02*
D03*
D46*
X-706Y1727D02*
X841D01*
X-1673Y2106D02*
X-1082D01*
X-846Y1869D01*
Y1866D02*
X-706Y1727D01*
X-846Y1866D02*
Y1869D01*
X841Y1727D02*
X1201Y2087D01*
X-1906Y1873D02*
X-1673Y2106D01*
X-1906Y-472D02*
Y1873D01*
X-1118Y-1260D02*
X1082D01*
X-1906Y-472D02*
X-1118Y-1260D01*
M02*
