M48
;Layer_Color=9474304
;FILE_FORMAT=2:4
INCH,TZ
;TYPE=PLATED
T1F00S00C0.0120
T2F00S00C0.0130
%
T01
X-2657Y-1555
Y-433
X-1906Y-472
X-1906Y-817
X-2697Y935
Y1417
X-2165Y1821
X-2657Y2421
Y3248
X-1978
X-1289
X-1348Y2884
X-1663Y2530
X-1673Y2106
X-607Y1965
X-307Y2015
X-177Y2835
Y3248
X1043
Y2864
X1201Y2392
X1201Y2087
X1644Y2215
X2028Y2697
Y3248
X3130
Y2589
Y1880
X3120Y1161
X3130Y778
X2686Y709
X2579Y128
X3130Y89
Y-659
Y-1555
X2096
X2096Y-659
X1929Y69
X1646Y905
X2366Y1114
X1082Y-1260
X1082Y-1565
X-98Y-1565
X-98Y-1260
X-1122Y-1555
X-1132Y-738
T02
X-709Y-315
X-236
Y157
X-709
Y630
Y1102
X-236
Y630
X236
Y1102
X709
Y630
Y157
X236
Y-315
X709
M30
