G04*
G04 #@! TF.GenerationSoftware,Altium Limited,Altium Designer,21.5.1 (32)*
G04*
G04 Layer_Physical_Order=1*
G04 Layer_Color=255*
%FSLAX24Y24*%
%MOIN*%
G70*
G04*
G04 #@! TF.SameCoordinates,102D7F98-6BBB-4BC2-A7D8-B36395918042*
G04*
G04*
G04 #@! TF.FilePolarity,Positive*
G04*
G01*
G75*
%ADD11C,0.0060*%
%ADD13C,0.0079*%
%ADD15R,0.0374X0.0335*%
%ADD16R,0.0106X0.0118*%
%ADD17O,0.0256X0.0079*%
%ADD18O,0.0079X0.0256*%
%ADD19R,0.1850X0.1850*%
%ADD20R,0.0118X0.0106*%
%ADD21R,0.0551X0.0295*%
%ADD22R,0.0315X0.0295*%
%ADD23R,0.0256X0.0197*%
%ADD24R,0.0197X0.0236*%
%ADD25R,0.0236X0.0197*%
%ADD39C,0.0059*%
%ADD40C,0.0089*%
%ADD41C,0.0090*%
%ADD42C,0.0315*%
%ADD43R,0.0207X0.0315*%
%ADD44C,0.0240*%
%ADD45C,0.0260*%
G36*
X-51Y2714D02*
X-78D01*
Y2516D01*
Y2317D01*
X-51D01*
Y2160D01*
X-328Y1883D01*
X-341Y1867D01*
X-344Y1863D01*
X-384Y1861D01*
X-399Y1867D01*
X-404Y1880D01*
X-404Y1880D01*
X-395Y1908D01*
X-389Y1936D01*
X-387Y1965D01*
X-389Y1994D01*
X-395Y2022D01*
X-398Y2031D01*
X-375Y2072D01*
X-364Y2081D01*
X-227D01*
Y2190D01*
X-380D01*
Y2290D01*
X-227D01*
Y2317D01*
X-178D01*
Y2516D01*
Y2714D01*
X-421D01*
Y2922D01*
X-333D01*
Y3318D01*
X-1163D01*
Y2964D01*
X-1202D01*
Y2748D01*
X-1289D01*
Y2530D01*
X-1339D01*
Y2480D01*
X-1537D01*
Y2339D01*
X-1538Y2336D01*
X-1584Y2309D01*
X-1587Y2309D01*
X-1589Y2309D01*
X-1616Y2319D01*
X-1644Y2324D01*
X-1673Y2326D01*
X-1702Y2324D01*
X-1730Y2319D01*
X-1758Y2309D01*
X-1783Y2297D01*
X-1807Y2281D01*
X-1829Y2262D01*
X-1848Y2240D01*
X-1864Y2216D01*
X-1877Y2190D01*
X-1886Y2163D01*
X-1892Y2135D01*
X-1894Y2106D01*
X-1892Y2077D01*
X-1886Y2049D01*
X-1877Y2021D01*
X-1877Y2021D01*
X-1906Y1971D01*
X-1906Y1971D01*
X-2027D01*
Y1862D01*
X-1874D01*
Y1762D01*
X-2027D01*
Y1710D01*
X-2354D01*
Y1683D01*
X-2600D01*
Y1376D01*
Y1355D01*
X-2441D01*
Y1255D01*
X-2600D01*
Y1152D01*
Y1097D01*
X-2441D01*
Y997D01*
X-2600D01*
Y783D01*
X-2783D01*
Y3374D01*
X-51D01*
Y2714D01*
D02*
G37*
G36*
X8Y-1487D02*
X21Y-1502D01*
Y-1681D01*
X-379D01*
Y-1604D01*
X-195D01*
Y-1512D01*
X-172Y-1489D01*
X-145Y-1475D01*
X-127Y-1478D01*
X-98Y-1480D01*
X-70Y-1478D01*
X-41Y-1473D01*
X-29Y-1468D01*
X8Y-1487D01*
D02*
G37*
G36*
X-2096Y-361D02*
X-2097Y-362D01*
X-2109Y-388D01*
X-2119Y-415D01*
X-2124Y-444D01*
X-2126Y-472D01*
X-2124Y-501D01*
X-2119Y-529D01*
X-2109Y-557D01*
X-2097Y-583D01*
X-2081Y-607D01*
X-2062Y-628D01*
X-2040Y-647D01*
X-2016Y-663D01*
X-1990Y-676D01*
X-1963Y-685D01*
X-1934Y-691D01*
X-1906Y-693D01*
X-1877Y-691D01*
X-1859Y-687D01*
X-1832Y-702D01*
X-1809Y-725D01*
Y-856D01*
X-1700D01*
Y-703D01*
X-1650D01*
Y-653D01*
X-1491D01*
Y-612D01*
X-1102D01*
X-1080Y-611D01*
X-1075Y-609D01*
X-1025Y-632D01*
X-1003Y-681D01*
X-1004Y-687D01*
X-1006Y-709D01*
Y-886D01*
X-1004Y-908D01*
X-999Y-929D01*
X-997Y-935D01*
Y-1681D01*
X-2783D01*
Y-311D01*
X-2122D01*
X-2096Y-361D01*
D02*
G37*
G36*
X1155Y-1489D02*
X1179Y-1512D01*
Y-1604D01*
X1356D01*
Y-1681D01*
X997D01*
Y-1516D01*
X1004Y-1505D01*
X1047Y-1477D01*
X1053Y-1478D01*
X1082Y-1480D01*
X1111Y-1478D01*
X1129Y-1475D01*
X1155Y-1489D01*
D02*
G37*
G36*
X2500Y274D02*
X2807D01*
X2807Y274D01*
X2851Y261D01*
X2863Y253D01*
X2887Y241D01*
X2913Y232D01*
X2939Y227D01*
X2967Y225D01*
X3081D01*
X3081Y225D01*
X3255D01*
Y-1681D01*
X1974D01*
Y-208D01*
X1972Y-188D01*
X1967Y-168D01*
X1959Y-149D01*
X1949Y-132D01*
X1935Y-116D01*
X1679Y141D01*
X1698Y187D01*
X2323D01*
Y286D01*
X2500D01*
Y274D01*
D02*
G37*
G36*
X3255Y641D02*
X3131D01*
X3130Y641D01*
X2967D01*
X2939Y639D01*
X2913Y634D01*
X2887Y625D01*
X2863Y613D01*
X2851Y606D01*
X2807Y592D01*
X2807Y592D01*
Y592D01*
X2807Y592D01*
X2570D01*
Y613D01*
X2411D01*
Y663D01*
X2361D01*
Y817D01*
X2252D01*
X2252Y844D01*
X2098D01*
Y944D01*
X2251D01*
Y965D01*
X2251D01*
Y1074D01*
X2098D01*
Y1142D01*
X2167D01*
X2188Y1143D01*
X2207Y1148D01*
X2213Y1150D01*
X2226Y1156D01*
X2244Y1167D01*
X2251Y1173D01*
Y1173D01*
X2259Y1180D01*
X2316Y1236D01*
X2793D01*
X2814Y1238D01*
X2834Y1243D01*
X2852Y1250D01*
X2870Y1261D01*
X2885Y1274D01*
X2938Y1327D01*
X2952Y1343D01*
X2962Y1360D01*
X2970Y1379D01*
X2975Y1399D01*
X2976Y1419D01*
Y1829D01*
X2975Y1849D01*
X2970Y1869D01*
X2962Y1888D01*
X2952Y1905D01*
X2938Y1921D01*
X2856Y2003D01*
Y2344D01*
X2856D01*
Y2570D01*
X2549Y2570D01*
X1447Y2570D01*
Y2198D01*
X1397Y2187D01*
X1392Y2197D01*
X1376Y2221D01*
X1357Y2243D01*
X1335Y2262D01*
X1311Y2278D01*
X1285Y2290D01*
X1258Y2300D01*
X1230Y2305D01*
X1201Y2307D01*
X1172Y2305D01*
X1154Y2302D01*
X1127Y2316D01*
X1104Y2339D01*
Y2431D01*
X919D01*
Y3374D01*
X3255D01*
Y641D01*
D02*
G37*
%LPC*%
G36*
X-1389Y2748D02*
X-1537D01*
Y2580D01*
X-1389D01*
Y2748D01*
D02*
G37*
G36*
X-1491Y-753D02*
X-1600D01*
Y-856D01*
X-1491D01*
Y-753D01*
D02*
G37*
G36*
X2461Y817D02*
Y713D01*
X2570D01*
Y817D01*
X2461D01*
D02*
G37*
%LPD*%
D11*
X1320Y315D02*
X1843Y-208D01*
Y-1683D02*
Y-208D01*
X1309Y157D02*
X1724Y-258D01*
Y-1683D02*
Y-258D01*
X1318Y-161D02*
X1605Y-448D01*
Y-1683D02*
Y-448D01*
X1486Y-1683D02*
Y-497D01*
X1307Y-319D02*
X1486Y-497D01*
X1191Y157D02*
X1309D01*
X1191Y315D02*
X1320D01*
X-2441Y1530D02*
X-1921D01*
X-1494Y1102D01*
X-1191D01*
X-1978Y892D02*
X-1925Y945D01*
X-2047Y823D02*
X-1978Y892D01*
X-2441Y823D02*
X-2047D01*
X-1925Y945D02*
X-1191D01*
X1195Y-319D02*
X1307D01*
X1195Y-161D02*
X1318D01*
X1191Y-157D02*
X1195Y-161D01*
X1191Y-315D02*
X1195Y-319D01*
X-394Y-966D02*
Y-797D01*
X-509Y-1081D02*
X-394Y-966D01*
X712Y-926D02*
Y-801D01*
X747Y-1683D02*
Y-961D01*
X709Y-797D02*
X712Y-801D01*
Y-926D02*
X747Y-961D01*
X555Y-937D02*
Y-801D01*
X628Y-1683D02*
Y-1010D01*
X555Y-937D02*
X628Y-1010D01*
X551Y-797D02*
X555Y-801D01*
X396Y-947D02*
Y-799D01*
X509Y-1683D02*
Y-1060D01*
X396Y-947D02*
X509Y-1060D01*
X394Y-797D02*
X396Y-799D01*
X-711Y-947D02*
Y-799D01*
X-747Y-1683D02*
Y-983D01*
X-711Y-947D01*
Y-799D02*
X-709Y-797D01*
X-79Y-977D02*
X152Y-1208D01*
X236Y-955D02*
X390Y-1109D01*
X152Y-1683D02*
Y-1208D01*
X271Y-1683D02*
Y-1158D01*
X79Y-966D02*
X271Y-1158D01*
X390Y-1683D02*
Y-1109D01*
X866Y-1683D02*
Y-797D01*
X-628Y-1032D02*
X-551Y-955D01*
X-628Y-1683D02*
Y-1032D01*
X-509Y-1683D02*
Y-1081D01*
X-866Y-1683D02*
Y-797D01*
X-79Y-977D02*
Y-797D01*
X79Y-966D02*
Y-797D01*
X236Y-955D02*
Y-797D01*
X-551Y-955D02*
Y-797D01*
X-1516Y653D02*
X-1382Y787D01*
X-2785Y653D02*
X-1516D01*
X-1382Y787D02*
X-1191D01*
X-1467Y534D02*
X-1371Y630D01*
X-2785Y534D02*
X-1467D01*
X-1371Y630D02*
X-1191D01*
X-1417Y415D02*
X-1360Y472D01*
X-2785Y415D02*
X-1417D01*
X-1360Y472D02*
X-1191D01*
X-2785Y296D02*
X-1368D01*
X-1349Y315D01*
X-1191D01*
X-1516Y-180D02*
X-1382Y-315D01*
X-2785Y-180D02*
X-1516D01*
X-1382Y-315D02*
X-1191D01*
X-1467Y-61D02*
X-1371Y-157D01*
X-2785Y-61D02*
X-1467D01*
X-1371Y-157D02*
X-1191D01*
X-1417Y58D02*
X-1360Y0D01*
X-2785Y58D02*
X-1417D01*
X-1360Y0D02*
X-1191D01*
X-2785Y177D02*
X-1368D01*
X-1349Y157D01*
X-1191D01*
X789Y1812D02*
Y3376D01*
X711Y1734D02*
X789Y1812D01*
X709Y1585D02*
X711Y1587D01*
Y1734D01*
X670Y1861D02*
Y3376D01*
X551Y1743D02*
X670Y1861D01*
X551Y1585D02*
Y1743D01*
D13*
X1191Y-975D02*
X1337Y-1121D01*
Y-1225D02*
Y-1121D01*
X1531Y894D02*
X1874D01*
X-1209Y1260D02*
Y1371D01*
X-1650Y1806D02*
Y1812D01*
X-1209Y1260D02*
X-1191D01*
X-1630Y1792D02*
X-1209Y1371D01*
X-1636Y1792D02*
X-1630D01*
X-1650Y1806D02*
X-1636Y1792D01*
X-607Y1965D02*
Y2430D01*
X-561Y2516D02*
Y3120D01*
X-1387Y2106D02*
X-866Y1585D01*
X946Y1787D02*
Y2052D01*
X866Y1707D02*
X946Y1787D01*
X866Y1585D02*
Y1707D01*
X1160Y2087D02*
X1201D01*
X945Y2053D02*
X1127D01*
X1160Y2087D01*
X945Y2053D02*
X946Y2052D01*
X-1823Y-472D02*
X-1191D01*
X-1673Y2106D02*
X-1387D01*
X1191Y-975D02*
Y-472D01*
X1337Y-1225D02*
X1338Y-1226D01*
X1122Y-1260D02*
X1156Y-1226D01*
X1338D01*
X1082Y-1260D02*
X1122D01*
X-354Y-1226D02*
X-172D01*
X-354D02*
X-353Y-1225D01*
Y-1121D01*
X-236Y-1004D01*
Y-797D01*
X-709Y1585D02*
Y1750D01*
X-945Y1986D02*
X-709Y1750D01*
X-945Y1986D02*
Y2185D01*
Y2717D02*
Y3110D01*
X-935Y3120D01*
X-561D02*
X-551Y3110D01*
Y1585D02*
Y1945D01*
X-607Y2430D02*
X-522Y2516D01*
X1425Y787D02*
X1531Y894D01*
X1375Y945D02*
X1554Y1123D01*
X1866D01*
X1191Y945D02*
X1375D01*
X1191Y787D02*
X1425D01*
D15*
X1998Y1624D02*
D03*
Y2077D02*
D03*
X2569D02*
D03*
Y1624D02*
D03*
D16*
X1874Y1124D02*
D03*
X2098D02*
D03*
X-1874Y1812D02*
D03*
X-1650D02*
D03*
X1874Y894D02*
D03*
X2098D02*
D03*
X-380Y2240D02*
D03*
X-605D02*
D03*
X2169Y433D02*
D03*
X1945D02*
D03*
X2878D02*
D03*
X2654D02*
D03*
X2396Y2411D02*
D03*
X2171D02*
D03*
D17*
X-1191Y1260D02*
D03*
Y1102D02*
D03*
Y945D02*
D03*
Y787D02*
D03*
Y630D02*
D03*
Y472D02*
D03*
Y315D02*
D03*
Y157D02*
D03*
Y0D02*
D03*
Y-157D02*
D03*
Y-315D02*
D03*
Y-472D02*
D03*
X1191D02*
D03*
Y-315D02*
D03*
Y-157D02*
D03*
Y0D02*
D03*
Y157D02*
D03*
Y315D02*
D03*
Y472D02*
D03*
Y630D02*
D03*
Y787D02*
D03*
Y945D02*
D03*
Y1102D02*
D03*
Y1260D02*
D03*
D18*
X-866Y-797D02*
D03*
X-709D02*
D03*
X-551D02*
D03*
X-394D02*
D03*
X-236D02*
D03*
X-79D02*
D03*
X79D02*
D03*
X236D02*
D03*
X394D02*
D03*
X551D02*
D03*
X709D02*
D03*
X866D02*
D03*
Y1585D02*
D03*
X709D02*
D03*
X551D02*
D03*
X394D02*
D03*
X236D02*
D03*
X79D02*
D03*
X-79D02*
D03*
X-236D02*
D03*
X-394D02*
D03*
X-551D02*
D03*
X-709D02*
D03*
X-866D02*
D03*
D19*
X0Y394D02*
D03*
D20*
X945Y2278D02*
D03*
Y2053D02*
D03*
X1338Y-1451D02*
D03*
Y-1226D02*
D03*
X-354Y-1451D02*
D03*
Y-1226D02*
D03*
X-1650Y-703D02*
D03*
Y-478D02*
D03*
X-2441Y1305D02*
D03*
Y1530D02*
D03*
Y1047D02*
D03*
Y823D02*
D03*
X1644Y1738D02*
D03*
Y1963D02*
D03*
X1703Y663D02*
D03*
Y439D02*
D03*
X2411Y663D02*
D03*
Y439D02*
D03*
D21*
X-1978Y1463D02*
D03*
Y892D02*
D03*
D22*
X-945Y2185D02*
D03*
Y2717D02*
D03*
D23*
X-561Y3120D02*
D03*
X-935D02*
D03*
D24*
X-1339Y2136D02*
D03*
Y2530D02*
D03*
D25*
X-522Y2516D02*
D03*
X-128D02*
D03*
D39*
X2262Y1366D02*
X2793D01*
X2167Y1272D02*
X2262Y1366D01*
X2569Y2077D02*
X2599D01*
X2846Y1829D01*
Y1419D02*
Y1829D01*
X2793Y1366D02*
X2846Y1419D01*
X2396Y2250D02*
Y2411D01*
Y2250D02*
X2569Y2077D01*
X1521Y1272D02*
X2167D01*
X1352Y1102D02*
X1521Y1272D01*
X1191Y1102D02*
X1352D01*
X1644Y1738D02*
X1884D01*
X1998Y1624D01*
X1978D02*
X1998D01*
X1841Y1486D02*
X1978Y1624D01*
X1841Y1467D02*
Y1486D01*
X1764Y1390D02*
X1841Y1467D01*
X1472Y1390D02*
X1764D01*
X1342Y1260D02*
X1472Y1390D01*
X551Y1910D02*
Y3376D01*
X394Y1753D02*
X551Y1910D01*
X433Y1959D02*
Y3376D01*
X236Y1762D02*
X433Y1959D01*
X315Y2008D02*
Y3376D01*
X79Y1772D02*
X315Y2008D01*
X197Y2057D02*
Y3376D01*
X-79Y1781D02*
X197Y2057D01*
X-236Y1791D02*
X79Y2106D01*
Y3376D01*
X394Y1585D02*
Y1753D01*
X236Y1585D02*
Y1762D01*
X79Y1585D02*
Y1772D01*
X-79Y1585D02*
Y1781D01*
X-236Y1585D02*
Y1791D01*
X1191Y1260D02*
X1342D01*
D40*
X2057Y2077D02*
X2510Y1624D01*
X1998Y2077D02*
X2057D01*
X2510Y1624D02*
X2569D01*
D41*
X1998Y2077D02*
X2171Y2250D01*
Y2411D01*
X1338Y-1624D02*
Y-1451D01*
X1328Y-1634D02*
X1338Y-1624D01*
X945Y2278D02*
Y2451D01*
X955Y2461D01*
X1073Y2278D02*
X1187Y2392D01*
X945Y2278D02*
X1073D01*
X1187Y2392D02*
X1201D01*
X1095Y-1565D02*
X1209Y-1451D01*
X1338D01*
X1082Y-1565D02*
X1095D01*
X-112Y-1565D02*
X-98D01*
X-354Y-1451D02*
X-226D01*
X-112Y-1565D01*
X-354Y-1624D02*
X-344Y-1634D01*
X-354Y-1624D02*
Y-1451D01*
X1659Y2199D02*
X1876D01*
X1644Y1963D02*
Y2215D01*
X-394Y1876D02*
X-305Y1965D01*
X-394Y825D02*
Y1585D01*
X-360Y2058D02*
X-307Y2005D01*
X-360Y2058D02*
Y2240D01*
X-305Y1965D02*
Y2077D01*
X-394Y1585D02*
Y1876D01*
X1211Y472D02*
X1666D01*
X551Y630D02*
X1666D01*
X1699Y663D01*
X1666Y472D02*
X1699Y439D01*
X1705Y433D01*
X1945D01*
X2169D02*
X2654D01*
D42*
X2967D02*
X3130D01*
D43*
X3184Y433D02*
D03*
D44*
X3130Y1880D02*
D03*
X-1978Y3248D02*
D03*
X1043Y2864D02*
D03*
X3130Y-659D02*
D03*
X2096D02*
D03*
X2579Y128D02*
D03*
X3130Y89D02*
D03*
X1929Y69D02*
D03*
X2096Y-1555D02*
D03*
X3130D02*
D03*
X-2165Y1821D02*
D03*
X-1348Y2884D02*
D03*
X-1663Y2530D02*
D03*
X-2657Y2421D02*
D03*
Y3248D02*
D03*
X-1289D02*
D03*
X-177D02*
D03*
Y2835D02*
D03*
X-2657Y-433D02*
D03*
Y-1555D02*
D03*
X-1122D02*
D03*
X-1132Y-738D02*
D03*
X2028Y3248D02*
D03*
Y2697D02*
D03*
X1043Y3248D02*
D03*
X3130D02*
D03*
Y2589D02*
D03*
X3130Y778D02*
D03*
X-2697Y1417D02*
D03*
Y935D02*
D03*
X1201Y2392D02*
D03*
X1201Y2087D02*
D03*
X-1673Y2106D02*
D03*
X-1906Y-817D02*
D03*
X-1906Y-472D02*
D03*
X1082Y-1260D02*
D03*
X1082Y-1565D02*
D03*
X-98Y-1565D02*
D03*
X-98Y-1260D02*
D03*
X1644Y2215D02*
D03*
X-607Y1965D02*
D03*
X-307Y2015D02*
D03*
X3120Y1161D02*
D03*
X1646Y905D02*
D03*
X2366Y1114D02*
D03*
X2686Y709D02*
D03*
D45*
X-709Y1102D02*
D03*
X-236D02*
D03*
X236D02*
D03*
X709D02*
D03*
X-709Y630D02*
D03*
X-236D02*
D03*
X236D02*
D03*
X709D02*
D03*
X-709Y157D02*
D03*
X-236D02*
D03*
X236D02*
D03*
X709D02*
D03*
X-709Y-315D02*
D03*
X-236D02*
D03*
X236D02*
D03*
X709D02*
D03*
M02*
