G04*
G04 #@! TF.GenerationSoftware,Altium Limited,Altium Designer,21.5.1 (32)*
G04*
G04 Layer_Color=65535*
%FSLAX24Y24*%
%MOIN*%
G70*
G04*
G04 #@! TF.SameCoordinates,102D7F98-6BBB-4BC2-A7D8-B36395918042*
G04*
G04*
G04 #@! TF.FilePolarity,Positive*
G04*
G01*
G75*
%ADD10C,0.0098*%
%ADD11C,0.0060*%
%ADD12C,0.0049*%
%ADD13C,0.0079*%
%ADD14C,0.0050*%
D10*
X-1486Y1260D02*
G03*
X-1486Y1260I-49J0D01*
G01*
D11*
X2220Y2197D02*
X2346D01*
X1858Y1827D02*
Y1874D01*
X2220Y1504D02*
X2346D01*
X2709Y1827D02*
Y1874D01*
X-1142Y1988D02*
Y2352D01*
Y2549D02*
Y2913D01*
X-748Y1988D02*
Y2352D01*
Y2549D02*
Y2913D01*
X-1142Y1988D02*
X-748D01*
X-1142Y2913D02*
X-748D01*
X-1102Y2982D02*
Y3258D01*
X-394Y2982D02*
Y3258D01*
X-650Y2982D02*
X-394D01*
X-1102D02*
X-846D01*
X-650Y3258D02*
X-394D01*
X-1102D02*
X-846D01*
X-1476Y2687D02*
X-1201D01*
X-1476Y1978D02*
X-1201D01*
X-1476D02*
Y2234D01*
Y2431D02*
Y2687D01*
X-1201Y1978D02*
Y2234D01*
Y2431D02*
Y2687D01*
X-679Y2654D02*
X-423D01*
X-226D02*
X29D01*
X-679Y2378D02*
X-423D01*
X-226D02*
X29D01*
Y2654D01*
X-679Y2378D02*
Y2654D01*
D12*
X2179Y1037D02*
X2179Y1210D01*
X1793Y1037D02*
Y1210D01*
X1917D01*
X2055D02*
X2179D01*
X1793Y1037D02*
X1917D01*
X2055D02*
X2179D01*
X1032Y2234D02*
Y2358D01*
Y1972D02*
Y2096D01*
X858Y2234D02*
Y2358D01*
Y1972D02*
Y2096D01*
Y1972D02*
X1032D01*
X858Y2358D02*
X1032D01*
X1251Y-1532D02*
Y-1407D01*
Y-1270D02*
Y-1146D01*
X1424Y-1532D02*
Y-1407D01*
Y-1270D02*
Y-1146D01*
X1251D02*
X1424D01*
X1251Y-1532D02*
X1424D01*
X-441Y-1532D02*
Y-1407D01*
Y-1270D02*
Y-1146D01*
X-268Y-1532D02*
Y-1407D01*
Y-1270D02*
Y-1146D01*
X-441D02*
X-268D01*
X-441Y-1532D02*
X-268D01*
X-1736Y-783D02*
Y-659D01*
Y-522D02*
Y-398D01*
X-1563Y-783D02*
Y-659D01*
Y-522D02*
Y-398D01*
X-1736D02*
X-1563D01*
X-1736Y-783D02*
X-1563D01*
X-1955Y1898D02*
X-1831D01*
X-1693D02*
X-1569D01*
X-1955Y1725D02*
X-1831D01*
X-1693D02*
X-1569D01*
Y1898D01*
X-1955Y1725D02*
Y1898D01*
X-2528Y1224D02*
Y1348D01*
Y1486D02*
Y1610D01*
X-2354Y1224D02*
Y1348D01*
Y1486D02*
Y1610D01*
X-2528D02*
X-2354D01*
X-2528Y1224D02*
X-2354D01*
Y1004D02*
Y1128D01*
Y742D02*
Y866D01*
X-2528Y1004D02*
Y1128D01*
Y742D02*
Y866D01*
Y742D02*
X-2354D01*
X-2528Y1128D02*
X-2354D01*
X1557Y2043D02*
X1730D01*
X1557Y1657D02*
X1730D01*
X1557D02*
Y1781D01*
X1557Y2043D02*
X1557Y1919D01*
X1730Y1657D02*
X1730Y1781D01*
X1730Y2043D02*
X1730Y1919D01*
X1793Y980D02*
X1917D01*
X2055D02*
X2179D01*
X1793Y807D02*
X1917D01*
X2055D02*
X2179D01*
Y980D01*
X1793Y807D02*
Y980D01*
X-424Y2154D02*
X-300D01*
X-685D02*
X-561D01*
X-424Y2327D02*
X-300D01*
X-685D02*
X-561D01*
X-685Y2154D02*
Y2327D01*
X-300Y2154D02*
Y2327D01*
X2126Y346D02*
X2250D01*
X1864D02*
X1988D01*
X2126Y520D02*
X2250D01*
X1864D02*
X1988D01*
X1864Y346D02*
Y520D01*
X2250Y346D02*
Y520D01*
X1616Y358D02*
X1789D01*
X1616Y744D02*
X1789D01*
Y620D02*
Y744D01*
Y358D02*
Y482D01*
X1616Y620D02*
Y744D01*
Y358D02*
Y482D01*
X2325Y358D02*
X2498D01*
X2325Y744D02*
X2498D01*
Y620D02*
Y744D01*
Y358D02*
Y482D01*
X2325Y620D02*
Y744D01*
Y358D02*
Y482D01*
X2835Y346D02*
X2959D01*
X2573D02*
X2697D01*
X2835Y520D02*
X2959D01*
X2573D02*
X2697D01*
X2573Y346D02*
Y520D01*
X2959Y346D02*
Y520D01*
X2091Y2325D02*
Y2498D01*
X2476Y2325D02*
Y2498D01*
X2352Y2325D02*
X2476D01*
X2091D02*
X2215D01*
X2352Y2498D02*
X2476D01*
X2091D02*
X2215D01*
D13*
X-1181Y1378D02*
X-984Y1575D01*
X984D02*
X1181D01*
Y1378D02*
Y1575D01*
Y-787D02*
Y-591D01*
X984Y-787D02*
X1181D01*
X-1181D02*
X-984D01*
X-1181D02*
Y-591D01*
X-1742Y1083D02*
Y1272D01*
X-2215Y1083D02*
Y1272D01*
X-1063Y2411D02*
Y2490D01*
X-827Y2411D02*
Y2490D01*
D14*
X2831Y1693D02*
X3081Y1860D01*
X2831D02*
X3081Y1693D01*
Y1943D02*
Y2026D01*
Y1984D01*
X2831D01*
X2872Y1943D01*
X2417Y1332D02*
X2375Y1374D01*
X2292D01*
X2250Y1332D01*
Y1165D01*
X2292Y1124D01*
X2375D01*
X2417Y1165D01*
X2500Y1124D02*
X2583D01*
X2542D01*
Y1374D01*
X2500Y1332D01*
X2708Y1124D02*
X2792D01*
X2750D01*
Y1374D01*
X2708Y1332D01*
X-2183Y637D02*
X-2016Y387D01*
Y637D02*
X-2183Y387D01*
X-1766D02*
X-1933D01*
X-1766Y553D01*
Y595D01*
X-1808Y637D01*
X-1891D01*
X-1933Y595D01*
X-2810Y642D02*
X-2851Y600D01*
Y517D01*
X-2810Y475D01*
X-2643D01*
X-2601Y517D01*
Y600D01*
X-2643Y642D01*
X-2601Y725D02*
Y808D01*
Y767D01*
X-2851D01*
X-2810Y725D01*
X-2851Y933D02*
Y1100D01*
X-2810D01*
X-2643Y933D01*
X-2601D01*
X-2810Y1419D02*
X-2851Y1378D01*
Y1294D01*
X-2810Y1253D01*
X-2643D01*
X-2601Y1294D01*
Y1378D01*
X-2643Y1419D01*
X-2601Y1502D02*
Y1586D01*
Y1544D01*
X-2851D01*
X-2810Y1502D01*
X-2851Y1877D02*
X-2810Y1794D01*
X-2726Y1711D01*
X-2643D01*
X-2601Y1752D01*
Y1836D01*
X-2643Y1877D01*
X-2685D01*
X-2726Y1836D01*
Y1711D01*
X852Y2600D02*
X810Y2559D01*
Y2475D01*
X852Y2434D01*
X1018D01*
X1060Y2475D01*
Y2559D01*
X1018Y2600D01*
X1060Y2684D02*
Y2767D01*
Y2725D01*
X810D01*
X852Y2684D01*
X1060Y3058D02*
Y2892D01*
X893Y3058D01*
X852D01*
X810Y3017D01*
Y2934D01*
X852Y2892D01*
X1541Y-1361D02*
X1499Y-1402D01*
Y-1486D01*
X1541Y-1527D01*
X1707D01*
X1749Y-1486D01*
Y-1402D01*
X1707Y-1361D01*
X1541Y-1277D02*
X1499Y-1236D01*
Y-1152D01*
X1541Y-1111D01*
X1582D01*
X1624Y-1152D01*
X1666Y-1111D01*
X1707D01*
X1749Y-1152D01*
Y-1236D01*
X1707Y-1277D01*
X1666D01*
X1624Y-1236D01*
X1582Y-1277D01*
X1541D01*
X1624Y-1236D02*
Y-1152D01*
X-723Y-1361D02*
X-765Y-1402D01*
Y-1486D01*
X-723Y-1527D01*
X-556D01*
X-515Y-1486D01*
Y-1402D01*
X-556Y-1361D01*
X-765Y-1277D02*
Y-1111D01*
X-723D01*
X-556Y-1277D01*
X-515D01*
X-1737Y-150D02*
X-1778Y-192D01*
Y-275D01*
X-1737Y-317D01*
X-1570D01*
X-1529Y-275D01*
Y-192D01*
X-1570Y-150D01*
X-1778Y100D02*
X-1737Y17D01*
X-1654Y-67D01*
X-1570D01*
X-1529Y-25D01*
Y58D01*
X-1570Y100D01*
X-1612D01*
X-1654Y58D01*
Y-67D01*
X-2276Y1904D02*
X-2318Y1946D01*
X-2401D01*
X-2443Y1904D01*
Y1738D01*
X-2401Y1696D01*
X-2318D01*
X-2276Y1738D01*
X-2026Y1946D02*
X-2193D01*
Y1821D01*
X-2109Y1863D01*
X-2068D01*
X-2026Y1821D01*
Y1738D01*
X-2068Y1696D01*
X-2151D01*
X-2193Y1738D01*
X-1470Y2766D02*
X-1220D01*
Y2932D01*
X-1429Y3016D02*
X-1470Y3057D01*
Y3141D01*
X-1429Y3182D01*
X-1387D01*
X-1345Y3141D01*
Y3099D01*
Y3141D01*
X-1304Y3182D01*
X-1262D01*
X-1220Y3141D01*
Y3057D01*
X-1262Y3016D01*
X-315Y3252D02*
Y3002D01*
X-148D01*
X60D02*
Y3252D01*
X-65Y3127D01*
X102D01*
X-1783Y2184D02*
X-1825Y2143D01*
Y2059D01*
X-1783Y2018D01*
X-1616D01*
X-1575Y2059D01*
Y2143D01*
X-1616Y2184D01*
X-1575Y2268D02*
Y2351D01*
Y2309D01*
X-1825D01*
X-1783Y2268D01*
Y2476D02*
X-1825Y2518D01*
Y2601D01*
X-1783Y2643D01*
X-1741D01*
X-1700Y2601D01*
Y2559D01*
Y2601D01*
X-1658Y2643D01*
X-1616D01*
X-1575Y2601D01*
Y2518D01*
X-1616Y2476D01*
X-60Y2265D02*
X-101Y2307D01*
X-185D01*
X-226Y2265D01*
Y2099D01*
X-185Y2057D01*
X-101D01*
X-60Y2099D01*
X24Y2057D02*
X107D01*
X65D01*
Y2307D01*
X24Y2265D01*
X398Y2307D02*
X232D01*
Y2182D01*
X315Y2224D01*
X357D01*
X398Y2182D01*
Y2099D01*
X357Y2057D01*
X273D01*
X232Y2099D01*
X275Y2600D02*
X233Y2642D01*
X150D01*
X108Y2600D01*
Y2433D01*
X150Y2392D01*
X233D01*
X275Y2433D01*
X358Y2392D02*
X441D01*
X400D01*
Y2642D01*
X358Y2600D01*
X691Y2392D02*
Y2642D01*
X566Y2517D01*
X733D01*
X1900Y250D02*
Y0D01*
X2066D01*
X2150D02*
X2233D01*
X2191D01*
Y250D01*
X2150Y208D01*
X1613Y9D02*
X1571Y-33D01*
Y-116D01*
X1613Y-157D01*
X1779D01*
X1821Y-116D01*
Y-33D01*
X1779Y9D01*
X1613Y92D02*
X1571Y134D01*
Y217D01*
X1613Y259D01*
X1654D01*
X1696Y217D01*
Y176D01*
Y217D01*
X1738Y259D01*
X1779D01*
X1821Y217D01*
Y134D01*
X1779Y92D01*
X2321Y9D02*
X2280Y-33D01*
Y-116D01*
X2321Y-157D01*
X2488D01*
X2530Y-116D01*
Y-33D01*
X2488Y9D01*
X2530Y217D02*
X2280D01*
X2405Y92D01*
Y259D01*
X2608Y260D02*
Y10D01*
X2775D01*
X3025D02*
X2858D01*
X3025Y176D01*
Y218D01*
X2983Y260D01*
X2900D01*
X2858Y218D01*
X2417Y1015D02*
X2375Y1057D01*
X2292D01*
X2250Y1015D01*
Y849D01*
X2292Y807D01*
X2375D01*
X2417Y849D01*
X2500Y807D02*
X2583D01*
X2542D01*
Y1057D01*
X2500Y1015D01*
X2708D02*
X2750Y1057D01*
X2833D01*
X2875Y1015D01*
Y849D01*
X2833Y807D01*
X2750D01*
X2708Y849D01*
Y1015D01*
X1278Y1810D02*
X1236Y1769D01*
Y1685D01*
X1278Y1644D01*
X1445D01*
X1486Y1685D01*
Y1769D01*
X1445Y1810D01*
X1486Y2060D02*
Y1894D01*
X1320Y2060D01*
X1278D01*
X1236Y2019D01*
Y1935D01*
X1278Y1894D01*
X2283Y2777D02*
X2241Y2819D01*
X2158D01*
X2116Y2777D01*
Y2611D01*
X2158Y2569D01*
X2241D01*
X2283Y2611D01*
X2366Y2569D02*
X2449D01*
X2408D01*
Y2819D01*
X2366Y2777D01*
X335Y-1099D02*
Y-1307D01*
X376Y-1348D01*
X460D01*
X501Y-1307D01*
Y-1099D01*
X585Y-1348D02*
X668D01*
X626D01*
Y-1099D01*
X585Y-1140D01*
M02*
