<?xml version="1.0" standalone="no"?>
 <!DOCTYPE svg PUBLIC "-//W3C//DTD SVG 1.1//EN" 
 "http://www.w3.org/Graphics/SVG/1.1/DTD/svg11.dtd"> 
<svg
  xmlns:svg="http://www.w3.org/2000/svg"
  xmlns="http://www.w3.org/2000/svg"
  xmlns:xlink="http://www.w3.org/1999/xlink"
  xmlns:inkscape="http://www.inkscape.org/namespaces/inkscape"
  version="1.1"
  width="49.9872mm" height="72.9996mm" viewBox="0.0000 0.0000 49.9872 72.9996">
<title>SVG Image created as Mouse_Project-F_Paste.svg date 2026-04-30T10:29:31 </title>
  <desc>Image generated by PCBNEW </desc>
<g style="fill:#000000; fill-opacity:1.0000;stroke:#000000; stroke-opacity:1.0000;
stroke-linecap:round; stroke-linejoin:round;"
 transform="translate(0 0) scale(1 1)">
<path style="fill:#B4A09A; fill-opacity:0.9000; stroke:none;fill-rule:evenodd;"
d="M 35.9450,60.6350
35.9450,62.3650
34.9750,62.3650
34.9750,60.6350
Z" /> 
<path style="fill:#B4A09A; fill-opacity:0.9000; stroke:none;fill-rule:evenodd;"
d="M 32.9850,60.6350
32.9850,62.3650
32.0150,62.3650
32.0150,60.6350
Z" /> 
<path style="fill:#B4A09A; fill-opacity:0.9000; stroke:none;fill-rule:evenodd;"
d="M 14.7600,66.4400
14.8174,66.4514
14.8661,66.4839
14.8986,66.5326
14.9100,66.5900
14.9100,67.4900
14.8986,67.5474
14.8661,67.5961
14.8174,67.6286
14.7600,67.6400
13.2400,67.6400
13.1826,67.6286
13.1339,67.5961
13.1014,67.5474
13.0900,67.4900
13.0900,66.5900
13.1014,66.5326
13.1339,66.4839
13.1826,66.4514
13.2400,66.4400
Z" /> 
<path style="fill:#B4A09A; fill-opacity:0.9000; stroke:none;fill-rule:evenodd;"
d="M 14.7600,69.3600
14.8174,69.3714
14.8661,69.4039
14.8986,69.4526
14.9100,69.5100
14.9100,70.4100
14.8986,70.4674
14.8661,70.5161
14.8174,70.5486
14.7600,70.5600
13.2400,70.5600
13.1826,70.5486
13.1339,70.5161
13.1014,70.4674
13.0900,70.4100
13.0900,69.5100
13.1014,69.4526
13.1339,69.4039
13.1826,69.3714
13.2400,69.3600
Z" /> 
<path style="fill:#B4A09A; fill-opacity:0.9000; stroke:none;fill-rule:evenodd;"
d="M 13.7400,58.5600
13.6826,58.5486
13.6339,58.5161
13.6014,58.4674
13.5900,58.4100
13.5900,57.5100
13.6014,57.4526
13.6339,57.4039
13.6826,57.3714
13.7400,57.3600
15.2600,57.3600
15.3174,57.3714
15.3661,57.4039
15.3986,57.4526
15.4100,57.5100
15.4100,58.4100
15.3986,58.4674
15.3661,58.5161
15.3174,58.5486
15.2600,58.5600
Z" /> 
<path style="fill:#B4A09A; fill-opacity:0.9000; stroke:none;fill-rule:evenodd;"
d="M 13.7400,55.6400
13.6826,55.6286
13.6339,55.5961
13.6014,55.5474
13.5900,55.4900
13.5900,54.5900
13.6014,54.5326
13.6339,54.4839
13.6826,54.4514
13.7400,54.4400
15.2600,54.4400
15.3174,54.4514
15.3661,54.4839
15.3986,54.5326
15.4100,54.5900
15.4100,55.4900
15.3986,55.5474
15.3661,55.5961
15.3174,55.6286
15.2600,55.6400
Z" /> 
<path style="fill:#B4A09A; fill-opacity:0.9000; stroke:none;fill-rule:evenodd;"
d="M 36.1050,52.5900
36.1050,54.4100
34.8650,54.4100
34.8650,52.5900
Z" /> 
<path style="fill:#B4A09A; fill-opacity:0.9000; stroke:none;fill-rule:evenodd;"
d="M 33.1350,52.5900
33.1350,54.4100
31.8950,54.4100
31.8950,52.5900
Z" /> 
<path style="fill:#B4A09A; fill-opacity:0.9000; stroke:none;fill-rule:evenodd;"
d="M 17.9100,58.6050
16.0900,58.6050
16.0900,57.3650
17.9100,57.3650
Z" /> 
<path style="fill:#B4A09A; fill-opacity:0.9000; stroke:none;fill-rule:evenodd;"
d="M 17.9100,55.6350
16.0900,55.6350
16.0900,54.3950
17.9100,54.3950
Z" /> 
<path style="fill:#B4A09A; fill-opacity:0.9000; stroke:none;fill-rule:evenodd;"
d="M 9.0450,61.2350
9.0450,59.7650
10.2050,59.7650
10.2050,61.2350
Z" /> 
<path style="fill:#B4A09A; fill-opacity:0.9000; stroke:none;fill-rule:evenodd;"
d="M 10.7950,61.2350
10.7950,59.7650
11.9550,59.7650
11.9550,61.2350
Z" /> 
<path style="fill:#B4A09A; fill-opacity:0.9000; stroke:none;fill-rule:evenodd;"
d="M 13.6250,62.0500
13.8750,62.0500
13.8750,62.6000
13.6250,62.6000
Z" /> 
<path style="fill:#B4A09A; fill-opacity:0.9000; stroke:none;fill-rule:evenodd;"
d="M 13.1250,62.0500
13.3750,62.0500
13.3750,62.6000
13.1250,62.6000
Z" /> 
<path style="fill:#B4A09A; fill-opacity:0.9000; stroke:none;fill-rule:evenodd;"
d="M 12.6250,62.0500
12.8750,62.0500
12.8750,62.6000
12.6250,62.6000
Z" /> 
<path style="fill:#B4A09A; fill-opacity:0.9000; stroke:none;fill-rule:evenodd;"
d="M 12.1250,62.0500
12.3750,62.0500
12.3750,62.6000
12.1250,62.6000
Z" /> 
<path style="fill:#B4A09A; fill-opacity:0.9000; stroke:none;fill-rule:evenodd;"
d="M 12.1250,63.4000
12.3750,63.4000
12.3750,63.9500
12.1250,63.9500
Z" /> 
<path style="fill:#B4A09A; fill-opacity:0.9000; stroke:none;fill-rule:evenodd;"
d="M 12.6250,63.4000
12.8750,63.4000
12.8750,63.9500
12.6250,63.9500
Z" /> 
<path style="fill:#B4A09A; fill-opacity:0.9000; stroke:none;fill-rule:evenodd;"
d="M 13.1250,63.4000
13.3750,63.4000
13.3750,63.9500
13.1250,63.9500
Z" /> 
<path style="fill:#B4A09A; fill-opacity:0.9000; stroke:none;fill-rule:evenodd;"
d="M 13.6250,63.4000
13.8750,63.4000
13.8750,63.9500
13.6250,63.9500
Z" /> 
<path style="fill:#B4A09A; fill-opacity:0.9000; stroke:none;fill-rule:evenodd;"
d="M 11.9000,64.9967
11.9000,67.0033
11.1000,67.0033
11.1000,64.9967
Z" /> 
<path style="fill:#B4A09A; fill-opacity:0.9000; stroke:none;fill-rule:evenodd;"
d="M 9.9000,64.9967
9.9000,67.0033
9.1000,67.0033
9.1000,64.9967
Z" /> 
<path style="fill:#B4A09A; fill-opacity:0.9000; stroke:none;fill-rule:evenodd;"
d="M 9.9812,62.1491
9.9812,63.8509
8.9652,63.8509
8.9652,62.1491
Z" /> 
<path style="fill:#B4A09A; fill-opacity:0.9000; stroke:none;fill-rule:evenodd;"
d="M 7.0348,62.1491
7.0348,63.8509
6.0188,63.8509
6.0188,62.1491
Z" /> 
<path style="fill:#B4A09A; fill-opacity:0.9000; stroke:none;fill-rule:evenodd;"
d="M 10.0600,58.7600
10.0486,58.8174
10.0161,58.8661
9.9674,58.8986
9.9100,58.9100
9.0100,58.9100
8.9526,58.8986
8.9039,58.8661
8.8714,58.8174
8.8600,58.7600
8.8600,57.2400
8.8714,57.1826
8.9039,57.1339
8.9526,57.1014
9.0100,57.0900
9.9100,57.0900
9.9674,57.1014
10.0161,57.1339
10.0486,57.1826
10.0600,57.2400
Z" /> 
<path style="fill:#B4A09A; fill-opacity:0.9000; stroke:none;fill-rule:evenodd;"
d="M 7.1400,58.7600
7.1286,58.8174
7.0961,58.8661
7.0474,58.8986
6.9900,58.9100
6.0900,58.9100
6.0326,58.8986
5.9839,58.8661
5.9514,58.8174
5.9400,58.7600
5.9400,57.2400
5.9514,57.1826
5.9839,57.1339
6.0326,57.1014
6.0900,57.0900
6.9900,57.0900
7.0474,57.1014
7.0961,57.1339
7.1286,57.1826
7.1400,57.2400
Z" /> 
<path style="fill:#B4A09A; fill-opacity:0.9000; stroke:none;fill-rule:evenodd;"
d="M 36.0600,51.7600
36.0486,51.8174
36.0161,51.8661
35.9674,51.8986
35.9100,51.9100
35.0100,51.9100
34.9526,51.8986
34.9039,51.8661
34.8714,51.8174
34.8600,51.7600
34.8600,50.2400
34.8714,50.1826
34.9039,50.1339
34.9526,50.1014
35.0100,50.0900
35.9100,50.0900
35.9674,50.1014
36.0161,50.1339
36.0486,50.1826
36.0600,50.2400
Z" /> 
<path style="fill:#B4A09A; fill-opacity:0.9000; stroke:none;fill-rule:evenodd;"
d="M 33.1400,51.7600
33.1286,51.8174
33.0961,51.8661
33.0474,51.8986
32.9900,51.9100
32.0900,51.9100
32.0326,51.8986
31.9839,51.8661
31.9514,51.8174
31.9400,51.7600
31.9400,50.2400
31.9514,50.1826
31.9839,50.1339
32.0326,50.1014
32.0900,50.0900
32.9900,50.0900
33.0474,50.1014
33.0961,50.1339
33.1286,50.1826
33.1400,50.2400
Z" /> 
<path style="fill:#B4A09A; fill-opacity:0.9000; stroke:none;fill-rule:evenodd;"
d="M 35.8589,55.4031
35.8589,56.5969
34.8429,56.5969
34.8429,55.4031
Z" /> 
<path style="fill:#B4A09A; fill-opacity:0.9000; stroke:none;fill-rule:evenodd;"
d="M 34.1571,55.4031
34.1571,56.5969
33.1411,56.5969
33.1411,55.4031
Z" /> 
</g> 
</svg>
