%TF.GenerationSoftware,KiCad,Pcbnew,9.0.7*%
%TF.CreationDate,2026-01-19T13:59:45-05:00*%
%TF.ProjectId,Mouse_Project,4d6f7573-655f-4507-926f-6a6563742e6b,rev?*%
%TF.SameCoordinates,Original*%
%TF.FileFunction,Profile,NP*%
%FSLAX46Y46*%
G04 Gerber Fmt 4.6, Leading zero omitted, Abs format (unit mm)*
G04 Created by KiCad (PCBNEW 9.0.7) date 2026-01-19 13:59:45*
%MOMM*%
%LPD*%
G01*
G04 APERTURE LIST*
%TA.AperFunction,Profile*%
%ADD10C,0.200000*%
%TD*%
%ADD11C,0.200000*%
%TA.AperFunction,Profile*%
%ADD12C,0.050000*%
%TD*%
%TA.AperFunction,Profile*%
%ADD13C,0.100000*%
%TD*%
G04 APERTURE END LIST*
D10*
X140000000Y-117000000D02*
G75*
G02*
X134000000Y-123000000I-6000000J0D01*
G01*
D11*
X140000000Y-70000000D02*
X139999662Y-69975201D01*
X139999232Y-69949567D01*
X139998707Y-69923097D01*
X139998085Y-69895795D01*
X139997364Y-69867662D01*
X139996540Y-69838704D01*
X139995613Y-69808926D01*
X139994579Y-69778333D01*
X139993438Y-69746934D01*
X139992186Y-69714736D01*
X139990823Y-69681748D01*
X139989347Y-69647981D01*
X139987757Y-69613444D01*
X139986918Y-69595880D01*
X139986051Y-69578149D01*
X139985154Y-69560211D01*
X139984229Y-69542107D01*
X139983273Y-69523803D01*
X139982288Y-69505332D01*
X139981273Y-69486666D01*
X139980229Y-69467836D01*
X139979154Y-69448816D01*
X139978050Y-69429632D01*
X139976915Y-69410265D01*
X139975751Y-69390734D01*
X139974555Y-69371026D01*
X139973330Y-69351156D01*
X139972074Y-69331115D01*
X139970788Y-69310912D01*
X139969472Y-69290545D01*
X139968125Y-69270018D01*
X139966747Y-69249332D01*
X139965339Y-69228487D01*
X139963900Y-69207490D01*
X139962430Y-69186335D01*
X139960930Y-69165033D01*
X139959399Y-69143576D01*
X139957838Y-69121978D01*
X139956245Y-69100226D01*
X139954623Y-69078339D01*
X139952969Y-69056299D01*
X139951285Y-69034131D01*
X139949569Y-69011811D01*
X139947824Y-68989369D01*
X139946047Y-68966777D01*
X139944241Y-68944068D01*
X139942403Y-68921211D01*
X139940536Y-68898244D01*
X139938637Y-68875129D01*
X139936709Y-68851910D01*
X139934748Y-68828546D01*
X139932760Y-68805082D01*
X139930738Y-68781475D01*
X139928689Y-68757774D01*
X139926607Y-68733931D01*
X139924498Y-68710000D01*
X139922356Y-68685929D01*
X139920186Y-68661775D01*
X139917984Y-68637483D01*
X139915754Y-68613113D01*
X139913492Y-68588606D01*
X139911203Y-68564027D01*
X139908882Y-68539313D01*
X139906533Y-68514531D01*
X139904152Y-68489616D01*
X139901745Y-68464638D01*
X139899305Y-68439529D01*
X139896839Y-68414361D01*
X139894340Y-68389065D01*
X139891815Y-68363714D01*
X139889258Y-68338237D01*
X139886676Y-68312709D01*
X139884061Y-68287057D01*
X139881420Y-68261358D01*
X139878747Y-68235537D01*
X139876050Y-68209674D01*
X139873320Y-68183689D01*
X139870565Y-68157668D01*
X139867778Y-68131526D01*
X139864967Y-68105352D01*
X139862123Y-68079059D01*
X139859255Y-68052737D01*
X139856355Y-68026298D01*
X139853432Y-67999834D01*
X139850475Y-67973256D01*
X139847497Y-67946655D01*
X139844485Y-67919942D01*
X139841451Y-67893210D01*
X139838384Y-67866368D01*
X139835295Y-67839509D01*
X139832174Y-67812542D01*
X139829031Y-67785563D01*
X139825855Y-67758477D01*
X139822658Y-67731381D01*
X139819428Y-67704180D01*
X139816177Y-67676974D01*
X139812893Y-67649663D01*
X139809589Y-67622349D01*
X139806253Y-67594933D01*
X139802896Y-67567517D01*
X139799506Y-67540001D01*
X139796097Y-67512487D01*
X139792655Y-67484875D01*
X139789194Y-67457268D01*
X139785700Y-67429564D01*
X139782187Y-67401867D01*
X139778641Y-67374075D01*
X139775077Y-67346294D01*
X139771480Y-67318418D01*
X139767865Y-67290555D01*
X139764217Y-67262601D01*
X139760551Y-67234661D01*
X139756853Y-67206630D01*
X139753137Y-67178617D01*
X139749389Y-67150514D01*
X139745623Y-67122431D01*
X139741826Y-67094260D01*
X139738010Y-67066111D01*
X139734163Y-67037876D01*
X139730299Y-67009664D01*
X139726403Y-66981368D01*
X139722490Y-66953097D01*
X139718546Y-66924743D01*
X139714585Y-66896416D01*
X139710592Y-66868008D01*
X139706583Y-66839629D01*
X139702542Y-66811170D01*
X139698486Y-66782741D01*
X139694398Y-66754234D01*
X139690294Y-66725759D01*
X139686159Y-66697207D01*
X139682009Y-66668689D01*
X139677827Y-66640095D01*
X139673630Y-66611536D01*
X139669402Y-66582903D01*
X139665159Y-66554308D01*
X139660885Y-66525638D01*
X139656596Y-66497008D01*
X139652276Y-66468306D01*
X139647942Y-66439643D01*
X139643577Y-66410910D01*
X139639198Y-66382218D01*
X139634788Y-66353457D01*
X139630364Y-66324738D01*
X139625909Y-66295952D01*
X139621441Y-66267209D01*
X139616943Y-66238399D01*
X139612430Y-66209635D01*
X139607888Y-66180805D01*
X139603332Y-66152021D01*
X139598745Y-66123172D01*
X139594146Y-66094371D01*
X139589517Y-66065507D01*
X139584875Y-66036691D01*
X139580202Y-66007813D01*
X139575517Y-65978984D01*
X139570802Y-65950095D01*
X139566075Y-65921256D01*
X139561318Y-65892357D01*
X139556548Y-65863510D01*
X139551749Y-65834604D01*
X139546938Y-65805750D01*
X139542097Y-65776839D01*
X139537245Y-65747981D01*
X139532363Y-65719066D01*
X139527469Y-65690205D01*
X139522546Y-65661290D01*
X139517612Y-65632428D01*
X139512648Y-65603513D01*
X139507673Y-65574653D01*
X139502669Y-65545740D01*
X139497654Y-65516883D01*
X139492610Y-65487974D01*
X139487555Y-65459122D01*
X139482471Y-65430219D01*
X139477377Y-65401373D01*
X139472253Y-65372478D01*
X139467119Y-65343640D01*
X139461957Y-65314754D01*
X139456784Y-65285926D01*
X139451582Y-65257051D01*
X139446371Y-65228234D01*
X139441131Y-65199371D01*
X139435881Y-65170567D01*
X139430602Y-65141718D01*
X139425314Y-65112929D01*
X139419998Y-65084095D01*
X139414672Y-65055321D01*
X139409317Y-65026504D01*
X139403954Y-64997748D01*
X139398562Y-64968949D01*
X139393161Y-64940212D01*
X139387732Y-64911432D01*
X139382295Y-64882715D01*
X139376829Y-64853956D01*
X139371354Y-64825260D01*
X139365851Y-64796523D01*
X139360340Y-64767850D01*
X139354801Y-64739136D01*
X139349254Y-64710487D01*
X139343678Y-64681798D01*
X139338095Y-64653174D01*
X139332484Y-64624511D01*
X139326865Y-64595913D01*
X139321218Y-64567277D01*
X139315564Y-64538707D01*
X139309882Y-64510099D01*
X139304192Y-64481557D01*
X139298475Y-64452979D01*
X139292750Y-64424467D01*
X139286998Y-64395919D01*
X139281238Y-64367437D01*
X139275452Y-64338921D01*
X139269658Y-64310471D01*
X139263837Y-64281988D01*
X139258009Y-64253571D01*
X139252153Y-64225120D01*
X139246291Y-64196737D01*
X139240402Y-64168322D01*
X139234506Y-64139973D01*
X139228583Y-64111593D01*
X139222654Y-64083281D01*
X139216698Y-64054937D01*
X139210735Y-64026661D01*
X139204746Y-63998355D01*
X139198750Y-63970116D01*
X139192728Y-63941848D01*
X139186699Y-63913648D01*
X139180644Y-63885419D01*
X139174583Y-63857258D01*
X139168496Y-63829069D01*
X139162402Y-63800949D01*
X139156282Y-63772801D01*
X139150157Y-63744721D01*
X139144005Y-63716614D01*
X139137848Y-63688577D01*
X139131664Y-63660512D01*
X139125475Y-63632517D01*
X139119260Y-63604496D01*
X139113039Y-63576544D01*
X139106792Y-63548567D01*
X139100540Y-63520659D01*
X139094263Y-63492726D01*
X139087980Y-63464863D01*
X139081671Y-63436976D01*
X139075357Y-63409158D01*
X139069018Y-63381317D01*
X139062673Y-63353545D01*
X139056303Y-63325751D01*
X139049928Y-63298026D01*
X139043528Y-63270279D01*
X139037123Y-63242601D01*
X139030692Y-63214902D01*
X139024257Y-63187273D01*
X139017797Y-63159622D01*
X139011332Y-63132042D01*
X139004842Y-63104441D01*
X138998348Y-63076909D01*
X138991828Y-63049358D01*
X138985304Y-63021876D01*
X138978755Y-62994375D01*
X138972202Y-62966944D01*
X138965624Y-62939494D01*
X138959042Y-62912114D01*
X138952435Y-62884716D01*
X138945824Y-62857388D01*
X138939189Y-62830041D01*
X138932549Y-62802765D01*
X138925885Y-62775471D01*
X138919217Y-62748247D01*
X138912525Y-62721007D01*
X138905829Y-62693836D01*
X138899108Y-62666649D01*
X138892384Y-62639532D01*
X138885635Y-62612399D01*
X138878883Y-62585336D01*
X138872106Y-62558257D01*
X138865327Y-62531249D01*
X138858523Y-62504226D01*
X138851715Y-62477272D01*
X138844884Y-62450304D01*
X138838049Y-62423406D01*
X138831191Y-62396494D01*
X138824329Y-62369652D01*
X138817443Y-62342796D01*
X138810555Y-62316011D01*
X138803642Y-62289211D01*
X138796727Y-62262482D01*
X138789787Y-62235740D01*
X138782845Y-62209069D01*
X138775879Y-62182384D01*
X138768911Y-62155770D01*
X138761919Y-62129143D01*
X138754924Y-62102586D01*
X138747906Y-62076018D01*
X138740885Y-62049520D01*
X138733840Y-62023010D01*
X138726794Y-61996570D01*
X138719723Y-61970119D01*
X138712651Y-61943739D01*
X138705555Y-61917347D01*
X138698457Y-61891026D01*
X138691336Y-61864694D01*
X138684212Y-61838432D01*
X138677066Y-61812160D01*
X138669917Y-61785958D01*
X138662745Y-61759746D01*
X138655571Y-61733605D01*
X138648374Y-61707454D01*
X138641176Y-61681372D01*
X138633954Y-61655282D01*
X138626730Y-61629262D01*
X138619484Y-61603233D01*
X138612236Y-61577273D01*
X138604965Y-61551306D01*
X138597692Y-61525408D01*
X138590397Y-61499502D01*
X138583100Y-61473666D01*
X138575781Y-61447822D01*
X138568460Y-61422047D01*
X138561116Y-61396266D01*
X138553771Y-61370553D01*
X138546404Y-61344835D01*
X138539035Y-61319184D01*
X138531643Y-61293528D01*
X138524251Y-61267941D01*
X138516836Y-61242348D01*
X138509420Y-61216823D01*
X138501982Y-61191293D01*
X138494543Y-61165831D01*
X138487081Y-61140365D01*
X138479619Y-61114967D01*
X138472134Y-61089564D01*
X138464648Y-61064229D01*
X138457140Y-61038890D01*
X138449632Y-61013619D01*
X138442101Y-60988344D01*
X138434570Y-60963137D01*
X138427016Y-60937926D01*
X138419463Y-60912783D01*
X138411887Y-60887636D01*
X138404310Y-60862557D01*
X138396712Y-60837475D01*
X138389113Y-60812461D01*
X138381492Y-60787444D01*
X138373871Y-60762494D01*
X138366228Y-60737542D01*
X138358585Y-60712657D01*
X138350921Y-60687770D01*
X138343256Y-60662950D01*
X138335569Y-60638128D01*
X138327882Y-60613374D01*
X138320174Y-60588617D01*
X138312465Y-60563928D01*
X138304735Y-60539237D01*
X138297005Y-60514613D01*
X138289254Y-60489987D01*
X138281503Y-60465429D01*
X138273730Y-60440869D01*
X138265957Y-60416377D01*
X138258163Y-60391883D01*
X138250369Y-60367456D01*
X138242554Y-60343029D01*
X138234740Y-60318668D01*
X138226904Y-60294306D01*
X138219068Y-60270011D01*
X138211211Y-60245716D01*
X138203355Y-60221487D01*
X138195478Y-60197259D01*
X138187601Y-60173096D01*
X138179703Y-60148934D01*
X138171806Y-60124838D01*
X138163887Y-60100743D01*
X138155970Y-60076713D01*
X138148031Y-60052684D01*
X138140093Y-60028721D01*
X138132134Y-60004759D01*
X138124176Y-59980863D01*
X138116198Y-59956968D01*
X138108220Y-59933138D01*
X138100221Y-59909310D01*
X138092223Y-59885547D01*
X138084205Y-59861786D01*
X138076187Y-59838090D01*
X138068149Y-59814396D01*
X138060112Y-59790768D01*
X138052054Y-59767141D01*
X138043998Y-59743579D01*
X138035921Y-59720020D01*
X138027845Y-59696525D01*
X138019748Y-59673033D01*
X138011653Y-59649605D01*
X138003538Y-59626181D01*
X137995423Y-59602820D01*
X137987289Y-59579463D01*
X137979155Y-59556170D01*
X137971002Y-59532880D01*
X137962850Y-59509655D01*
X137954677Y-59486433D01*
X137946506Y-59463275D01*
X137938315Y-59440120D01*
X137930126Y-59417029D01*
X137921916Y-59393942D01*
X137913708Y-59370919D01*
X137905480Y-59347900D01*
X137897253Y-59324944D01*
X137889007Y-59301993D01*
X137880762Y-59279105D01*
X137872497Y-59256221D01*
X137864234Y-59233400D01*
X137855951Y-59210584D01*
X137847670Y-59187831D01*
X137839369Y-59165083D01*
X137831070Y-59142398D01*
X137822751Y-59119717D01*
X137814434Y-59097100D01*
X137806098Y-59074487D01*
X137797763Y-59051937D01*
X137789409Y-59029393D01*
X137781056Y-59006911D01*
X137772684Y-58984434D01*
X137764314Y-58962019D01*
X137755925Y-58939610D01*
X137747538Y-58917264D01*
X137739131Y-58894923D01*
X137730726Y-58872644D01*
X137722302Y-58850371D01*
X137713880Y-58828160D01*
X137705439Y-58805954D01*
X137697000Y-58783811D01*
X137688542Y-58761674D01*
X137680086Y-58739598D01*
X137671611Y-58717528D01*
X137663138Y-58695521D01*
X137654646Y-58673519D01*
X137646156Y-58651579D01*
X137637647Y-58629645D01*
X137629140Y-58607773D01*
X137620615Y-58585907D01*
X137612092Y-58564102D01*
X137603550Y-58542304D01*
X137595010Y-58520567D01*
X137586452Y-58498837D01*
X137577896Y-58477168D01*
X137569321Y-58455506D01*
X137560749Y-58433904D01*
X137552158Y-58412310D01*
X137543569Y-58390776D01*
X137534962Y-58369249D01*
X137526357Y-58347783D01*
X137517734Y-58326324D01*
X137509113Y-58304926D01*
X137500474Y-58283535D01*
X137491838Y-58262204D01*
X137483182Y-58240880D01*
X137474530Y-58219617D01*
X137465859Y-58198361D01*
X137457191Y-58177165D01*
X137448505Y-58155977D01*
X137439821Y-58134849D01*
X137431119Y-58113728D01*
X137422419Y-58092667D01*
X137413702Y-58071615D01*
X137404987Y-58050621D01*
X137396254Y-58029636D01*
X137387524Y-58008710D01*
X137378776Y-57987792D01*
X137370030Y-57966933D01*
X137361267Y-57946083D01*
X137352506Y-57925291D01*
X137343727Y-57904509D01*
X137334952Y-57883785D01*
X137326158Y-57863069D01*
X137317367Y-57842412D01*
X137308559Y-57821764D01*
X137299753Y-57801174D01*
X137290930Y-57780594D01*
X137282110Y-57760071D01*
X137273271Y-57739557D01*
X137264436Y-57719102D01*
X137255583Y-57698656D01*
X137246734Y-57678267D01*
X137237866Y-57657888D01*
X137229002Y-57637566D01*
X137220120Y-57617254D01*
X137211241Y-57596999D01*
X137202345Y-57576754D01*
X137193451Y-57556567D01*
X137184541Y-57536389D01*
X137175633Y-57516267D01*
X137166708Y-57496156D01*
X137157787Y-57476102D01*
X137148847Y-57456058D01*
X137139912Y-57436070D01*
X137130958Y-57416093D01*
X137122008Y-57396172D01*
X137113041Y-57376261D01*
X137104077Y-57356407D01*
X137095096Y-57336563D01*
X137086119Y-57316775D01*
X137077124Y-57296997D01*
X137068132Y-57277276D01*
X137059123Y-57257565D01*
X137050118Y-57237909D01*
X137041096Y-57218265D01*
X137032077Y-57198676D01*
X137023041Y-57179098D01*
X137014008Y-57159575D01*
X137004959Y-57140064D01*
X136995913Y-57120607D01*
X136986850Y-57101162D01*
X136977790Y-57081771D01*
X136968714Y-57062392D01*
X136959641Y-57043067D01*
X136950552Y-57023754D01*
X136941466Y-57004496D01*
X136932363Y-56985248D01*
X136923264Y-56966056D01*
X136914148Y-56946874D01*
X136905036Y-56927748D01*
X136895907Y-56908632D01*
X136886781Y-56889571D01*
X136877639Y-56870521D01*
X136868501Y-56851526D01*
X136859346Y-56832542D01*
X136850195Y-56813612D01*
X136841028Y-56794693D01*
X136831864Y-56775829D01*
X136822683Y-56756976D01*
X136813507Y-56738177D01*
X136804313Y-56719389D01*
X136795124Y-56700656D01*
X136785918Y-56681934D01*
X136776716Y-56663265D01*
X136767498Y-56644608D01*
X136758284Y-56626005D01*
X136749053Y-56607413D01*
X136739826Y-56588874D01*
X136730583Y-56570348D01*
X136721344Y-56551874D01*
X136712088Y-56533413D01*
X136702837Y-56515004D01*
X136693569Y-56496608D01*
X136684305Y-56478264D01*
X136675025Y-56459932D01*
X136665749Y-56441653D01*
X136656457Y-56423386D01*
X136647169Y-56405171D01*
X136637865Y-56386969D01*
X136628565Y-56368819D01*
X136619249Y-56350681D01*
X136609937Y-56332595D01*
X136600609Y-56314522D01*
X136591285Y-56296500D01*
X136581945Y-56278491D01*
X136572609Y-56260534D01*
X136563258Y-56242590D01*
X136553910Y-56224696D01*
X136544547Y-56206816D01*
X136535187Y-56188987D01*
X136525812Y-56171170D01*
X136516441Y-56153405D01*
X136507055Y-56135653D01*
X136497672Y-56117951D01*
X136488274Y-56100263D01*
X136478880Y-56082625D01*
X136469471Y-56065000D01*
X136460065Y-56047426D01*
X136450644Y-56029865D01*
X136441227Y-56012355D01*
X136431795Y-55994857D01*
X136422367Y-55977410D01*
X136412923Y-55959976D01*
X136403484Y-55942592D01*
X136394029Y-55925222D01*
X136384578Y-55907901D01*
X136375112Y-55890594D01*
X136365651Y-55873336D01*
X136356173Y-55856092D01*
X136346701Y-55838898D01*
X136337212Y-55821717D01*
X136327729Y-55804585D01*
X136318230Y-55787467D01*
X136308735Y-55770399D01*
X136299225Y-55753343D01*
X136289719Y-55736337D01*
X136280198Y-55719345D01*
X136270682Y-55702402D01*
X136261150Y-55685472D01*
X136251622Y-55668591D01*
X136242080Y-55651724D01*
X136232542Y-55634905D01*
X136222989Y-55618100D01*
X136213440Y-55601344D01*
X136203876Y-55584602D01*
X136194317Y-55567907D01*
X136184742Y-55551227D01*
X136175172Y-55534595D01*
X136165588Y-55517977D01*
X136156007Y-55501407D01*
X136146412Y-55484851D01*
X136136821Y-55468343D01*
X136127215Y-55451849D01*
X136117614Y-55435402D01*
X136107998Y-55418970D01*
X136098386Y-55402585D01*
X136088759Y-55386214D01*
X136079138Y-55369891D01*
X136069501Y-55353582D01*
X136059869Y-55337320D01*
X136050222Y-55321072D01*
X136040579Y-55304871D01*
X136030922Y-55288685D01*
X136021270Y-55272546D01*
X136011602Y-55256421D01*
X136001940Y-55240342D01*
X135992263Y-55224278D01*
X135982590Y-55208261D01*
X135972903Y-55192258D01*
X135963220Y-55176301D01*
X135953523Y-55160359D01*
X135943830Y-55144464D01*
X135934123Y-55128582D01*
X135924421Y-55112747D01*
X135914704Y-55096927D01*
X135904992Y-55081152D01*
X135895265Y-55065392D01*
X135885543Y-55049678D01*
X135875806Y-55033978D01*
X135866074Y-55018324D01*
X135856328Y-55002685D01*
X135846587Y-54987091D01*
X135836831Y-54971512D01*
X135827079Y-54955978D01*
X135817314Y-54940459D01*
X135807553Y-54924986D01*
X135797778Y-54909527D01*
X135788008Y-54894113D01*
X135778223Y-54878714D01*
X135768443Y-54863359D01*
X135758649Y-54848020D01*
X135748860Y-54832725D01*
X135739056Y-54817446D01*
X135729258Y-54802211D01*
X135719445Y-54786990D01*
X135709636Y-54771815D01*
X135699814Y-54756654D01*
X135689997Y-54741537D01*
X135680165Y-54726436D01*
X135670338Y-54711378D01*
X135660498Y-54696336D01*
X135650661Y-54681338D01*
X135640811Y-54666355D01*
X135630966Y-54651415D01*
X135621107Y-54636491D01*
X135611252Y-54621610D01*
X135601384Y-54606745D01*
X135591521Y-54591923D01*
X135581643Y-54577116D01*
X135571770Y-54562352D01*
X135561884Y-54547604D01*
X135552002Y-54532899D01*
X135542107Y-54518209D01*
X135532216Y-54503563D01*
X135522311Y-54488931D01*
X135512412Y-54474343D01*
X135502498Y-54459770D01*
X135492590Y-54445239D01*
X135482667Y-54430724D01*
X135472750Y-54416252D01*
X135462819Y-54401795D01*
X135452892Y-54387380D01*
X135442952Y-54372981D01*
X135433017Y-54358624D01*
X135423068Y-54344283D01*
X135413124Y-54329983D01*
X135403167Y-54315700D01*
X135393214Y-54301458D01*
X135383248Y-54287232D01*
X135373286Y-54273047D01*
X135363311Y-54258878D01*
X135353341Y-54244751D01*
X135343357Y-54230640D01*
X135333379Y-54216570D01*
X135323386Y-54202515D01*
X135313399Y-54188502D01*
X135303398Y-54174505D01*
X135293402Y-54160549D01*
X135283393Y-54146609D01*
X135273388Y-54132709D01*
X135263371Y-54118826D01*
X135253358Y-54104983D01*
X135243331Y-54091156D01*
X135233310Y-54077370D01*
X135223275Y-54063600D01*
X135213245Y-54049870D01*
X135203202Y-54036156D01*
X135193164Y-54022483D01*
X135183112Y-54008825D01*
X135173065Y-53995208D01*
X135163005Y-53981607D01*
X135152950Y-53968045D01*
X135142882Y-53954500D01*
X135132819Y-53940995D01*
X135122742Y-53927506D01*
X135112671Y-53914056D01*
X135102586Y-53900623D01*
X135092506Y-53887229D01*
X135082413Y-53873852D01*
X135072325Y-53860514D01*
X135062224Y-53847192D01*
X135052127Y-53833909D01*
X135042018Y-53820642D01*
X135031913Y-53807415D01*
X135021796Y-53794204D01*
X135011683Y-53781032D01*
X135001558Y-53767876D01*
X134991437Y-53754759D01*
X134981303Y-53741659D01*
X134971174Y-53728597D01*
X134961033Y-53715551D01*
X134950896Y-53702544D01*
X134940746Y-53689553D01*
X134930601Y-53676601D01*
X134920443Y-53663665D01*
X134910290Y-53650767D01*
X134900124Y-53637886D01*
X134889963Y-53625043D01*
X134879790Y-53612216D01*
X134869621Y-53599427D01*
X134859439Y-53586655D01*
X134849262Y-53573921D01*
X134839072Y-53561203D01*
X134828888Y-53548522D01*
X134818690Y-53535858D01*
X134808497Y-53523232D01*
X134798292Y-53510622D01*
X134788092Y-53498050D01*
X134777878Y-53485494D01*
X134767670Y-53472976D01*
X134757449Y-53460474D01*
X134747233Y-53448009D01*
X134737004Y-53435561D01*
X134726780Y-53423150D01*
X134716543Y-53410755D01*
X134706311Y-53398398D01*
X134696067Y-53386057D01*
X134685827Y-53373752D01*
X134675575Y-53361464D01*
X134665328Y-53349213D01*
X134655068Y-53336979D01*
X134644813Y-53324781D01*
X134634546Y-53312599D01*
X134624283Y-53300455D01*
X134614008Y-53288326D01*
X134603737Y-53276234D01*
X134593454Y-53264159D01*
X134583176Y-53252119D01*
X134572886Y-53240097D01*
X134562600Y-53228110D01*
X134552302Y-53216140D01*
X134542009Y-53204206D01*
X134531703Y-53192288D01*
X134521402Y-53180407D01*
X134511089Y-53168542D01*
X134500780Y-53156712D01*
X134490459Y-53144899D01*
X134480143Y-53133122D01*
X134469815Y-53121362D01*
X134459491Y-53109637D01*
X134449155Y-53097928D01*
X134438824Y-53086255D01*
X134428480Y-53074599D01*
X134418141Y-53062977D01*
X134407790Y-53051373D01*
X134397444Y-53039803D01*
X134387085Y-53028250D01*
X134376731Y-53016732D01*
X134366366Y-53005231D01*
X134356004Y-52993765D01*
X134345631Y-52982315D01*
X134335262Y-52970900D01*
X134324881Y-52959502D01*
X134314505Y-52948138D01*
X134304116Y-52936791D01*
X134293732Y-52925478D01*
X134283337Y-52914182D01*
X134272945Y-52902921D01*
X134262542Y-52891676D01*
X134252144Y-52880465D01*
X134241733Y-52869271D01*
X134231327Y-52858112D01*
X134220909Y-52846969D01*
X134210495Y-52835860D01*
X134200070Y-52824767D01*
X134189649Y-52813709D01*
X134179216Y-52802667D01*
X134168788Y-52791659D01*
X134158348Y-52780668D01*
X134147912Y-52769710D01*
X134137465Y-52758769D01*
X134127022Y-52747862D01*
X134116567Y-52736971D01*
X134106116Y-52726114D01*
X134095654Y-52715274D01*
X134085196Y-52704467D01*
X134074727Y-52693676D01*
X134064262Y-52682919D01*
X134053785Y-52672179D01*
X134043312Y-52661471D01*
X134032828Y-52650781D01*
X134022348Y-52640123D01*
X134011857Y-52629482D01*
X134001370Y-52618874D01*
X133990871Y-52608283D01*
X133980376Y-52597724D01*
X133969870Y-52587182D01*
X133959369Y-52576673D01*
X133948855Y-52566181D01*
X133938346Y-52555721D01*
X133927825Y-52545278D01*
X133917309Y-52534867D01*
X133906781Y-52524473D01*
X133896257Y-52514111D01*
X133885722Y-52503766D01*
X133875191Y-52493454D01*
X133864648Y-52483158D01*
X133854110Y-52472894D01*
X133843560Y-52462647D01*
X133833014Y-52452432D01*
X133822457Y-52442233D01*
X133811904Y-52432067D01*
X133801340Y-52421917D01*
X133790780Y-52411799D01*
X133780208Y-52401698D01*
X133769641Y-52391628D01*
X133759062Y-52381576D01*
X133748487Y-52371554D01*
X133737901Y-52361550D01*
X133727318Y-52351577D01*
X133716725Y-52341621D01*
X133706136Y-52331696D01*
X133695535Y-52321788D01*
X133684938Y-52311911D01*
X133674330Y-52302051D01*
X133663726Y-52292221D01*
X133653111Y-52282409D01*
X133642500Y-52272628D01*
X133631877Y-52262864D01*
X133621258Y-52253130D01*
X133610629Y-52243413D01*
X133600003Y-52233727D01*
X133589366Y-52224058D01*
X133578732Y-52214420D01*
X133568088Y-52204798D01*
X133557448Y-52195207D01*
X133546796Y-52185632D01*
X133536148Y-52176089D01*
X133525489Y-52166562D01*
X133514834Y-52157065D01*
X133504168Y-52147585D01*
X133493505Y-52138135D01*
X133482832Y-52128703D01*
X133472162Y-52119300D01*
X133461481Y-52109914D01*
X133450804Y-52100558D01*
X133440116Y-52091219D01*
X133429432Y-52081910D01*
X133418736Y-52072618D01*
X133408044Y-52063356D01*
X133397342Y-52054111D01*
X133386643Y-52044895D01*
X133375933Y-52035696D01*
X133365226Y-52026527D01*
X133354509Y-52017374D01*
X133343795Y-52008251D01*
X133333070Y-51999145D01*
X133322349Y-51990069D01*
X133311617Y-51981009D01*
X133300888Y-51971978D01*
X133290149Y-51962965D01*
X133279413Y-51953980D01*
X133268666Y-51945013D01*
X133257923Y-51936075D01*
X133247169Y-51927153D01*
X133236418Y-51918261D01*
X133225657Y-51909385D01*
X133214899Y-51900538D01*
X133204130Y-51891708D01*
X133193364Y-51882907D01*
X133182588Y-51874123D01*
X133171815Y-51865368D01*
X133161031Y-51856629D01*
X133150251Y-51847920D01*
X133139460Y-51839227D01*
X133128672Y-51830562D01*
X133117873Y-51821915D01*
X133107078Y-51813295D01*
X133096272Y-51804693D01*
X133085469Y-51796119D01*
X133074656Y-51787562D01*
X133063846Y-51779033D01*
X133053025Y-51770522D01*
X133042207Y-51762038D01*
X133031379Y-51753571D01*
X133020553Y-51745132D01*
X133009718Y-51736711D01*
X132998885Y-51728317D01*
X132988041Y-51719940D01*
X132977201Y-51711590D01*
X132966350Y-51703258D01*
X132955502Y-51694954D01*
X132944644Y-51686666D01*
X132933788Y-51678406D01*
X132922922Y-51670164D01*
X132912059Y-51661948D01*
X132901186Y-51653750D01*
X132890315Y-51645579D01*
X132879434Y-51637425D01*
X132868556Y-51629298D01*
X132857667Y-51621188D01*
X132846781Y-51613106D01*
X132835885Y-51605041D01*
X132824992Y-51597002D01*
X132814088Y-51588981D01*
X132803186Y-51580987D01*
X132792275Y-51573010D01*
X132781366Y-51565060D01*
X132770447Y-51557126D01*
X132759530Y-51549220D01*
X132748603Y-51541331D01*
X132737679Y-51533468D01*
X132726744Y-51525623D01*
X132715812Y-51517804D01*
X132704870Y-51510002D01*
X132693930Y-51502227D01*
X132682980Y-51494469D01*
X132672032Y-51486737D01*
X132661074Y-51479023D01*
X132650119Y-51471335D01*
X132639153Y-51463664D01*
X132628190Y-51456019D01*
X132617217Y-51448391D01*
X132606246Y-51440790D01*
X132595265Y-51433206D01*
X132584286Y-51425647D01*
X132573297Y-51418106D01*
X132562310Y-51410591D01*
X132551313Y-51403093D01*
X132540318Y-51395621D01*
X132529313Y-51388167D01*
X132518311Y-51380737D01*
X132507298Y-51373326D01*
X132496288Y-51365940D01*
X132485267Y-51358571D01*
X132474248Y-51351227D01*
X132463220Y-51343901D01*
X132452193Y-51336601D01*
X132441156Y-51329317D01*
X132430122Y-51322059D01*
X132419077Y-51314819D01*
X132408035Y-51307604D01*
X132396982Y-51300406D01*
X132385932Y-51293233D01*
X132374871Y-51286077D01*
X132363812Y-51278947D01*
X132352743Y-51271834D01*
X132341676Y-51264746D01*
X132330600Y-51257675D01*
X132319525Y-51250630D01*
X132308440Y-51243601D01*
X132297356Y-51236598D01*
X132286263Y-51229612D01*
X132275172Y-51222650D01*
X132264070Y-51215706D01*
X132252971Y-51208787D01*
X132241861Y-51201885D01*
X132230754Y-51195008D01*
X132219636Y-51188148D01*
X132208520Y-51181313D01*
X132197394Y-51174495D01*
X132186269Y-51167702D01*
X132175135Y-51160925D01*
X132164002Y-51154174D01*
X132152859Y-51147440D01*
X132141718Y-51140730D01*
X132130567Y-51134037D01*
X132119418Y-51127369D01*
X132108258Y-51120718D01*
X132097100Y-51114091D01*
X132085933Y-51107482D01*
X132074766Y-51100897D01*
X132063590Y-51094329D01*
X132052415Y-51087785D01*
X132041230Y-51081259D01*
X132030047Y-51074757D01*
X132018854Y-51068272D01*
X132007662Y-51061811D01*
X131996460Y-51055367D01*
X131985260Y-51048947D01*
X131974049Y-51042545D01*
X131962840Y-51036166D01*
X131951621Y-51029805D01*
X131940404Y-51023468D01*
X131929176Y-51017147D01*
X131917950Y-51010851D01*
X131906713Y-51004572D01*
X131895478Y-50998317D01*
X131884233Y-50992079D01*
X131872989Y-50985864D01*
X131861736Y-50979667D01*
X131850483Y-50973493D01*
X131839221Y-50967337D01*
X131827959Y-50961204D01*
X131816688Y-50955089D01*
X131805418Y-50948997D01*
X131794138Y-50942922D01*
X131782859Y-50936871D01*
X131771570Y-50930837D01*
X131760282Y-50924826D01*
X131748984Y-50918833D01*
X131737687Y-50912863D01*
X131726380Y-50906910D01*
X131715074Y-50900980D01*
X131703759Y-50895068D01*
X131692444Y-50889179D01*
X131681119Y-50883307D01*
X131669795Y-50877458D01*
X131658461Y-50871627D01*
X131647128Y-50865818D01*
X131635785Y-50860027D01*
X131624443Y-50854259D01*
X131613091Y-50848508D01*
X131601739Y-50842780D01*
X131590378Y-50837070D01*
X131579018Y-50831382D01*
X131567647Y-50825712D01*
X131556278Y-50820064D01*
X131544898Y-50814434D01*
X131533519Y-50808826D01*
X131522130Y-50803236D01*
X131510742Y-50797669D01*
X131499343Y-50792119D01*
X131487946Y-50786591D01*
X131476538Y-50781081D01*
X131465131Y-50775593D01*
X131453714Y-50770123D01*
X131442297Y-50764675D01*
X131430871Y-50759245D01*
X131419445Y-50753837D01*
X131408009Y-50748446D01*
X131396574Y-50743078D01*
X131385128Y-50737727D01*
X131373683Y-50732399D01*
X131362228Y-50727088D01*
X131350774Y-50721799D01*
X131339309Y-50716527D01*
X131327845Y-50711278D01*
X131316371Y-50706046D01*
X131304897Y-50700837D01*
X131293413Y-50695644D01*
X131281929Y-50690474D01*
X131270436Y-50685322D01*
X131258942Y-50680191D01*
X131247439Y-50675078D01*
X131235935Y-50669987D01*
X131224422Y-50664913D01*
X131212909Y-50659861D01*
X131201386Y-50654827D01*
X131189863Y-50649814D01*
X131178330Y-50644820D01*
X131166797Y-50639846D01*
X131155255Y-50634891D01*
X131143712Y-50629957D01*
X131132159Y-50625041D01*
X131120606Y-50620146D01*
X131109043Y-50615269D01*
X131097480Y-50610414D01*
X131085907Y-50605576D01*
X131074334Y-50600759D01*
X131062751Y-50595961D01*
X131051168Y-50591183D01*
X131039575Y-50586424D01*
X131027981Y-50581686D01*
X131016378Y-50576965D01*
X131004774Y-50572266D01*
X130993161Y-50567585D01*
X130981546Y-50562925D01*
X130969923Y-50558282D01*
X130958298Y-50553661D01*
X130946664Y-50549058D01*
X130935029Y-50544475D01*
X130923385Y-50539911D01*
X130911739Y-50535368D01*
X130900084Y-50530842D01*
X130888428Y-50526338D01*
X130876763Y-50521851D01*
X130865097Y-50517385D01*
X130853421Y-50512937D01*
X130841744Y-50508510D01*
X130830057Y-50504101D01*
X130818370Y-50499713D01*
X130806673Y-50495343D01*
X130794974Y-50490994D01*
X130783266Y-50486662D01*
X130771557Y-50482352D01*
X130759839Y-50478059D01*
X130748119Y-50473787D01*
X130736390Y-50469533D01*
X130724659Y-50465299D01*
X130712919Y-50461084D01*
X130701178Y-50456889D01*
X130689427Y-50452712D01*
X130677674Y-50448556D01*
X130665912Y-50444418D01*
X130654149Y-50440300D01*
X130642376Y-50436201D01*
X130630602Y-50432122D01*
X130618818Y-50428060D01*
X130607032Y-50424020D01*
X130595237Y-50419997D01*
X130583441Y-50415995D01*
X130571635Y-50412011D01*
X130559827Y-50408048D01*
X130548009Y-50404102D01*
X130536190Y-50400177D01*
X130524362Y-50396270D01*
X130512532Y-50392383D01*
X130500692Y-50388514D01*
X130488850Y-50384666D01*
X130476999Y-50380836D01*
X130465146Y-50377026D01*
X130453284Y-50373234D01*
X130441419Y-50369462D01*
X130429545Y-50365709D01*
X130417669Y-50361976D01*
X130405784Y-50358260D01*
X130393896Y-50354565D01*
X130381999Y-50350889D01*
X130370100Y-50347232D01*
X130358192Y-50343593D01*
X130346281Y-50339975D01*
X130334361Y-50336375D01*
X130322438Y-50332795D01*
X130310506Y-50329233D01*
X130298572Y-50325691D01*
X130286628Y-50322167D01*
X130274682Y-50318664D01*
X130262727Y-50315178D01*
X130250769Y-50311713D01*
X130238802Y-50308266D01*
X130226832Y-50304838D01*
X130214853Y-50301429D01*
X130202871Y-50298040D01*
X130190879Y-50294670D01*
X130178886Y-50291319D01*
X130166882Y-50287986D01*
X130154876Y-50284674D01*
X130142861Y-50281379D01*
X130130843Y-50278105D01*
X130118815Y-50274849D01*
X130106785Y-50271612D01*
X130094745Y-50268394D01*
X130082703Y-50265196D01*
X130070651Y-50262016D01*
X130058596Y-50258856D01*
X130046532Y-50255715D01*
X130034465Y-50252593D01*
X130022388Y-50249489D01*
X130010308Y-50246405D01*
X129998219Y-50243340D01*
X129986127Y-50240294D01*
X129974025Y-50237267D01*
X129961921Y-50234260D01*
X129949807Y-50231270D01*
X129937689Y-50228301D01*
X129925563Y-50225350D01*
X129913433Y-50222419D01*
X129901293Y-50219506D01*
X129889151Y-50216612D01*
X129876999Y-50213737D01*
X129864843Y-50210882D01*
X129852678Y-50208046D01*
X129840510Y-50205229D01*
X129828332Y-50202430D01*
X129816151Y-50199651D01*
X129803961Y-50196891D01*
X129791767Y-50194150D01*
X129779563Y-50191427D01*
X129767356Y-50188725D01*
X129755139Y-50186040D01*
X129742919Y-50183376D01*
X129730690Y-50180730D01*
X129718456Y-50178103D01*
X129706214Y-50175495D01*
X129693967Y-50172907D01*
X129681711Y-50170337D01*
X129669451Y-50167786D01*
X129657182Y-50165254D01*
X129644909Y-50162742D01*
X129632627Y-50160249D01*
X129620340Y-50157774D01*
X129608044Y-50155319D01*
X129595745Y-50152883D01*
X129583435Y-50150465D01*
X129571122Y-50148068D01*
X129558799Y-50145688D01*
X129546472Y-50143329D01*
X129534136Y-50140988D01*
X129521796Y-50138666D01*
X129509446Y-50136363D01*
X129497091Y-50134080D01*
X129484728Y-50131815D01*
X129472360Y-50129570D01*
X129459983Y-50127343D01*
X129447601Y-50125136D01*
X129435210Y-50122947D01*
X129422814Y-50120778D01*
X129410409Y-50118628D01*
X129398000Y-50116498D01*
X129385581Y-50114386D01*
X129373157Y-50112293D01*
X129360724Y-50110219D01*
X129348287Y-50108165D01*
X129335840Y-50106129D01*
X129323388Y-50104113D01*
X129310927Y-50102116D01*
X129298461Y-50100138D01*
X129285986Y-50098179D01*
X129273506Y-50096240D01*
X129261017Y-50094319D01*
X129248522Y-50092418D01*
X129236019Y-50090535D01*
X129223510Y-50088673D01*
X129210992Y-50086828D01*
X129198469Y-50085004D01*
X129185936Y-50083198D01*
X129173399Y-50081412D01*
X129160852Y-50079644D01*
X129148300Y-50077896D01*
X129135738Y-50076167D01*
X129123171Y-50074458D01*
X129110595Y-50072767D01*
X129098014Y-50071096D01*
X129085423Y-50069444D01*
X129072827Y-50067811D01*
X129060221Y-50066197D01*
X129047610Y-50064603D01*
X129034990Y-50063028D01*
X129022364Y-50061472D01*
X129009728Y-50059935D01*
X128997088Y-50058418D01*
X128984437Y-50056919D01*
X128971782Y-50055440D01*
X128959116Y-50053981D01*
X128946446Y-50052540D01*
X128933765Y-50051119D01*
X128921079Y-50049717D01*
X128908384Y-50048335D01*
X128895683Y-50046972D01*
X128882972Y-50045628D01*
X128870256Y-50044303D01*
X128857530Y-50042998D01*
X128844798Y-50041712D01*
X128832057Y-50040445D01*
X128819310Y-50039198D01*
X128806553Y-50037970D01*
X128793790Y-50036761D01*
X128781018Y-50035572D01*
X128768240Y-50034402D01*
X128755453Y-50033252D01*
X128742659Y-50032121D01*
X128729856Y-50031009D01*
X128717046Y-50029917D01*
X128704228Y-50028844D01*
X128691402Y-50027790D01*
X128678568Y-50026756D01*
X128665727Y-50025742D01*
X128652877Y-50024747D01*
X128640020Y-50023771D01*
X128627154Y-50022815D01*
X128614281Y-50021878D01*
X128601399Y-50020961D01*
X128588510Y-50020063D01*
X128575612Y-50019185D01*
X128562707Y-50018326D01*
X128549793Y-50017487D01*
X128536872Y-50016667D01*
X128523942Y-50015867D01*
X128511005Y-50015086D01*
X128498059Y-50014325D01*
X128485105Y-50013584D01*
X128472143Y-50012862D01*
X128459173Y-50012159D01*
X128446194Y-50011477D01*
X128433208Y-50010814D01*
X128420212Y-50010170D01*
X128407210Y-50009546D01*
X128394198Y-50008942D01*
X128381179Y-50008357D01*
X128368151Y-50007792D01*
X128355115Y-50007247D01*
X128342070Y-50006721D01*
X128329018Y-50006215D01*
X128315956Y-50005729D01*
X128302887Y-50005263D01*
X128289809Y-50004816D01*
X128276723Y-50004389D01*
X128263628Y-50003982D01*
X128250525Y-50003594D01*
X128237413Y-50003226D01*
X128224293Y-50002878D01*
X128211164Y-50002550D01*
X128198028Y-50002242D01*
X128184882Y-50001953D01*
X128171728Y-50001684D01*
X128158565Y-50001435D01*
X128145394Y-50001206D01*
X128132214Y-50000997D01*
X128119026Y-50000808D01*
X128105828Y-50000638D01*
X128092623Y-50000489D01*
X128079408Y-50000359D01*
X128066186Y-50000249D01*
X128052954Y-50000160D01*
X128039714Y-50000090D01*
X128026464Y-50000040D01*
X128000000Y-50000000D01*
D10*
X102000000Y-50000000D02*
X128000000Y-50000000D01*
D11*
X90000000Y-70000000D02*
X90000338Y-69975201D01*
X90000768Y-69949567D01*
X90001293Y-69923097D01*
X90001915Y-69895795D01*
X90002636Y-69867662D01*
X90003460Y-69838704D01*
X90004387Y-69808926D01*
X90005421Y-69778333D01*
X90006562Y-69746934D01*
X90007814Y-69714736D01*
X90009177Y-69681748D01*
X90010653Y-69647981D01*
X90012243Y-69613444D01*
X90013082Y-69595880D01*
X90013949Y-69578149D01*
X90014846Y-69560211D01*
X90015771Y-69542107D01*
X90016727Y-69523803D01*
X90017712Y-69505332D01*
X90018727Y-69486666D01*
X90019771Y-69467836D01*
X90020846Y-69448816D01*
X90021950Y-69429632D01*
X90023085Y-69410265D01*
X90024249Y-69390734D01*
X90025445Y-69371026D01*
X90026670Y-69351156D01*
X90027926Y-69331115D01*
X90029212Y-69310912D01*
X90030528Y-69290545D01*
X90031875Y-69270018D01*
X90033253Y-69249332D01*
X90034661Y-69228487D01*
X90036100Y-69207490D01*
X90037570Y-69186335D01*
X90039070Y-69165033D01*
X90040601Y-69143576D01*
X90042162Y-69121978D01*
X90043755Y-69100226D01*
X90045377Y-69078339D01*
X90047031Y-69056299D01*
X90048715Y-69034131D01*
X90050431Y-69011811D01*
X90052176Y-68989369D01*
X90053953Y-68966777D01*
X90055759Y-68944068D01*
X90057597Y-68921211D01*
X90059464Y-68898244D01*
X90061363Y-68875129D01*
X90063291Y-68851910D01*
X90065252Y-68828546D01*
X90067240Y-68805082D01*
X90069262Y-68781475D01*
X90071311Y-68757774D01*
X90073393Y-68733931D01*
X90075502Y-68710000D01*
X90077644Y-68685929D01*
X90079814Y-68661775D01*
X90082016Y-68637483D01*
X90084246Y-68613113D01*
X90086508Y-68588606D01*
X90088797Y-68564027D01*
X90091118Y-68539313D01*
X90093467Y-68514531D01*
X90095848Y-68489616D01*
X90098255Y-68464638D01*
X90100695Y-68439529D01*
X90103161Y-68414361D01*
X90105660Y-68389065D01*
X90108185Y-68363714D01*
X90110742Y-68338237D01*
X90113324Y-68312709D01*
X90115939Y-68287057D01*
X90118580Y-68261358D01*
X90121253Y-68235537D01*
X90123950Y-68209674D01*
X90126680Y-68183689D01*
X90129435Y-68157668D01*
X90132222Y-68131526D01*
X90135033Y-68105352D01*
X90137877Y-68079059D01*
X90140745Y-68052737D01*
X90143645Y-68026298D01*
X90146568Y-67999834D01*
X90149525Y-67973256D01*
X90152503Y-67946655D01*
X90155515Y-67919942D01*
X90158549Y-67893210D01*
X90161616Y-67866368D01*
X90164705Y-67839509D01*
X90167826Y-67812542D01*
X90170969Y-67785563D01*
X90174145Y-67758477D01*
X90177342Y-67731381D01*
X90180572Y-67704180D01*
X90183823Y-67676974D01*
X90187107Y-67649663D01*
X90190411Y-67622349D01*
X90193747Y-67594933D01*
X90197104Y-67567517D01*
X90200494Y-67540001D01*
X90203903Y-67512487D01*
X90207345Y-67484875D01*
X90210806Y-67457268D01*
X90214300Y-67429564D01*
X90217813Y-67401867D01*
X90221359Y-67374075D01*
X90224923Y-67346294D01*
X90228520Y-67318418D01*
X90232135Y-67290555D01*
X90235783Y-67262601D01*
X90239449Y-67234661D01*
X90243147Y-67206630D01*
X90246863Y-67178617D01*
X90250611Y-67150514D01*
X90254377Y-67122431D01*
X90258174Y-67094260D01*
X90261990Y-67066111D01*
X90265837Y-67037876D01*
X90269701Y-67009664D01*
X90273597Y-66981368D01*
X90277510Y-66953097D01*
X90281454Y-66924743D01*
X90285415Y-66896416D01*
X90289408Y-66868008D01*
X90293417Y-66839629D01*
X90297458Y-66811170D01*
X90301514Y-66782741D01*
X90305602Y-66754234D01*
X90309706Y-66725759D01*
X90313841Y-66697207D01*
X90317991Y-66668689D01*
X90322173Y-66640095D01*
X90326370Y-66611536D01*
X90330598Y-66582903D01*
X90334841Y-66554308D01*
X90339115Y-66525638D01*
X90343404Y-66497008D01*
X90347724Y-66468306D01*
X90352058Y-66439643D01*
X90356423Y-66410910D01*
X90360802Y-66382218D01*
X90365212Y-66353457D01*
X90369636Y-66324738D01*
X90374091Y-66295952D01*
X90378559Y-66267209D01*
X90383057Y-66238399D01*
X90387570Y-66209635D01*
X90392112Y-66180805D01*
X90396668Y-66152021D01*
X90401255Y-66123172D01*
X90405854Y-66094371D01*
X90410483Y-66065507D01*
X90415125Y-66036691D01*
X90419798Y-66007813D01*
X90424483Y-65978984D01*
X90429198Y-65950095D01*
X90433925Y-65921256D01*
X90438682Y-65892357D01*
X90443452Y-65863510D01*
X90448251Y-65834604D01*
X90453062Y-65805750D01*
X90457903Y-65776839D01*
X90462755Y-65747981D01*
X90467637Y-65719066D01*
X90472531Y-65690205D01*
X90477454Y-65661290D01*
X90482388Y-65632428D01*
X90487352Y-65603513D01*
X90492327Y-65574653D01*
X90497331Y-65545740D01*
X90502346Y-65516883D01*
X90507390Y-65487974D01*
X90512445Y-65459122D01*
X90517529Y-65430219D01*
X90522623Y-65401373D01*
X90527747Y-65372478D01*
X90532881Y-65343640D01*
X90538043Y-65314754D01*
X90543216Y-65285926D01*
X90548418Y-65257051D01*
X90553629Y-65228234D01*
X90558869Y-65199371D01*
X90564119Y-65170567D01*
X90569398Y-65141718D01*
X90574686Y-65112929D01*
X90580002Y-65084095D01*
X90585328Y-65055321D01*
X90590683Y-65026504D01*
X90596046Y-64997748D01*
X90601438Y-64968949D01*
X90606839Y-64940212D01*
X90612268Y-64911432D01*
X90617705Y-64882715D01*
X90623171Y-64853956D01*
X90628646Y-64825260D01*
X90634149Y-64796523D01*
X90639660Y-64767850D01*
X90645199Y-64739136D01*
X90650746Y-64710487D01*
X90656322Y-64681798D01*
X90661905Y-64653174D01*
X90667516Y-64624511D01*
X90673135Y-64595913D01*
X90678782Y-64567277D01*
X90684436Y-64538707D01*
X90690118Y-64510099D01*
X90695808Y-64481557D01*
X90701525Y-64452979D01*
X90707250Y-64424467D01*
X90713002Y-64395919D01*
X90718762Y-64367437D01*
X90724548Y-64338921D01*
X90730342Y-64310471D01*
X90736163Y-64281988D01*
X90741991Y-64253571D01*
X90747847Y-64225120D01*
X90753709Y-64196737D01*
X90759598Y-64168322D01*
X90765494Y-64139973D01*
X90771417Y-64111593D01*
X90777346Y-64083281D01*
X90783302Y-64054937D01*
X90789265Y-64026661D01*
X90795254Y-63998355D01*
X90801250Y-63970116D01*
X90807272Y-63941848D01*
X90813301Y-63913648D01*
X90819356Y-63885419D01*
X90825417Y-63857258D01*
X90831504Y-63829069D01*
X90837598Y-63800949D01*
X90843718Y-63772801D01*
X90849843Y-63744721D01*
X90855995Y-63716614D01*
X90862152Y-63688577D01*
X90868336Y-63660512D01*
X90874525Y-63632517D01*
X90880740Y-63604496D01*
X90886961Y-63576544D01*
X90893208Y-63548567D01*
X90899460Y-63520659D01*
X90905737Y-63492726D01*
X90912020Y-63464863D01*
X90918329Y-63436976D01*
X90924643Y-63409158D01*
X90930982Y-63381317D01*
X90937327Y-63353545D01*
X90943697Y-63325751D01*
X90950072Y-63298026D01*
X90956472Y-63270279D01*
X90962877Y-63242601D01*
X90969308Y-63214902D01*
X90975743Y-63187273D01*
X90982203Y-63159622D01*
X90988668Y-63132042D01*
X90995158Y-63104441D01*
X91001652Y-63076909D01*
X91008172Y-63049358D01*
X91014696Y-63021876D01*
X91021245Y-62994375D01*
X91027798Y-62966944D01*
X91034376Y-62939494D01*
X91040958Y-62912114D01*
X91047565Y-62884716D01*
X91054176Y-62857388D01*
X91060811Y-62830041D01*
X91067451Y-62802765D01*
X91074115Y-62775471D01*
X91080783Y-62748247D01*
X91087475Y-62721007D01*
X91094171Y-62693836D01*
X91100892Y-62666649D01*
X91107616Y-62639532D01*
X91114365Y-62612399D01*
X91121117Y-62585336D01*
X91127894Y-62558257D01*
X91134673Y-62531249D01*
X91141477Y-62504226D01*
X91148285Y-62477272D01*
X91155116Y-62450304D01*
X91161951Y-62423406D01*
X91168809Y-62396494D01*
X91175671Y-62369652D01*
X91182557Y-62342796D01*
X91189445Y-62316011D01*
X91196358Y-62289211D01*
X91203273Y-62262482D01*
X91210213Y-62235740D01*
X91217155Y-62209069D01*
X91224121Y-62182384D01*
X91231089Y-62155770D01*
X91238081Y-62129143D01*
X91245076Y-62102586D01*
X91252094Y-62076018D01*
X91259115Y-62049520D01*
X91266160Y-62023010D01*
X91273206Y-61996570D01*
X91280277Y-61970119D01*
X91287349Y-61943739D01*
X91294445Y-61917347D01*
X91301543Y-61891026D01*
X91308664Y-61864694D01*
X91315788Y-61838432D01*
X91322934Y-61812160D01*
X91330083Y-61785958D01*
X91337255Y-61759746D01*
X91344429Y-61733605D01*
X91351626Y-61707454D01*
X91358824Y-61681372D01*
X91366046Y-61655282D01*
X91373270Y-61629262D01*
X91380516Y-61603233D01*
X91387764Y-61577273D01*
X91395035Y-61551306D01*
X91402308Y-61525408D01*
X91409603Y-61499502D01*
X91416900Y-61473666D01*
X91424219Y-61447822D01*
X91431540Y-61422047D01*
X91438884Y-61396266D01*
X91446229Y-61370553D01*
X91453596Y-61344835D01*
X91460965Y-61319184D01*
X91468357Y-61293528D01*
X91475749Y-61267941D01*
X91483164Y-61242348D01*
X91490580Y-61216823D01*
X91498018Y-61191293D01*
X91505457Y-61165831D01*
X91512919Y-61140365D01*
X91520381Y-61114967D01*
X91527866Y-61089564D01*
X91535352Y-61064229D01*
X91542860Y-61038890D01*
X91550368Y-61013619D01*
X91557899Y-60988344D01*
X91565430Y-60963137D01*
X91572984Y-60937926D01*
X91580537Y-60912783D01*
X91588113Y-60887636D01*
X91595690Y-60862557D01*
X91603288Y-60837475D01*
X91610887Y-60812461D01*
X91618508Y-60787444D01*
X91626129Y-60762494D01*
X91633772Y-60737542D01*
X91641415Y-60712657D01*
X91649079Y-60687770D01*
X91656744Y-60662950D01*
X91664431Y-60638128D01*
X91672118Y-60613374D01*
X91679826Y-60588617D01*
X91687535Y-60563928D01*
X91695265Y-60539237D01*
X91702995Y-60514613D01*
X91710746Y-60489987D01*
X91718497Y-60465429D01*
X91726270Y-60440869D01*
X91734043Y-60416377D01*
X91741837Y-60391883D01*
X91749631Y-60367456D01*
X91757446Y-60343029D01*
X91765260Y-60318668D01*
X91773096Y-60294306D01*
X91780932Y-60270011D01*
X91788789Y-60245716D01*
X91796645Y-60221487D01*
X91804522Y-60197259D01*
X91812399Y-60173096D01*
X91820297Y-60148934D01*
X91828194Y-60124838D01*
X91836113Y-60100743D01*
X91844030Y-60076713D01*
X91851969Y-60052684D01*
X91859907Y-60028721D01*
X91867866Y-60004759D01*
X91875824Y-59980863D01*
X91883802Y-59956968D01*
X91891780Y-59933138D01*
X91899779Y-59909310D01*
X91907777Y-59885547D01*
X91915795Y-59861786D01*
X91923813Y-59838090D01*
X91931851Y-59814396D01*
X91939888Y-59790768D01*
X91947946Y-59767141D01*
X91956002Y-59743579D01*
X91964079Y-59720020D01*
X91972155Y-59696525D01*
X91980252Y-59673033D01*
X91988347Y-59649605D01*
X91996462Y-59626181D01*
X92004577Y-59602820D01*
X92012711Y-59579463D01*
X92020845Y-59556170D01*
X92028998Y-59532880D01*
X92037150Y-59509655D01*
X92045323Y-59486433D01*
X92053494Y-59463275D01*
X92061685Y-59440120D01*
X92069874Y-59417029D01*
X92078084Y-59393942D01*
X92086292Y-59370919D01*
X92094520Y-59347900D01*
X92102747Y-59324944D01*
X92110993Y-59301993D01*
X92119238Y-59279105D01*
X92127503Y-59256221D01*
X92135766Y-59233400D01*
X92144049Y-59210584D01*
X92152330Y-59187831D01*
X92160631Y-59165083D01*
X92168930Y-59142398D01*
X92177249Y-59119717D01*
X92185566Y-59097100D01*
X92193902Y-59074487D01*
X92202237Y-59051937D01*
X92210591Y-59029393D01*
X92218944Y-59006911D01*
X92227316Y-58984434D01*
X92235686Y-58962019D01*
X92244075Y-58939610D01*
X92252462Y-58917264D01*
X92260869Y-58894923D01*
X92269274Y-58872644D01*
X92277698Y-58850371D01*
X92286120Y-58828160D01*
X92294561Y-58805954D01*
X92303000Y-58783811D01*
X92311458Y-58761674D01*
X92319914Y-58739598D01*
X92328389Y-58717528D01*
X92336862Y-58695521D01*
X92345354Y-58673519D01*
X92353844Y-58651579D01*
X92362353Y-58629645D01*
X92370860Y-58607773D01*
X92379385Y-58585907D01*
X92387908Y-58564102D01*
X92396450Y-58542304D01*
X92404990Y-58520567D01*
X92413548Y-58498837D01*
X92422104Y-58477168D01*
X92430679Y-58455506D01*
X92439251Y-58433904D01*
X92447842Y-58412310D01*
X92456431Y-58390776D01*
X92465038Y-58369249D01*
X92473643Y-58347783D01*
X92482266Y-58326324D01*
X92490887Y-58304926D01*
X92499526Y-58283535D01*
X92508162Y-58262204D01*
X92516818Y-58240880D01*
X92525470Y-58219617D01*
X92534141Y-58198361D01*
X92542809Y-58177165D01*
X92551495Y-58155977D01*
X92560179Y-58134849D01*
X92568881Y-58113728D01*
X92577581Y-58092667D01*
X92586298Y-58071615D01*
X92595013Y-58050621D01*
X92603746Y-58029636D01*
X92612476Y-58008710D01*
X92621224Y-57987792D01*
X92629970Y-57966933D01*
X92638733Y-57946083D01*
X92647494Y-57925291D01*
X92656273Y-57904509D01*
X92665048Y-57883785D01*
X92673842Y-57863069D01*
X92682633Y-57842412D01*
X92691441Y-57821764D01*
X92700247Y-57801174D01*
X92709070Y-57780594D01*
X92717890Y-57760071D01*
X92726729Y-57739557D01*
X92735564Y-57719102D01*
X92744417Y-57698656D01*
X92753266Y-57678267D01*
X92762134Y-57657888D01*
X92770998Y-57637566D01*
X92779880Y-57617254D01*
X92788759Y-57596999D01*
X92797655Y-57576754D01*
X92806549Y-57556567D01*
X92815459Y-57536389D01*
X92824367Y-57516267D01*
X92833292Y-57496156D01*
X92842213Y-57476102D01*
X92851153Y-57456058D01*
X92860088Y-57436070D01*
X92869042Y-57416093D01*
X92877992Y-57396172D01*
X92886959Y-57376261D01*
X92895923Y-57356407D01*
X92904904Y-57336563D01*
X92913881Y-57316775D01*
X92922876Y-57296997D01*
X92931868Y-57277276D01*
X92940877Y-57257565D01*
X92949882Y-57237909D01*
X92958904Y-57218265D01*
X92967923Y-57198676D01*
X92976959Y-57179098D01*
X92985992Y-57159575D01*
X92995041Y-57140064D01*
X93004087Y-57120607D01*
X93013150Y-57101162D01*
X93022210Y-57081771D01*
X93031286Y-57062392D01*
X93040359Y-57043067D01*
X93049448Y-57023754D01*
X93058534Y-57004496D01*
X93067637Y-56985248D01*
X93076736Y-56966056D01*
X93085852Y-56946874D01*
X93094964Y-56927748D01*
X93104093Y-56908632D01*
X93113219Y-56889571D01*
X93122361Y-56870521D01*
X93131499Y-56851526D01*
X93140654Y-56832542D01*
X93149805Y-56813612D01*
X93158972Y-56794693D01*
X93168136Y-56775829D01*
X93177317Y-56756976D01*
X93186493Y-56738177D01*
X93195687Y-56719389D01*
X93204876Y-56700656D01*
X93214082Y-56681934D01*
X93223284Y-56663265D01*
X93232502Y-56644608D01*
X93241716Y-56626005D01*
X93250947Y-56607413D01*
X93260174Y-56588874D01*
X93269417Y-56570348D01*
X93278656Y-56551874D01*
X93287912Y-56533413D01*
X93297163Y-56515004D01*
X93306431Y-56496608D01*
X93315695Y-56478264D01*
X93324975Y-56459932D01*
X93334251Y-56441653D01*
X93343543Y-56423386D01*
X93352831Y-56405171D01*
X93362135Y-56386969D01*
X93371435Y-56368819D01*
X93380751Y-56350681D01*
X93390063Y-56332595D01*
X93399391Y-56314522D01*
X93408715Y-56296500D01*
X93418055Y-56278491D01*
X93427391Y-56260534D01*
X93436742Y-56242590D01*
X93446090Y-56224696D01*
X93455453Y-56206816D01*
X93464813Y-56188987D01*
X93474188Y-56171170D01*
X93483559Y-56153405D01*
X93492945Y-56135653D01*
X93502328Y-56117951D01*
X93511726Y-56100263D01*
X93521120Y-56082625D01*
X93530529Y-56065000D01*
X93539935Y-56047426D01*
X93549356Y-56029865D01*
X93558773Y-56012355D01*
X93568205Y-55994857D01*
X93577633Y-55977410D01*
X93587077Y-55959976D01*
X93596516Y-55942592D01*
X93605971Y-55925222D01*
X93615422Y-55907901D01*
X93624888Y-55890594D01*
X93634349Y-55873336D01*
X93643827Y-55856092D01*
X93653299Y-55838898D01*
X93662788Y-55821717D01*
X93672271Y-55804585D01*
X93681770Y-55787467D01*
X93691265Y-55770399D01*
X93700775Y-55753343D01*
X93710281Y-55736337D01*
X93719802Y-55719345D01*
X93729318Y-55702402D01*
X93738850Y-55685472D01*
X93748378Y-55668591D01*
X93757920Y-55651724D01*
X93767458Y-55634905D01*
X93777011Y-55618100D01*
X93786560Y-55601344D01*
X93796124Y-55584602D01*
X93805683Y-55567907D01*
X93815258Y-55551227D01*
X93824828Y-55534595D01*
X93834412Y-55517977D01*
X93843993Y-55501407D01*
X93853588Y-55484851D01*
X93863179Y-55468343D01*
X93872785Y-55451849D01*
X93882386Y-55435402D01*
X93892002Y-55418970D01*
X93901614Y-55402585D01*
X93911241Y-55386214D01*
X93920862Y-55369891D01*
X93930499Y-55353582D01*
X93940131Y-55337320D01*
X93949778Y-55321072D01*
X93959421Y-55304871D01*
X93969078Y-55288685D01*
X93978730Y-55272546D01*
X93988398Y-55256421D01*
X93998060Y-55240342D01*
X94007737Y-55224278D01*
X94017410Y-55208261D01*
X94027097Y-55192258D01*
X94036780Y-55176301D01*
X94046477Y-55160359D01*
X94056170Y-55144464D01*
X94065877Y-55128582D01*
X94075579Y-55112747D01*
X94085296Y-55096927D01*
X94095008Y-55081152D01*
X94104735Y-55065392D01*
X94114457Y-55049678D01*
X94124194Y-55033978D01*
X94133926Y-55018324D01*
X94143672Y-55002685D01*
X94153413Y-54987091D01*
X94163169Y-54971512D01*
X94172921Y-54955978D01*
X94182686Y-54940459D01*
X94192447Y-54924986D01*
X94202222Y-54909527D01*
X94211992Y-54894113D01*
X94221777Y-54878714D01*
X94231557Y-54863359D01*
X94241351Y-54848020D01*
X94251140Y-54832725D01*
X94260944Y-54817446D01*
X94270742Y-54802211D01*
X94280555Y-54786990D01*
X94290364Y-54771815D01*
X94300186Y-54756654D01*
X94310003Y-54741537D01*
X94319835Y-54726436D01*
X94329662Y-54711378D01*
X94339502Y-54696336D01*
X94349339Y-54681338D01*
X94359189Y-54666355D01*
X94369034Y-54651415D01*
X94378893Y-54636491D01*
X94388748Y-54621610D01*
X94398616Y-54606745D01*
X94408479Y-54591923D01*
X94418357Y-54577116D01*
X94428230Y-54562352D01*
X94438116Y-54547604D01*
X94447998Y-54532899D01*
X94457893Y-54518209D01*
X94467784Y-54503563D01*
X94477689Y-54488931D01*
X94487588Y-54474343D01*
X94497502Y-54459770D01*
X94507410Y-54445239D01*
X94517333Y-54430724D01*
X94527250Y-54416252D01*
X94537181Y-54401795D01*
X94547108Y-54387380D01*
X94557048Y-54372981D01*
X94566983Y-54358624D01*
X94576932Y-54344283D01*
X94586876Y-54329983D01*
X94596833Y-54315700D01*
X94606786Y-54301458D01*
X94616752Y-54287232D01*
X94626714Y-54273047D01*
X94636689Y-54258878D01*
X94646659Y-54244751D01*
X94656643Y-54230640D01*
X94666621Y-54216570D01*
X94676614Y-54202515D01*
X94686601Y-54188502D01*
X94696602Y-54174505D01*
X94706598Y-54160549D01*
X94716607Y-54146609D01*
X94726612Y-54132709D01*
X94736629Y-54118826D01*
X94746642Y-54104983D01*
X94756669Y-54091156D01*
X94766690Y-54077370D01*
X94776725Y-54063600D01*
X94786755Y-54049870D01*
X94796798Y-54036156D01*
X94806836Y-54022483D01*
X94816888Y-54008825D01*
X94826935Y-53995208D01*
X94836995Y-53981607D01*
X94847050Y-53968045D01*
X94857118Y-53954500D01*
X94867181Y-53940995D01*
X94877258Y-53927506D01*
X94887329Y-53914056D01*
X94897414Y-53900623D01*
X94907494Y-53887229D01*
X94917587Y-53873852D01*
X94927675Y-53860514D01*
X94937776Y-53847192D01*
X94947873Y-53833909D01*
X94957982Y-53820642D01*
X94968087Y-53807415D01*
X94978204Y-53794204D01*
X94988317Y-53781032D01*
X94998442Y-53767876D01*
X95008563Y-53754759D01*
X95018697Y-53741659D01*
X95028826Y-53728597D01*
X95038967Y-53715551D01*
X95049104Y-53702544D01*
X95059254Y-53689553D01*
X95069399Y-53676601D01*
X95079557Y-53663665D01*
X95089710Y-53650767D01*
X95099876Y-53637886D01*
X95110037Y-53625043D01*
X95120210Y-53612216D01*
X95130379Y-53599427D01*
X95140561Y-53586655D01*
X95150738Y-53573921D01*
X95160928Y-53561203D01*
X95171112Y-53548522D01*
X95181310Y-53535858D01*
X95191503Y-53523232D01*
X95201708Y-53510622D01*
X95211908Y-53498050D01*
X95222122Y-53485494D01*
X95232330Y-53472976D01*
X95242551Y-53460474D01*
X95252767Y-53448009D01*
X95262996Y-53435561D01*
X95273220Y-53423150D01*
X95283457Y-53410755D01*
X95293689Y-53398398D01*
X95303933Y-53386057D01*
X95314173Y-53373752D01*
X95324425Y-53361464D01*
X95334672Y-53349213D01*
X95344932Y-53336979D01*
X95355187Y-53324781D01*
X95365454Y-53312599D01*
X95375717Y-53300455D01*
X95385992Y-53288326D01*
X95396263Y-53276234D01*
X95406546Y-53264159D01*
X95416824Y-53252119D01*
X95427114Y-53240097D01*
X95437400Y-53228110D01*
X95447698Y-53216140D01*
X95457991Y-53204206D01*
X95468297Y-53192288D01*
X95478598Y-53180407D01*
X95488911Y-53168542D01*
X95499220Y-53156712D01*
X95509541Y-53144899D01*
X95519857Y-53133122D01*
X95530185Y-53121362D01*
X95540509Y-53109637D01*
X95550845Y-53097928D01*
X95561176Y-53086255D01*
X95571520Y-53074599D01*
X95581859Y-53062977D01*
X95592210Y-53051373D01*
X95602556Y-53039803D01*
X95612915Y-53028250D01*
X95623269Y-53016732D01*
X95633634Y-53005231D01*
X95643996Y-52993765D01*
X95654369Y-52982315D01*
X95664738Y-52970900D01*
X95675119Y-52959502D01*
X95685495Y-52948138D01*
X95695884Y-52936791D01*
X95706268Y-52925478D01*
X95716663Y-52914182D01*
X95727055Y-52902921D01*
X95737458Y-52891676D01*
X95747856Y-52880465D01*
X95758267Y-52869271D01*
X95768673Y-52858112D01*
X95779091Y-52846969D01*
X95789505Y-52835860D01*
X95799930Y-52824767D01*
X95810351Y-52813709D01*
X95820784Y-52802667D01*
X95831212Y-52791659D01*
X95841652Y-52780668D01*
X95852088Y-52769710D01*
X95862535Y-52758769D01*
X95872978Y-52747862D01*
X95883433Y-52736971D01*
X95893884Y-52726114D01*
X95904346Y-52715274D01*
X95914804Y-52704467D01*
X95925273Y-52693676D01*
X95935738Y-52682919D01*
X95946215Y-52672179D01*
X95956688Y-52661471D01*
X95967172Y-52650781D01*
X95977652Y-52640123D01*
X95988143Y-52629482D01*
X95998630Y-52618874D01*
X96009129Y-52608283D01*
X96019624Y-52597724D01*
X96030130Y-52587182D01*
X96040631Y-52576673D01*
X96051145Y-52566181D01*
X96061654Y-52555721D01*
X96072175Y-52545278D01*
X96082691Y-52534867D01*
X96093219Y-52524473D01*
X96103743Y-52514111D01*
X96114278Y-52503766D01*
X96124809Y-52493454D01*
X96135352Y-52483158D01*
X96145890Y-52472894D01*
X96156440Y-52462647D01*
X96166986Y-52452432D01*
X96177543Y-52442233D01*
X96188096Y-52432067D01*
X96198660Y-52421917D01*
X96209220Y-52411799D01*
X96219792Y-52401698D01*
X96230359Y-52391628D01*
X96240938Y-52381576D01*
X96251513Y-52371554D01*
X96262099Y-52361550D01*
X96272682Y-52351577D01*
X96283275Y-52341621D01*
X96293864Y-52331696D01*
X96304465Y-52321788D01*
X96315062Y-52311911D01*
X96325670Y-52302051D01*
X96336274Y-52292221D01*
X96346889Y-52282409D01*
X96357500Y-52272628D01*
X96368123Y-52262864D01*
X96378742Y-52253130D01*
X96389371Y-52243413D01*
X96399997Y-52233727D01*
X96410634Y-52224058D01*
X96421268Y-52214420D01*
X96431912Y-52204798D01*
X96442552Y-52195207D01*
X96453204Y-52185632D01*
X96463852Y-52176089D01*
X96474511Y-52166562D01*
X96485166Y-52157065D01*
X96495832Y-52147585D01*
X96506495Y-52138135D01*
X96517168Y-52128703D01*
X96527838Y-52119300D01*
X96538519Y-52109914D01*
X96549196Y-52100558D01*
X96559884Y-52091219D01*
X96570568Y-52081910D01*
X96581264Y-52072618D01*
X96591956Y-52063356D01*
X96602658Y-52054111D01*
X96613357Y-52044895D01*
X96624067Y-52035696D01*
X96634774Y-52026527D01*
X96645491Y-52017374D01*
X96656205Y-52008251D01*
X96666930Y-51999145D01*
X96677651Y-51990069D01*
X96688383Y-51981009D01*
X96699112Y-51971978D01*
X96709851Y-51962965D01*
X96720587Y-51953980D01*
X96731334Y-51945013D01*
X96742077Y-51936075D01*
X96752831Y-51927153D01*
X96763582Y-51918261D01*
X96774343Y-51909385D01*
X96785101Y-51900538D01*
X96795870Y-51891708D01*
X96806636Y-51882907D01*
X96817412Y-51874123D01*
X96828185Y-51865368D01*
X96838969Y-51856629D01*
X96849749Y-51847920D01*
X96860540Y-51839227D01*
X96871328Y-51830562D01*
X96882127Y-51821915D01*
X96892922Y-51813295D01*
X96903728Y-51804693D01*
X96914531Y-51796119D01*
X96925344Y-51787562D01*
X96936154Y-51779033D01*
X96946975Y-51770522D01*
X96957793Y-51762038D01*
X96968621Y-51753571D01*
X96979447Y-51745132D01*
X96990282Y-51736711D01*
X97001115Y-51728317D01*
X97011959Y-51719940D01*
X97022799Y-51711590D01*
X97033650Y-51703258D01*
X97044498Y-51694954D01*
X97055356Y-51686666D01*
X97066212Y-51678406D01*
X97077078Y-51670164D01*
X97087941Y-51661948D01*
X97098814Y-51653750D01*
X97109685Y-51645579D01*
X97120566Y-51637425D01*
X97131444Y-51629298D01*
X97142333Y-51621188D01*
X97153219Y-51613106D01*
X97164115Y-51605041D01*
X97175008Y-51597002D01*
X97185912Y-51588981D01*
X97196814Y-51580987D01*
X97207725Y-51573010D01*
X97218634Y-51565060D01*
X97229553Y-51557126D01*
X97240470Y-51549220D01*
X97251397Y-51541331D01*
X97262321Y-51533468D01*
X97273256Y-51525623D01*
X97284188Y-51517804D01*
X97295130Y-51510002D01*
X97306070Y-51502227D01*
X97317020Y-51494469D01*
X97327968Y-51486737D01*
X97338926Y-51479023D01*
X97349881Y-51471335D01*
X97360847Y-51463664D01*
X97371810Y-51456019D01*
X97382783Y-51448391D01*
X97393754Y-51440790D01*
X97404735Y-51433206D01*
X97415714Y-51425647D01*
X97426703Y-51418106D01*
X97437690Y-51410591D01*
X97448687Y-51403093D01*
X97459682Y-51395621D01*
X97470687Y-51388167D01*
X97481689Y-51380737D01*
X97492702Y-51373326D01*
X97503712Y-51365940D01*
X97514733Y-51358571D01*
X97525752Y-51351227D01*
X97536780Y-51343901D01*
X97547807Y-51336601D01*
X97558844Y-51329317D01*
X97569878Y-51322059D01*
X97580923Y-51314819D01*
X97591965Y-51307604D01*
X97603018Y-51300406D01*
X97614068Y-51293233D01*
X97625129Y-51286077D01*
X97636188Y-51278947D01*
X97647257Y-51271834D01*
X97658324Y-51264746D01*
X97669400Y-51257675D01*
X97680475Y-51250630D01*
X97691560Y-51243601D01*
X97702644Y-51236598D01*
X97713737Y-51229612D01*
X97724828Y-51222650D01*
X97735930Y-51215706D01*
X97747029Y-51208787D01*
X97758139Y-51201885D01*
X97769246Y-51195008D01*
X97780364Y-51188148D01*
X97791480Y-51181313D01*
X97802606Y-51174495D01*
X97813731Y-51167702D01*
X97824865Y-51160925D01*
X97835998Y-51154174D01*
X97847141Y-51147440D01*
X97858282Y-51140730D01*
X97869433Y-51134037D01*
X97880582Y-51127369D01*
X97891742Y-51120718D01*
X97902900Y-51114091D01*
X97914067Y-51107482D01*
X97925234Y-51100897D01*
X97936410Y-51094329D01*
X97947585Y-51087785D01*
X97958770Y-51081259D01*
X97969953Y-51074757D01*
X97981146Y-51068272D01*
X97992338Y-51061811D01*
X98003540Y-51055367D01*
X98014740Y-51048947D01*
X98025951Y-51042545D01*
X98037160Y-51036166D01*
X98048379Y-51029805D01*
X98059596Y-51023468D01*
X98070824Y-51017147D01*
X98082050Y-51010851D01*
X98093287Y-51004572D01*
X98104522Y-50998317D01*
X98115767Y-50992079D01*
X98127011Y-50985864D01*
X98138264Y-50979667D01*
X98149517Y-50973493D01*
X98160779Y-50967337D01*
X98172041Y-50961204D01*
X98183312Y-50955089D01*
X98194582Y-50948997D01*
X98205862Y-50942922D01*
X98217141Y-50936871D01*
X98228430Y-50930837D01*
X98239718Y-50924826D01*
X98251016Y-50918833D01*
X98262313Y-50912863D01*
X98273620Y-50906910D01*
X98284926Y-50900980D01*
X98296241Y-50895068D01*
X98307556Y-50889179D01*
X98318881Y-50883307D01*
X98330205Y-50877458D01*
X98341539Y-50871627D01*
X98352872Y-50865818D01*
X98364215Y-50860027D01*
X98375557Y-50854259D01*
X98386909Y-50848508D01*
X98398261Y-50842780D01*
X98409622Y-50837070D01*
X98420982Y-50831382D01*
X98432353Y-50825712D01*
X98443722Y-50820064D01*
X98455102Y-50814434D01*
X98466481Y-50808826D01*
X98477870Y-50803236D01*
X98489258Y-50797669D01*
X98500657Y-50792119D01*
X98512054Y-50786591D01*
X98523462Y-50781081D01*
X98534869Y-50775593D01*
X98546286Y-50770123D01*
X98557703Y-50764675D01*
X98569129Y-50759245D01*
X98580555Y-50753837D01*
X98591991Y-50748446D01*
X98603426Y-50743078D01*
X98614872Y-50737727D01*
X98626317Y-50732399D01*
X98637772Y-50727088D01*
X98649226Y-50721799D01*
X98660691Y-50716527D01*
X98672155Y-50711278D01*
X98683629Y-50706046D01*
X98695103Y-50700837D01*
X98706587Y-50695644D01*
X98718071Y-50690474D01*
X98729564Y-50685322D01*
X98741058Y-50680191D01*
X98752561Y-50675078D01*
X98764065Y-50669987D01*
X98775578Y-50664913D01*
X98787091Y-50659861D01*
X98798614Y-50654827D01*
X98810137Y-50649814D01*
X98821670Y-50644820D01*
X98833203Y-50639846D01*
X98844745Y-50634891D01*
X98856288Y-50629957D01*
X98867841Y-50625041D01*
X98879394Y-50620146D01*
X98890957Y-50615269D01*
X98902520Y-50610414D01*
X98914093Y-50605576D01*
X98925666Y-50600759D01*
X98937249Y-50595961D01*
X98948832Y-50591183D01*
X98960425Y-50586424D01*
X98972019Y-50581686D01*
X98983622Y-50576965D01*
X98995226Y-50572266D01*
X99006839Y-50567585D01*
X99018454Y-50562925D01*
X99030077Y-50558282D01*
X99041702Y-50553661D01*
X99053336Y-50549058D01*
X99064971Y-50544475D01*
X99076615Y-50539911D01*
X99088261Y-50535368D01*
X99099916Y-50530842D01*
X99111572Y-50526338D01*
X99123237Y-50521851D01*
X99134903Y-50517385D01*
X99146579Y-50512937D01*
X99158256Y-50508510D01*
X99169943Y-50504101D01*
X99181630Y-50499713D01*
X99193327Y-50495343D01*
X99205026Y-50490994D01*
X99216734Y-50486662D01*
X99228443Y-50482352D01*
X99240161Y-50478059D01*
X99251881Y-50473787D01*
X99263610Y-50469533D01*
X99275341Y-50465299D01*
X99287081Y-50461084D01*
X99298822Y-50456889D01*
X99310573Y-50452712D01*
X99322326Y-50448556D01*
X99334088Y-50444418D01*
X99345851Y-50440300D01*
X99357624Y-50436201D01*
X99369398Y-50432122D01*
X99381182Y-50428060D01*
X99392968Y-50424020D01*
X99404763Y-50419997D01*
X99416559Y-50415995D01*
X99428365Y-50412011D01*
X99440173Y-50408048D01*
X99451991Y-50404102D01*
X99463810Y-50400177D01*
X99475638Y-50396270D01*
X99487468Y-50392383D01*
X99499308Y-50388514D01*
X99511150Y-50384666D01*
X99523001Y-50380836D01*
X99534854Y-50377026D01*
X99546716Y-50373234D01*
X99558581Y-50369462D01*
X99570455Y-50365709D01*
X99582331Y-50361976D01*
X99594216Y-50358260D01*
X99606104Y-50354565D01*
X99618001Y-50350889D01*
X99629900Y-50347232D01*
X99641808Y-50343593D01*
X99653719Y-50339975D01*
X99665639Y-50336375D01*
X99677562Y-50332795D01*
X99689494Y-50329233D01*
X99701428Y-50325691D01*
X99713372Y-50322167D01*
X99725318Y-50318664D01*
X99737273Y-50315178D01*
X99749231Y-50311713D01*
X99761198Y-50308266D01*
X99773168Y-50304838D01*
X99785147Y-50301429D01*
X99797129Y-50298040D01*
X99809121Y-50294670D01*
X99821114Y-50291319D01*
X99833118Y-50287986D01*
X99845124Y-50284674D01*
X99857139Y-50281379D01*
X99869157Y-50278105D01*
X99881185Y-50274849D01*
X99893215Y-50271612D01*
X99905255Y-50268394D01*
X99917297Y-50265196D01*
X99929349Y-50262016D01*
X99941404Y-50258856D01*
X99953468Y-50255715D01*
X99965535Y-50252593D01*
X99977612Y-50249489D01*
X99989692Y-50246405D01*
X100001781Y-50243340D01*
X100013873Y-50240294D01*
X100025975Y-50237267D01*
X100038079Y-50234260D01*
X100050193Y-50231270D01*
X100062311Y-50228301D01*
X100074437Y-50225350D01*
X100086567Y-50222419D01*
X100098707Y-50219506D01*
X100110849Y-50216612D01*
X100123001Y-50213737D01*
X100135157Y-50210882D01*
X100147322Y-50208046D01*
X100159490Y-50205229D01*
X100171668Y-50202430D01*
X100183849Y-50199651D01*
X100196039Y-50196891D01*
X100208233Y-50194150D01*
X100220437Y-50191427D01*
X100232644Y-50188725D01*
X100244861Y-50186040D01*
X100257081Y-50183376D01*
X100269310Y-50180730D01*
X100281544Y-50178103D01*
X100293786Y-50175495D01*
X100306033Y-50172907D01*
X100318289Y-50170337D01*
X100330549Y-50167786D01*
X100342818Y-50165254D01*
X100355091Y-50162742D01*
X100367373Y-50160249D01*
X100379660Y-50157774D01*
X100391956Y-50155319D01*
X100404255Y-50152883D01*
X100416565Y-50150465D01*
X100428878Y-50148068D01*
X100441201Y-50145688D01*
X100453528Y-50143329D01*
X100465864Y-50140988D01*
X100478204Y-50138666D01*
X100490554Y-50136363D01*
X100502909Y-50134080D01*
X100515272Y-50131815D01*
X100527640Y-50129570D01*
X100540017Y-50127343D01*
X100552399Y-50125136D01*
X100564790Y-50122947D01*
X100577186Y-50120778D01*
X100589591Y-50118628D01*
X100602000Y-50116498D01*
X100614419Y-50114386D01*
X100626843Y-50112293D01*
X100639276Y-50110219D01*
X100651713Y-50108165D01*
X100664160Y-50106129D01*
X100676612Y-50104113D01*
X100689073Y-50102116D01*
X100701539Y-50100138D01*
X100714014Y-50098179D01*
X100726494Y-50096240D01*
X100738983Y-50094319D01*
X100751478Y-50092418D01*
X100763981Y-50090535D01*
X100776490Y-50088673D01*
X100789008Y-50086828D01*
X100801531Y-50085004D01*
X100814064Y-50083198D01*
X100826601Y-50081412D01*
X100839148Y-50079644D01*
X100851700Y-50077896D01*
X100864262Y-50076167D01*
X100876829Y-50074458D01*
X100889405Y-50072767D01*
X100901986Y-50071096D01*
X100914577Y-50069444D01*
X100927173Y-50067811D01*
X100939779Y-50066197D01*
X100952390Y-50064603D01*
X100965010Y-50063028D01*
X100977636Y-50061472D01*
X100990272Y-50059935D01*
X101002912Y-50058418D01*
X101015563Y-50056919D01*
X101028218Y-50055440D01*
X101040884Y-50053981D01*
X101053554Y-50052540D01*
X101066235Y-50051119D01*
X101078921Y-50049717D01*
X101091616Y-50048335D01*
X101104317Y-50046972D01*
X101117028Y-50045628D01*
X101129744Y-50044303D01*
X101142470Y-50042998D01*
X101155202Y-50041712D01*
X101167943Y-50040445D01*
X101180690Y-50039198D01*
X101193447Y-50037970D01*
X101206210Y-50036761D01*
X101218982Y-50035572D01*
X101231760Y-50034402D01*
X101244547Y-50033252D01*
X101257341Y-50032121D01*
X101270144Y-50031009D01*
X101282954Y-50029917D01*
X101295772Y-50028844D01*
X101308598Y-50027790D01*
X101321432Y-50026756D01*
X101334273Y-50025742D01*
X101347123Y-50024747D01*
X101359980Y-50023771D01*
X101372846Y-50022815D01*
X101385719Y-50021878D01*
X101398601Y-50020961D01*
X101411490Y-50020063D01*
X101424388Y-50019185D01*
X101437293Y-50018326D01*
X101450207Y-50017487D01*
X101463128Y-50016667D01*
X101476058Y-50015867D01*
X101488995Y-50015086D01*
X101501941Y-50014325D01*
X101514895Y-50013584D01*
X101527857Y-50012862D01*
X101540827Y-50012159D01*
X101553806Y-50011477D01*
X101566792Y-50010814D01*
X101579788Y-50010170D01*
X101592790Y-50009546D01*
X101605802Y-50008942D01*
X101618821Y-50008357D01*
X101631849Y-50007792D01*
X101644885Y-50007247D01*
X101657930Y-50006721D01*
X101670982Y-50006215D01*
X101684044Y-50005729D01*
X101697113Y-50005263D01*
X101710191Y-50004816D01*
X101723277Y-50004389D01*
X101736372Y-50003982D01*
X101749475Y-50003594D01*
X101762587Y-50003226D01*
X101775707Y-50002878D01*
X101788836Y-50002550D01*
X101801972Y-50002242D01*
X101815118Y-50001953D01*
X101828272Y-50001684D01*
X101841435Y-50001435D01*
X101854606Y-50001206D01*
X101867786Y-50000997D01*
X101880974Y-50000808D01*
X101894172Y-50000638D01*
X101907377Y-50000489D01*
X101920592Y-50000359D01*
X101933814Y-50000249D01*
X101947046Y-50000160D01*
X101960286Y-50000090D01*
X101973536Y-50000040D01*
X102000000Y-50000000D01*
D10*
X96000000Y-123000000D02*
G75*
G02*
X90000000Y-117000000I0J6000000D01*
G01*
D12*
X110000000Y-66000000D02*
X120000000Y-66000000D01*
X120000000Y-82000000D01*
X110000000Y-82000000D01*
X110000000Y-66000000D01*
D10*
X96000000Y-123000000D02*
X134000000Y-123000000D01*
X140000000Y-70000000D02*
X140000000Y-117000000D01*
X90000000Y-70000000D02*
X90000000Y-117000000D01*
%TO.C,U2*%
D12*
X104550000Y-79400000D02*
X102450000Y-79400000D01*
X102450000Y-77600000D01*
X104550000Y-77600000D01*
X104550000Y-79400000D01*
%TA.AperFunction,Profile*%
G36*
X104550000Y-79400000D02*
G01*
X102450000Y-79400000D01*
X102450000Y-77600000D01*
X104550000Y-77600000D01*
X104550000Y-79400000D01*
G37*
%TD.AperFunction*%
X104550000Y-68600000D02*
X102450000Y-68600000D01*
X102450000Y-70400000D01*
X104550000Y-70400000D01*
X104550000Y-68600000D01*
%TA.AperFunction,Profile*%
G36*
X104550000Y-68600000D02*
G01*
X102450000Y-68600000D01*
X102450000Y-70400000D01*
X104550000Y-70400000D01*
X104550000Y-68600000D01*
G37*
%TD.AperFunction*%
%TO.C,PMW3389DM-T3QU1*%
D13*
X110500000Y-101500000D02*
X119500000Y-101500000D01*
X119500000Y-118500000D01*
X110500000Y-118500000D01*
X110500000Y-101500000D01*
%TD*%
M02*
