%TF.GenerationSoftware,KiCad,Pcbnew,9.0.7*%
%TF.CreationDate,2026-01-19T13:59:45-05:00*%
%TF.ProjectId,Mouse_Project,4d6f7573-655f-4507-926f-6a6563742e6b,rev?*%
%TF.SameCoordinates,Original*%
%TF.FileFunction,Soldermask,Bot*%
%TF.FilePolarity,Negative*%
%FSLAX46Y46*%
G04 Gerber Fmt 4.6, Leading zero omitted, Abs format (unit mm)*
G04 Created by KiCad (PCBNEW 9.0.7) date 2026-01-19 13:59:45*
%MOMM*%
%LPD*%
G01*
G04 APERTURE LIST*
G04 Aperture macros list*
%AMRoundRect*
0 Rectangle with rounded corners*
0 $1 Rounding radius*
0 $2 $3 $4 $5 $6 $7 $8 $9 X,Y pos of 4 corners*
0 Add a 4 corners polygon primitive as box body*
4,1,4,$2,$3,$4,$5,$6,$7,$8,$9,$2,$3,0*
0 Add four circle primitives for the rounded corners*
1,1,$1+$1,$2,$3*
1,1,$1+$1,$4,$5*
1,1,$1+$1,$6,$7*
1,1,$1+$1,$8,$9*
0 Add four rect primitives between the rounded corners*
20,1,$1+$1,$2,$3,$4,$5,0*
20,1,$1+$1,$4,$5,$6,$7,0*
20,1,$1+$1,$6,$7,$8,$9,0*
20,1,$1+$1,$8,$9,$2,$3,0*%
G04 Aperture macros list end*
%ADD10O,2.600000X2.000000*%
%ADD11C,2.000000*%
%ADD12R,1.500000X1.500000*%
%ADD13C,1.400000*%
%ADD14O,2.000000X1.500000*%
%ADD15O,2.400000X1.600000*%
%ADD16C,1.524000*%
%ADD17R,2.000000X2.000000*%
%ADD18RoundRect,0.102000X0.910000X-0.620000X0.910000X0.620000X-0.910000X0.620000X-0.910000X-0.620000X0*%
%ADD19RoundRect,0.175500X0.836500X-0.526500X0.836500X0.526500X-0.836500X0.526500X-0.836500X-0.526500X0*%
%ADD20RoundRect,0.175500X-0.836500X0.526500X-0.836500X-0.526500X0.836500X-0.526500X0.836500X0.526500X0*%
%ADD21RoundRect,0.102000X-0.910000X0.620000X-0.910000X-0.620000X0.910000X-0.620000X0.910000X0.620000X0*%
G04 APERTURE END LIST*
D10*
%TO.C,Kailh_Switch3*%
X95000000Y-90080000D03*
X95000000Y-85000000D03*
X95000000Y-79920000D03*
%TD*%
D11*
%TO.C,SW3*%
X130010600Y-70750000D03*
X130010600Y-77250001D03*
X125510599Y-70750000D03*
D12*
X125510599Y-77250001D03*
%TD*%
D13*
%TO.C,J1*%
X132500000Y-120000000D03*
X130499999Y-120000000D03*
%TD*%
D14*
%TO.C,U2*%
X101500000Y-76500000D03*
X101500000Y-74000000D03*
X101500000Y-71500000D03*
%TD*%
D15*
%TO.C,NRF52840_ProMicro1*%
X122650000Y-51250000D03*
X122650000Y-53791666D03*
X122650000Y-56333332D03*
X122650000Y-58874998D03*
X122650000Y-61416664D03*
X122650000Y-63958330D03*
X122650000Y-66499996D03*
X122650000Y-69041662D03*
X122650000Y-71583328D03*
X122650000Y-74124994D03*
X122650000Y-76666660D03*
X122650000Y-79208326D03*
X122650000Y-81750000D03*
X107350000Y-81750000D03*
X107350000Y-79208326D03*
X107350000Y-76666660D03*
X107350000Y-74124994D03*
X107350000Y-71583328D03*
X107350000Y-69041662D03*
X107350000Y-66499996D03*
X107350000Y-63958330D03*
X107350000Y-61416664D03*
X107350000Y-58874998D03*
X107350000Y-56333332D03*
X107350000Y-53791666D03*
X107350000Y-51250000D03*
%TD*%
D16*
%TO.C,PMW3389DM-T3QU1*%
X120350000Y-104310000D03*
X120350000Y-106090000D03*
X120350000Y-107870000D03*
X120350000Y-109650000D03*
X120350000Y-111430000D03*
X120350000Y-113210000D03*
X120350000Y-114990000D03*
X120350000Y-116770000D03*
X109650000Y-115880000D03*
X109650000Y-114100000D03*
X109650000Y-112320000D03*
X109650000Y-110540000D03*
X109650000Y-108760000D03*
X109650000Y-106980000D03*
X109650000Y-105200000D03*
X109650000Y-103420000D03*
%TD*%
D10*
%TO.C,Kailh_Switch2*%
X130000000Y-65080000D03*
X130000000Y-60000000D03*
X130000000Y-54920000D03*
%TD*%
%TO.C,Kailh_Switch1*%
X100000000Y-65080000D03*
X100000000Y-60000000D03*
X100000000Y-54920000D03*
%TD*%
%TO.C,Kailh_Switch4*%
X95000000Y-103580000D03*
X95000000Y-98500000D03*
X95000000Y-93420000D03*
%TD*%
D11*
%TO.C,SW4*%
X112739400Y-96500000D03*
X112739400Y-89999999D03*
X117239401Y-96500000D03*
D17*
X117239401Y-89999999D03*
%TD*%
D18*
%TO.C,C3*%
X107000000Y-109015000D03*
X107000000Y-111985000D03*
%TD*%
D11*
%TO.C,SW2*%
X129500000Y-107500000D03*
X132000000Y-107500000D03*
X134500000Y-107500000D03*
%TD*%
D19*
%TO.C,C1*%
X104500000Y-109040000D03*
X104500000Y-111960000D03*
%TD*%
D20*
%TO.C,C2*%
X104500000Y-106920000D03*
X104500000Y-104000000D03*
%TD*%
D11*
%TO.C,SW1*%
X129500000Y-112500000D03*
X132000000Y-112500000D03*
X134500000Y-112500000D03*
%TD*%
D21*
%TO.C,C4*%
X107000000Y-106985000D03*
X107000000Y-104015000D03*
%TD*%
M02*
