%TF.GenerationSoftware,KiCad,Pcbnew,9.0.5*%
%TF.CreationDate,2025-11-20T14:46:47-05:00*%
%TF.ProjectId,Mouse_Project,4d6f7573-655f-4507-926f-6a6563742e6b,rev?*%
%TF.SameCoordinates,Original*%
%TF.FileFunction,Legend,Top*%
%TF.FilePolarity,Positive*%
%FSLAX46Y46*%
G04 Gerber Fmt 4.6, Leading zero omitted, Abs format (unit mm)*
G04 Created by KiCad (PCBNEW 9.0.5) date 2025-11-20 14:46:47*
%MOMM*%
%LPD*%
G01*
G04 APERTURE LIST*
%ADD10C,0.200000*%
%ADD11C,0.150000*%
%ADD12C,0.127000*%
%ADD13C,0.100000*%
%ADD14C,0.152400*%
%ADD15C,0.508000*%
%ADD16C,0.300000*%
G04 APERTURE END LIST*
D10*
X133400000Y-53600000D02*
G75*
G02*
X132400000Y-53600000I-500000J0D01*
G01*
X132400000Y-53600000D02*
G75*
G02*
X133400000Y-53600000I500000J0D01*
G01*
X103400000Y-53600000D02*
G75*
G02*
X102400000Y-53600000I-500000J0D01*
G01*
X102400000Y-53600000D02*
G75*
G02*
X103400000Y-53600000I500000J0D01*
G01*
X98400000Y-92100000D02*
G75*
G02*
X97400000Y-92100000I-500000J0D01*
G01*
X97400000Y-92100000D02*
G75*
G02*
X98400000Y-92100000I500000J0D01*
G01*
X98400000Y-78600000D02*
G75*
G02*
X97400000Y-78600000I-500000J0D01*
G01*
X97400000Y-78600000D02*
G75*
G02*
X98400000Y-78600000I500000J0D01*
G01*
D11*
X127833333Y-111954819D02*
X127500000Y-111478628D01*
X127261905Y-111954819D02*
X127261905Y-110954819D01*
X127261905Y-110954819D02*
X127642857Y-110954819D01*
X127642857Y-110954819D02*
X127738095Y-111002438D01*
X127738095Y-111002438D02*
X127785714Y-111050057D01*
X127785714Y-111050057D02*
X127833333Y-111145295D01*
X127833333Y-111145295D02*
X127833333Y-111288152D01*
X127833333Y-111288152D02*
X127785714Y-111383390D01*
X127785714Y-111383390D02*
X127738095Y-111431009D01*
X127738095Y-111431009D02*
X127642857Y-111478628D01*
X127642857Y-111478628D02*
X127261905Y-111478628D01*
X128785714Y-111954819D02*
X128214286Y-111954819D01*
X128500000Y-111954819D02*
X128500000Y-110954819D01*
X128500000Y-110954819D02*
X128404762Y-111097676D01*
X128404762Y-111097676D02*
X128309524Y-111192914D01*
X128309524Y-111192914D02*
X128214286Y-111240533D01*
X123454118Y-77249999D02*
X123692213Y-77249999D01*
X123596975Y-77488094D02*
X123692213Y-77249999D01*
X123692213Y-77249999D02*
X123596975Y-77011904D01*
X123882689Y-77392856D02*
X123692213Y-77249999D01*
X123692213Y-77249999D02*
X123882689Y-77107142D01*
X123454118Y-77249999D02*
X123692213Y-77249999D01*
X123596975Y-77488094D02*
X123692213Y-77249999D01*
X123692213Y-77249999D02*
X123596975Y-77011904D01*
X123882689Y-77392856D02*
X123692213Y-77249999D01*
X123692213Y-77249999D02*
X123882689Y-77107142D01*
X106333333Y-118859580D02*
X106285714Y-118907200D01*
X106285714Y-118907200D02*
X106142857Y-118954819D01*
X106142857Y-118954819D02*
X106047619Y-118954819D01*
X106047619Y-118954819D02*
X105904762Y-118907200D01*
X105904762Y-118907200D02*
X105809524Y-118811961D01*
X105809524Y-118811961D02*
X105761905Y-118716723D01*
X105761905Y-118716723D02*
X105714286Y-118526247D01*
X105714286Y-118526247D02*
X105714286Y-118383390D01*
X105714286Y-118383390D02*
X105761905Y-118192914D01*
X105761905Y-118192914D02*
X105809524Y-118097676D01*
X105809524Y-118097676D02*
X105904762Y-118002438D01*
X105904762Y-118002438D02*
X106047619Y-117954819D01*
X106047619Y-117954819D02*
X106142857Y-117954819D01*
X106142857Y-117954819D02*
X106285714Y-118002438D01*
X106285714Y-118002438D02*
X106333333Y-118050057D01*
X106666667Y-117954819D02*
X107333333Y-117954819D01*
X107333333Y-117954819D02*
X106904762Y-118954819D01*
X104333333Y-103359580D02*
X104285714Y-103407200D01*
X104285714Y-103407200D02*
X104142857Y-103454819D01*
X104142857Y-103454819D02*
X104047619Y-103454819D01*
X104047619Y-103454819D02*
X103904762Y-103407200D01*
X103904762Y-103407200D02*
X103809524Y-103311961D01*
X103809524Y-103311961D02*
X103761905Y-103216723D01*
X103761905Y-103216723D02*
X103714286Y-103026247D01*
X103714286Y-103026247D02*
X103714286Y-102883390D01*
X103714286Y-102883390D02*
X103761905Y-102692914D01*
X103761905Y-102692914D02*
X103809524Y-102597676D01*
X103809524Y-102597676D02*
X103904762Y-102502438D01*
X103904762Y-102502438D02*
X104047619Y-102454819D01*
X104047619Y-102454819D02*
X104142857Y-102454819D01*
X104142857Y-102454819D02*
X104285714Y-102502438D01*
X104285714Y-102502438D02*
X104333333Y-102550057D01*
X105190476Y-102454819D02*
X105000000Y-102454819D01*
X105000000Y-102454819D02*
X104904762Y-102502438D01*
X104904762Y-102502438D02*
X104857143Y-102550057D01*
X104857143Y-102550057D02*
X104761905Y-102692914D01*
X104761905Y-102692914D02*
X104714286Y-102883390D01*
X104714286Y-102883390D02*
X104714286Y-103264342D01*
X104714286Y-103264342D02*
X104761905Y-103359580D01*
X104761905Y-103359580D02*
X104809524Y-103407200D01*
X104809524Y-103407200D02*
X104904762Y-103454819D01*
X104904762Y-103454819D02*
X105095238Y-103454819D01*
X105095238Y-103454819D02*
X105190476Y-103407200D01*
X105190476Y-103407200D02*
X105238095Y-103359580D01*
X105238095Y-103359580D02*
X105285714Y-103264342D01*
X105285714Y-103264342D02*
X105285714Y-103026247D01*
X105285714Y-103026247D02*
X105238095Y-102931009D01*
X105238095Y-102931009D02*
X105190476Y-102883390D01*
X105190476Y-102883390D02*
X105095238Y-102835771D01*
X105095238Y-102835771D02*
X104904762Y-102835771D01*
X104904762Y-102835771D02*
X104809524Y-102883390D01*
X104809524Y-102883390D02*
X104761905Y-102931009D01*
X104761905Y-102931009D02*
X104714286Y-103026247D01*
X127833333Y-103859580D02*
X127785714Y-103907200D01*
X127785714Y-103907200D02*
X127642857Y-103954819D01*
X127642857Y-103954819D02*
X127547619Y-103954819D01*
X127547619Y-103954819D02*
X127404762Y-103907200D01*
X127404762Y-103907200D02*
X127309524Y-103811961D01*
X127309524Y-103811961D02*
X127261905Y-103716723D01*
X127261905Y-103716723D02*
X127214286Y-103526247D01*
X127214286Y-103526247D02*
X127214286Y-103383390D01*
X127214286Y-103383390D02*
X127261905Y-103192914D01*
X127261905Y-103192914D02*
X127309524Y-103097676D01*
X127309524Y-103097676D02*
X127404762Y-103002438D01*
X127404762Y-103002438D02*
X127547619Y-102954819D01*
X127547619Y-102954819D02*
X127642857Y-102954819D01*
X127642857Y-102954819D02*
X127785714Y-103002438D01*
X127785714Y-103002438D02*
X127833333Y-103050057D01*
X128404762Y-103383390D02*
X128309524Y-103335771D01*
X128309524Y-103335771D02*
X128261905Y-103288152D01*
X128261905Y-103288152D02*
X128214286Y-103192914D01*
X128214286Y-103192914D02*
X128214286Y-103145295D01*
X128214286Y-103145295D02*
X128261905Y-103050057D01*
X128261905Y-103050057D02*
X128309524Y-103002438D01*
X128309524Y-103002438D02*
X128404762Y-102954819D01*
X128404762Y-102954819D02*
X128595238Y-102954819D01*
X128595238Y-102954819D02*
X128690476Y-103002438D01*
X128690476Y-103002438D02*
X128738095Y-103050057D01*
X128738095Y-103050057D02*
X128785714Y-103145295D01*
X128785714Y-103145295D02*
X128785714Y-103192914D01*
X128785714Y-103192914D02*
X128738095Y-103288152D01*
X128738095Y-103288152D02*
X128690476Y-103335771D01*
X128690476Y-103335771D02*
X128595238Y-103383390D01*
X128595238Y-103383390D02*
X128404762Y-103383390D01*
X128404762Y-103383390D02*
X128309524Y-103431009D01*
X128309524Y-103431009D02*
X128261905Y-103478628D01*
X128261905Y-103478628D02*
X128214286Y-103573866D01*
X128214286Y-103573866D02*
X128214286Y-103764342D01*
X128214286Y-103764342D02*
X128261905Y-103859580D01*
X128261905Y-103859580D02*
X128309524Y-103907200D01*
X128309524Y-103907200D02*
X128404762Y-103954819D01*
X128404762Y-103954819D02*
X128595238Y-103954819D01*
X128595238Y-103954819D02*
X128690476Y-103907200D01*
X128690476Y-103907200D02*
X128738095Y-103859580D01*
X128738095Y-103859580D02*
X128785714Y-103764342D01*
X128785714Y-103764342D02*
X128785714Y-103573866D01*
X128785714Y-103573866D02*
X128738095Y-103478628D01*
X128738095Y-103478628D02*
X128690476Y-103431009D01*
X128690476Y-103431009D02*
X128595238Y-103383390D01*
X111809523Y-84288152D02*
X111809523Y-84954819D01*
X111809523Y-84383390D02*
X111857142Y-84335771D01*
X111857142Y-84335771D02*
X111952380Y-84288152D01*
X111952380Y-84288152D02*
X112095237Y-84288152D01*
X112095237Y-84288152D02*
X112190475Y-84335771D01*
X112190475Y-84335771D02*
X112238094Y-84431009D01*
X112238094Y-84431009D02*
X112238094Y-84954819D01*
X112714285Y-84954819D02*
X112714285Y-84288152D01*
X112714285Y-84478628D02*
X112761904Y-84383390D01*
X112761904Y-84383390D02*
X112809523Y-84335771D01*
X112809523Y-84335771D02*
X112904761Y-84288152D01*
X112904761Y-84288152D02*
X112999999Y-84288152D01*
X113190476Y-84288152D02*
X113571428Y-84288152D01*
X113333333Y-84954819D02*
X113333333Y-84097676D01*
X113333333Y-84097676D02*
X113380952Y-84002438D01*
X113380952Y-84002438D02*
X113476190Y-83954819D01*
X113476190Y-83954819D02*
X113571428Y-83954819D01*
X114380952Y-83954819D02*
X113904762Y-83954819D01*
X113904762Y-83954819D02*
X113857143Y-84431009D01*
X113857143Y-84431009D02*
X113904762Y-84383390D01*
X113904762Y-84383390D02*
X114000000Y-84335771D01*
X114000000Y-84335771D02*
X114238095Y-84335771D01*
X114238095Y-84335771D02*
X114333333Y-84383390D01*
X114333333Y-84383390D02*
X114380952Y-84431009D01*
X114380952Y-84431009D02*
X114428571Y-84526247D01*
X114428571Y-84526247D02*
X114428571Y-84764342D01*
X114428571Y-84764342D02*
X114380952Y-84859580D01*
X114380952Y-84859580D02*
X114333333Y-84907200D01*
X114333333Y-84907200D02*
X114238095Y-84954819D01*
X114238095Y-84954819D02*
X114000000Y-84954819D01*
X114000000Y-84954819D02*
X113904762Y-84907200D01*
X113904762Y-84907200D02*
X113857143Y-84859580D01*
X114809524Y-84050057D02*
X114857143Y-84002438D01*
X114857143Y-84002438D02*
X114952381Y-83954819D01*
X114952381Y-83954819D02*
X115190476Y-83954819D01*
X115190476Y-83954819D02*
X115285714Y-84002438D01*
X115285714Y-84002438D02*
X115333333Y-84050057D01*
X115333333Y-84050057D02*
X115380952Y-84145295D01*
X115380952Y-84145295D02*
X115380952Y-84240533D01*
X115380952Y-84240533D02*
X115333333Y-84383390D01*
X115333333Y-84383390D02*
X114761905Y-84954819D01*
X114761905Y-84954819D02*
X115380952Y-84954819D01*
X115952381Y-84383390D02*
X115857143Y-84335771D01*
X115857143Y-84335771D02*
X115809524Y-84288152D01*
X115809524Y-84288152D02*
X115761905Y-84192914D01*
X115761905Y-84192914D02*
X115761905Y-84145295D01*
X115761905Y-84145295D02*
X115809524Y-84050057D01*
X115809524Y-84050057D02*
X115857143Y-84002438D01*
X115857143Y-84002438D02*
X115952381Y-83954819D01*
X115952381Y-83954819D02*
X116142857Y-83954819D01*
X116142857Y-83954819D02*
X116238095Y-84002438D01*
X116238095Y-84002438D02*
X116285714Y-84050057D01*
X116285714Y-84050057D02*
X116333333Y-84145295D01*
X116333333Y-84145295D02*
X116333333Y-84192914D01*
X116333333Y-84192914D02*
X116285714Y-84288152D01*
X116285714Y-84288152D02*
X116238095Y-84335771D01*
X116238095Y-84335771D02*
X116142857Y-84383390D01*
X116142857Y-84383390D02*
X115952381Y-84383390D01*
X115952381Y-84383390D02*
X115857143Y-84431009D01*
X115857143Y-84431009D02*
X115809524Y-84478628D01*
X115809524Y-84478628D02*
X115761905Y-84573866D01*
X115761905Y-84573866D02*
X115761905Y-84764342D01*
X115761905Y-84764342D02*
X115809524Y-84859580D01*
X115809524Y-84859580D02*
X115857143Y-84907200D01*
X115857143Y-84907200D02*
X115952381Y-84954819D01*
X115952381Y-84954819D02*
X116142857Y-84954819D01*
X116142857Y-84954819D02*
X116238095Y-84907200D01*
X116238095Y-84907200D02*
X116285714Y-84859580D01*
X116285714Y-84859580D02*
X116333333Y-84764342D01*
X116333333Y-84764342D02*
X116333333Y-84573866D01*
X116333333Y-84573866D02*
X116285714Y-84478628D01*
X116285714Y-84478628D02*
X116238095Y-84431009D01*
X116238095Y-84431009D02*
X116142857Y-84383390D01*
X117190476Y-84288152D02*
X117190476Y-84954819D01*
X116952381Y-83907200D02*
X116714286Y-84621485D01*
X116714286Y-84621485D02*
X117333333Y-84621485D01*
X117904762Y-83954819D02*
X118000000Y-83954819D01*
X118000000Y-83954819D02*
X118095238Y-84002438D01*
X118095238Y-84002438D02*
X118142857Y-84050057D01*
X118142857Y-84050057D02*
X118190476Y-84145295D01*
X118190476Y-84145295D02*
X118238095Y-84335771D01*
X118238095Y-84335771D02*
X118238095Y-84573866D01*
X118238095Y-84573866D02*
X118190476Y-84764342D01*
X118190476Y-84764342D02*
X118142857Y-84859580D01*
X118142857Y-84859580D02*
X118095238Y-84907200D01*
X118095238Y-84907200D02*
X118000000Y-84954819D01*
X118000000Y-84954819D02*
X117904762Y-84954819D01*
X117904762Y-84954819D02*
X117809524Y-84907200D01*
X117809524Y-84907200D02*
X117761905Y-84859580D01*
X117761905Y-84859580D02*
X117714286Y-84764342D01*
X117714286Y-84764342D02*
X117666667Y-84573866D01*
X117666667Y-84573866D02*
X117666667Y-84335771D01*
X117666667Y-84335771D02*
X117714286Y-84145295D01*
X117714286Y-84145295D02*
X117761905Y-84050057D01*
X117761905Y-84050057D02*
X117809524Y-84002438D01*
X117809524Y-84002438D02*
X117904762Y-83954819D01*
X103336779Y-51988866D02*
X104098684Y-51988866D01*
X104908207Y-51846009D02*
X105051064Y-51893628D01*
X105051064Y-51893628D02*
X105098683Y-51941247D01*
X105098683Y-51941247D02*
X105146302Y-52036485D01*
X105146302Y-52036485D02*
X105146302Y-52179342D01*
X105146302Y-52179342D02*
X105098683Y-52274580D01*
X105098683Y-52274580D02*
X105051064Y-52322200D01*
X105051064Y-52322200D02*
X104955826Y-52369819D01*
X104955826Y-52369819D02*
X104574874Y-52369819D01*
X104574874Y-52369819D02*
X104574874Y-51369819D01*
X104574874Y-51369819D02*
X104908207Y-51369819D01*
X104908207Y-51369819D02*
X105003445Y-51417438D01*
X105003445Y-51417438D02*
X105051064Y-51465057D01*
X105051064Y-51465057D02*
X105098683Y-51560295D01*
X105098683Y-51560295D02*
X105098683Y-51655533D01*
X105098683Y-51655533D02*
X105051064Y-51750771D01*
X105051064Y-51750771D02*
X105003445Y-51798390D01*
X105003445Y-51798390D02*
X104908207Y-51846009D01*
X104908207Y-51846009D02*
X104574874Y-51846009D01*
X107619048Y-99454819D02*
X107619048Y-98454819D01*
X107619048Y-98454819D02*
X108000000Y-98454819D01*
X108000000Y-98454819D02*
X108095238Y-98502438D01*
X108095238Y-98502438D02*
X108142857Y-98550057D01*
X108142857Y-98550057D02*
X108190476Y-98645295D01*
X108190476Y-98645295D02*
X108190476Y-98788152D01*
X108190476Y-98788152D02*
X108142857Y-98883390D01*
X108142857Y-98883390D02*
X108095238Y-98931009D01*
X108095238Y-98931009D02*
X108000000Y-98978628D01*
X108000000Y-98978628D02*
X107619048Y-98978628D01*
X108619048Y-99454819D02*
X108619048Y-98454819D01*
X108619048Y-98454819D02*
X108952381Y-99169104D01*
X108952381Y-99169104D02*
X109285714Y-98454819D01*
X109285714Y-98454819D02*
X109285714Y-99454819D01*
X109666667Y-98454819D02*
X109904762Y-99454819D01*
X109904762Y-99454819D02*
X110095238Y-98740533D01*
X110095238Y-98740533D02*
X110285714Y-99454819D01*
X110285714Y-99454819D02*
X110523810Y-98454819D01*
X110809524Y-98454819D02*
X111428571Y-98454819D01*
X111428571Y-98454819D02*
X111095238Y-98835771D01*
X111095238Y-98835771D02*
X111238095Y-98835771D01*
X111238095Y-98835771D02*
X111333333Y-98883390D01*
X111333333Y-98883390D02*
X111380952Y-98931009D01*
X111380952Y-98931009D02*
X111428571Y-99026247D01*
X111428571Y-99026247D02*
X111428571Y-99264342D01*
X111428571Y-99264342D02*
X111380952Y-99359580D01*
X111380952Y-99359580D02*
X111333333Y-99407200D01*
X111333333Y-99407200D02*
X111238095Y-99454819D01*
X111238095Y-99454819D02*
X110952381Y-99454819D01*
X110952381Y-99454819D02*
X110857143Y-99407200D01*
X110857143Y-99407200D02*
X110809524Y-99359580D01*
X111761905Y-98454819D02*
X112380952Y-98454819D01*
X112380952Y-98454819D02*
X112047619Y-98835771D01*
X112047619Y-98835771D02*
X112190476Y-98835771D01*
X112190476Y-98835771D02*
X112285714Y-98883390D01*
X112285714Y-98883390D02*
X112333333Y-98931009D01*
X112333333Y-98931009D02*
X112380952Y-99026247D01*
X112380952Y-99026247D02*
X112380952Y-99264342D01*
X112380952Y-99264342D02*
X112333333Y-99359580D01*
X112333333Y-99359580D02*
X112285714Y-99407200D01*
X112285714Y-99407200D02*
X112190476Y-99454819D01*
X112190476Y-99454819D02*
X111904762Y-99454819D01*
X111904762Y-99454819D02*
X111809524Y-99407200D01*
X111809524Y-99407200D02*
X111761905Y-99359580D01*
X112952381Y-98883390D02*
X112857143Y-98835771D01*
X112857143Y-98835771D02*
X112809524Y-98788152D01*
X112809524Y-98788152D02*
X112761905Y-98692914D01*
X112761905Y-98692914D02*
X112761905Y-98645295D01*
X112761905Y-98645295D02*
X112809524Y-98550057D01*
X112809524Y-98550057D02*
X112857143Y-98502438D01*
X112857143Y-98502438D02*
X112952381Y-98454819D01*
X112952381Y-98454819D02*
X113142857Y-98454819D01*
X113142857Y-98454819D02*
X113238095Y-98502438D01*
X113238095Y-98502438D02*
X113285714Y-98550057D01*
X113285714Y-98550057D02*
X113333333Y-98645295D01*
X113333333Y-98645295D02*
X113333333Y-98692914D01*
X113333333Y-98692914D02*
X113285714Y-98788152D01*
X113285714Y-98788152D02*
X113238095Y-98835771D01*
X113238095Y-98835771D02*
X113142857Y-98883390D01*
X113142857Y-98883390D02*
X112952381Y-98883390D01*
X112952381Y-98883390D02*
X112857143Y-98931009D01*
X112857143Y-98931009D02*
X112809524Y-98978628D01*
X112809524Y-98978628D02*
X112761905Y-99073866D01*
X112761905Y-99073866D02*
X112761905Y-99264342D01*
X112761905Y-99264342D02*
X112809524Y-99359580D01*
X112809524Y-99359580D02*
X112857143Y-99407200D01*
X112857143Y-99407200D02*
X112952381Y-99454819D01*
X112952381Y-99454819D02*
X113142857Y-99454819D01*
X113142857Y-99454819D02*
X113238095Y-99407200D01*
X113238095Y-99407200D02*
X113285714Y-99359580D01*
X113285714Y-99359580D02*
X113333333Y-99264342D01*
X113333333Y-99264342D02*
X113333333Y-99073866D01*
X113333333Y-99073866D02*
X113285714Y-98978628D01*
X113285714Y-98978628D02*
X113238095Y-98931009D01*
X113238095Y-98931009D02*
X113142857Y-98883390D01*
X113809524Y-99454819D02*
X114000000Y-99454819D01*
X114000000Y-99454819D02*
X114095238Y-99407200D01*
X114095238Y-99407200D02*
X114142857Y-99359580D01*
X114142857Y-99359580D02*
X114238095Y-99216723D01*
X114238095Y-99216723D02*
X114285714Y-99026247D01*
X114285714Y-99026247D02*
X114285714Y-98645295D01*
X114285714Y-98645295D02*
X114238095Y-98550057D01*
X114238095Y-98550057D02*
X114190476Y-98502438D01*
X114190476Y-98502438D02*
X114095238Y-98454819D01*
X114095238Y-98454819D02*
X113904762Y-98454819D01*
X113904762Y-98454819D02*
X113809524Y-98502438D01*
X113809524Y-98502438D02*
X113761905Y-98550057D01*
X113761905Y-98550057D02*
X113714286Y-98645295D01*
X113714286Y-98645295D02*
X113714286Y-98883390D01*
X113714286Y-98883390D02*
X113761905Y-98978628D01*
X113761905Y-98978628D02*
X113809524Y-99026247D01*
X113809524Y-99026247D02*
X113904762Y-99073866D01*
X113904762Y-99073866D02*
X114095238Y-99073866D01*
X114095238Y-99073866D02*
X114190476Y-99026247D01*
X114190476Y-99026247D02*
X114238095Y-98978628D01*
X114238095Y-98978628D02*
X114285714Y-98883390D01*
X114714286Y-99454819D02*
X114714286Y-98454819D01*
X114714286Y-98454819D02*
X114952381Y-98454819D01*
X114952381Y-98454819D02*
X115095238Y-98502438D01*
X115095238Y-98502438D02*
X115190476Y-98597676D01*
X115190476Y-98597676D02*
X115238095Y-98692914D01*
X115238095Y-98692914D02*
X115285714Y-98883390D01*
X115285714Y-98883390D02*
X115285714Y-99026247D01*
X115285714Y-99026247D02*
X115238095Y-99216723D01*
X115238095Y-99216723D02*
X115190476Y-99311961D01*
X115190476Y-99311961D02*
X115095238Y-99407200D01*
X115095238Y-99407200D02*
X114952381Y-99454819D01*
X114952381Y-99454819D02*
X114714286Y-99454819D01*
X115714286Y-99454819D02*
X115714286Y-98454819D01*
X115714286Y-98454819D02*
X116047619Y-99169104D01*
X116047619Y-99169104D02*
X116380952Y-98454819D01*
X116380952Y-98454819D02*
X116380952Y-99454819D01*
X116857143Y-99073866D02*
X117619048Y-99073866D01*
X117952381Y-98454819D02*
X118523809Y-98454819D01*
X118238095Y-99454819D02*
X118238095Y-98454819D01*
X118761905Y-98454819D02*
X119380952Y-98454819D01*
X119380952Y-98454819D02*
X119047619Y-98835771D01*
X119047619Y-98835771D02*
X119190476Y-98835771D01*
X119190476Y-98835771D02*
X119285714Y-98883390D01*
X119285714Y-98883390D02*
X119333333Y-98931009D01*
X119333333Y-98931009D02*
X119380952Y-99026247D01*
X119380952Y-99026247D02*
X119380952Y-99264342D01*
X119380952Y-99264342D02*
X119333333Y-99359580D01*
X119333333Y-99359580D02*
X119285714Y-99407200D01*
X119285714Y-99407200D02*
X119190476Y-99454819D01*
X119190476Y-99454819D02*
X118904762Y-99454819D01*
X118904762Y-99454819D02*
X118809524Y-99407200D01*
X118809524Y-99407200D02*
X118761905Y-99359580D01*
X120476190Y-99550057D02*
X120380952Y-99502438D01*
X120380952Y-99502438D02*
X120285714Y-99407200D01*
X120285714Y-99407200D02*
X120142857Y-99264342D01*
X120142857Y-99264342D02*
X120047619Y-99216723D01*
X120047619Y-99216723D02*
X119952381Y-99216723D01*
X120000000Y-99454819D02*
X119904762Y-99407200D01*
X119904762Y-99407200D02*
X119809524Y-99311961D01*
X119809524Y-99311961D02*
X119761905Y-99121485D01*
X119761905Y-99121485D02*
X119761905Y-98788152D01*
X119761905Y-98788152D02*
X119809524Y-98597676D01*
X119809524Y-98597676D02*
X119904762Y-98502438D01*
X119904762Y-98502438D02*
X120000000Y-98454819D01*
X120000000Y-98454819D02*
X120190476Y-98454819D01*
X120190476Y-98454819D02*
X120285714Y-98502438D01*
X120285714Y-98502438D02*
X120380952Y-98597676D01*
X120380952Y-98597676D02*
X120428571Y-98788152D01*
X120428571Y-98788152D02*
X120428571Y-99121485D01*
X120428571Y-99121485D02*
X120380952Y-99311961D01*
X120380952Y-99311961D02*
X120285714Y-99407200D01*
X120285714Y-99407200D02*
X120190476Y-99454819D01*
X120190476Y-99454819D02*
X120000000Y-99454819D01*
X120857143Y-98454819D02*
X120857143Y-99264342D01*
X120857143Y-99264342D02*
X120904762Y-99359580D01*
X120904762Y-99359580D02*
X120952381Y-99407200D01*
X120952381Y-99407200D02*
X121047619Y-99454819D01*
X121047619Y-99454819D02*
X121238095Y-99454819D01*
X121238095Y-99454819D02*
X121333333Y-99407200D01*
X121333333Y-99407200D02*
X121380952Y-99359580D01*
X121380952Y-99359580D02*
X121428571Y-99264342D01*
X121428571Y-99264342D02*
X121428571Y-98454819D01*
X122428571Y-99454819D02*
X121857143Y-99454819D01*
X122142857Y-99454819D02*
X122142857Y-98454819D01*
X122142857Y-98454819D02*
X122047619Y-98597676D01*
X122047619Y-98597676D02*
X121952381Y-98692914D01*
X121952381Y-98692914D02*
X121857143Y-98740533D01*
X106833333Y-103359580D02*
X106785714Y-103407200D01*
X106785714Y-103407200D02*
X106642857Y-103454819D01*
X106642857Y-103454819D02*
X106547619Y-103454819D01*
X106547619Y-103454819D02*
X106404762Y-103407200D01*
X106404762Y-103407200D02*
X106309524Y-103311961D01*
X106309524Y-103311961D02*
X106261905Y-103216723D01*
X106261905Y-103216723D02*
X106214286Y-103026247D01*
X106214286Y-103026247D02*
X106214286Y-102883390D01*
X106214286Y-102883390D02*
X106261905Y-102692914D01*
X106261905Y-102692914D02*
X106309524Y-102597676D01*
X106309524Y-102597676D02*
X106404762Y-102502438D01*
X106404762Y-102502438D02*
X106547619Y-102454819D01*
X106547619Y-102454819D02*
X106642857Y-102454819D01*
X106642857Y-102454819D02*
X106785714Y-102502438D01*
X106785714Y-102502438D02*
X106833333Y-102550057D01*
X107738095Y-102454819D02*
X107261905Y-102454819D01*
X107261905Y-102454819D02*
X107214286Y-102931009D01*
X107214286Y-102931009D02*
X107261905Y-102883390D01*
X107261905Y-102883390D02*
X107357143Y-102835771D01*
X107357143Y-102835771D02*
X107595238Y-102835771D01*
X107595238Y-102835771D02*
X107690476Y-102883390D01*
X107690476Y-102883390D02*
X107738095Y-102931009D01*
X107738095Y-102931009D02*
X107785714Y-103026247D01*
X107785714Y-103026247D02*
X107785714Y-103264342D01*
X107785714Y-103264342D02*
X107738095Y-103359580D01*
X107738095Y-103359580D02*
X107690476Y-103407200D01*
X107690476Y-103407200D02*
X107595238Y-103454819D01*
X107595238Y-103454819D02*
X107357143Y-103454819D01*
X107357143Y-103454819D02*
X107261905Y-103407200D01*
X107261905Y-103407200D02*
X107214286Y-103359580D01*
X103357142Y-110859580D02*
X103309523Y-110907200D01*
X103309523Y-110907200D02*
X103166666Y-110954819D01*
X103166666Y-110954819D02*
X103071428Y-110954819D01*
X103071428Y-110954819D02*
X102928571Y-110907200D01*
X102928571Y-110907200D02*
X102833333Y-110811961D01*
X102833333Y-110811961D02*
X102785714Y-110716723D01*
X102785714Y-110716723D02*
X102738095Y-110526247D01*
X102738095Y-110526247D02*
X102738095Y-110383390D01*
X102738095Y-110383390D02*
X102785714Y-110192914D01*
X102785714Y-110192914D02*
X102833333Y-110097676D01*
X102833333Y-110097676D02*
X102928571Y-110002438D01*
X102928571Y-110002438D02*
X103071428Y-109954819D01*
X103071428Y-109954819D02*
X103166666Y-109954819D01*
X103166666Y-109954819D02*
X103309523Y-110002438D01*
X103309523Y-110002438D02*
X103357142Y-110050057D01*
X104309523Y-110954819D02*
X103738095Y-110954819D01*
X104023809Y-110954819D02*
X104023809Y-109954819D01*
X104023809Y-109954819D02*
X103928571Y-110097676D01*
X103928571Y-110097676D02*
X103833333Y-110192914D01*
X103833333Y-110192914D02*
X103738095Y-110240533D01*
X104928571Y-109954819D02*
X105023809Y-109954819D01*
X105023809Y-109954819D02*
X105119047Y-110002438D01*
X105119047Y-110002438D02*
X105166666Y-110050057D01*
X105166666Y-110050057D02*
X105214285Y-110145295D01*
X105214285Y-110145295D02*
X105261904Y-110335771D01*
X105261904Y-110335771D02*
X105261904Y-110573866D01*
X105261904Y-110573866D02*
X105214285Y-110764342D01*
X105214285Y-110764342D02*
X105166666Y-110859580D01*
X105166666Y-110859580D02*
X105119047Y-110907200D01*
X105119047Y-110907200D02*
X105023809Y-110954819D01*
X105023809Y-110954819D02*
X104928571Y-110954819D01*
X104928571Y-110954819D02*
X104833333Y-110907200D01*
X104833333Y-110907200D02*
X104785714Y-110859580D01*
X104785714Y-110859580D02*
X104738095Y-110764342D01*
X104738095Y-110764342D02*
X104690476Y-110573866D01*
X104690476Y-110573866D02*
X104690476Y-110335771D01*
X104690476Y-110335771D02*
X104738095Y-110145295D01*
X104738095Y-110145295D02*
X104785714Y-110050057D01*
X104785714Y-110050057D02*
X104833333Y-110002438D01*
X104833333Y-110002438D02*
X104928571Y-109954819D01*
X104738095Y-112454819D02*
X104738095Y-113264342D01*
X104738095Y-113264342D02*
X104785714Y-113359580D01*
X104785714Y-113359580D02*
X104833333Y-113407200D01*
X104833333Y-113407200D02*
X104928571Y-113454819D01*
X104928571Y-113454819D02*
X105119047Y-113454819D01*
X105119047Y-113454819D02*
X105214285Y-113407200D01*
X105214285Y-113407200D02*
X105261904Y-113359580D01*
X105261904Y-113359580D02*
X105309523Y-113264342D01*
X105309523Y-113264342D02*
X105309523Y-112454819D01*
X106309523Y-113454819D02*
X105738095Y-113454819D01*
X106023809Y-113454819D02*
X106023809Y-112454819D01*
X106023809Y-112454819D02*
X105928571Y-112597676D01*
X105928571Y-112597676D02*
X105833333Y-112692914D01*
X105833333Y-112692914D02*
X105738095Y-112740533D01*
X100333333Y-118954819D02*
X99857143Y-118954819D01*
X99857143Y-118954819D02*
X99857143Y-117954819D01*
X101190476Y-118954819D02*
X100619048Y-118954819D01*
X100904762Y-118954819D02*
X100904762Y-117954819D01*
X100904762Y-117954819D02*
X100809524Y-118097676D01*
X100809524Y-118097676D02*
X100714286Y-118192914D01*
X100714286Y-118192914D02*
X100619048Y-118240533D01*
X98166666Y-114545180D02*
X98499999Y-115021371D01*
X98738094Y-114545180D02*
X98738094Y-115545180D01*
X98738094Y-115545180D02*
X98357142Y-115545180D01*
X98357142Y-115545180D02*
X98261904Y-115497561D01*
X98261904Y-115497561D02*
X98214285Y-115449942D01*
X98214285Y-115449942D02*
X98166666Y-115354704D01*
X98166666Y-115354704D02*
X98166666Y-115211847D01*
X98166666Y-115211847D02*
X98214285Y-115116609D01*
X98214285Y-115116609D02*
X98261904Y-115068990D01*
X98261904Y-115068990D02*
X98357142Y-115021371D01*
X98357142Y-115021371D02*
X98738094Y-115021371D01*
X97261904Y-115545180D02*
X97738094Y-115545180D01*
X97738094Y-115545180D02*
X97785713Y-115068990D01*
X97785713Y-115068990D02*
X97738094Y-115116609D01*
X97738094Y-115116609D02*
X97642856Y-115164228D01*
X97642856Y-115164228D02*
X97404761Y-115164228D01*
X97404761Y-115164228D02*
X97309523Y-115116609D01*
X97309523Y-115116609D02*
X97261904Y-115068990D01*
X97261904Y-115068990D02*
X97214285Y-114973752D01*
X97214285Y-114973752D02*
X97214285Y-114735657D01*
X97214285Y-114735657D02*
X97261904Y-114640419D01*
X97261904Y-114640419D02*
X97309523Y-114592800D01*
X97309523Y-114592800D02*
X97404761Y-114545180D01*
X97404761Y-114545180D02*
X97642856Y-114545180D01*
X97642856Y-114545180D02*
X97738094Y-114592800D01*
X97738094Y-114592800D02*
X97785713Y-114640419D01*
X92857142Y-108359580D02*
X92809523Y-108407200D01*
X92809523Y-108407200D02*
X92666666Y-108454819D01*
X92666666Y-108454819D02*
X92571428Y-108454819D01*
X92571428Y-108454819D02*
X92428571Y-108407200D01*
X92428571Y-108407200D02*
X92333333Y-108311961D01*
X92333333Y-108311961D02*
X92285714Y-108216723D01*
X92285714Y-108216723D02*
X92238095Y-108026247D01*
X92238095Y-108026247D02*
X92238095Y-107883390D01*
X92238095Y-107883390D02*
X92285714Y-107692914D01*
X92285714Y-107692914D02*
X92333333Y-107597676D01*
X92333333Y-107597676D02*
X92428571Y-107502438D01*
X92428571Y-107502438D02*
X92571428Y-107454819D01*
X92571428Y-107454819D02*
X92666666Y-107454819D01*
X92666666Y-107454819D02*
X92809523Y-107502438D01*
X92809523Y-107502438D02*
X92857142Y-107550057D01*
X93809523Y-108454819D02*
X93238095Y-108454819D01*
X93523809Y-108454819D02*
X93523809Y-107454819D01*
X93523809Y-107454819D02*
X93428571Y-107597676D01*
X93428571Y-107597676D02*
X93333333Y-107692914D01*
X93333333Y-107692914D02*
X93238095Y-107740533D01*
X94761904Y-108454819D02*
X94190476Y-108454819D01*
X94476190Y-108454819D02*
X94476190Y-107454819D01*
X94476190Y-107454819D02*
X94380952Y-107597676D01*
X94380952Y-107597676D02*
X94285714Y-107692914D01*
X94285714Y-107692914D02*
X94190476Y-107740533D01*
X127833333Y-101359580D02*
X127785714Y-101407200D01*
X127785714Y-101407200D02*
X127642857Y-101454819D01*
X127642857Y-101454819D02*
X127547619Y-101454819D01*
X127547619Y-101454819D02*
X127404762Y-101407200D01*
X127404762Y-101407200D02*
X127309524Y-101311961D01*
X127309524Y-101311961D02*
X127261905Y-101216723D01*
X127261905Y-101216723D02*
X127214286Y-101026247D01*
X127214286Y-101026247D02*
X127214286Y-100883390D01*
X127214286Y-100883390D02*
X127261905Y-100692914D01*
X127261905Y-100692914D02*
X127309524Y-100597676D01*
X127309524Y-100597676D02*
X127404762Y-100502438D01*
X127404762Y-100502438D02*
X127547619Y-100454819D01*
X127547619Y-100454819D02*
X127642857Y-100454819D01*
X127642857Y-100454819D02*
X127785714Y-100502438D01*
X127785714Y-100502438D02*
X127833333Y-100550057D01*
X128309524Y-101454819D02*
X128500000Y-101454819D01*
X128500000Y-101454819D02*
X128595238Y-101407200D01*
X128595238Y-101407200D02*
X128642857Y-101359580D01*
X128642857Y-101359580D02*
X128738095Y-101216723D01*
X128738095Y-101216723D02*
X128785714Y-101026247D01*
X128785714Y-101026247D02*
X128785714Y-100645295D01*
X128785714Y-100645295D02*
X128738095Y-100550057D01*
X128738095Y-100550057D02*
X128690476Y-100502438D01*
X128690476Y-100502438D02*
X128595238Y-100454819D01*
X128595238Y-100454819D02*
X128404762Y-100454819D01*
X128404762Y-100454819D02*
X128309524Y-100502438D01*
X128309524Y-100502438D02*
X128261905Y-100550057D01*
X128261905Y-100550057D02*
X128214286Y-100645295D01*
X128214286Y-100645295D02*
X128214286Y-100883390D01*
X128214286Y-100883390D02*
X128261905Y-100978628D01*
X128261905Y-100978628D02*
X128309524Y-101026247D01*
X128309524Y-101026247D02*
X128404762Y-101073866D01*
X128404762Y-101073866D02*
X128595238Y-101073866D01*
X128595238Y-101073866D02*
X128690476Y-101026247D01*
X128690476Y-101026247D02*
X128738095Y-100978628D01*
X128738095Y-100978628D02*
X128785714Y-100883390D01*
X127833333Y-106454819D02*
X127500000Y-105978628D01*
X127261905Y-106454819D02*
X127261905Y-105454819D01*
X127261905Y-105454819D02*
X127642857Y-105454819D01*
X127642857Y-105454819D02*
X127738095Y-105502438D01*
X127738095Y-105502438D02*
X127785714Y-105550057D01*
X127785714Y-105550057D02*
X127833333Y-105645295D01*
X127833333Y-105645295D02*
X127833333Y-105788152D01*
X127833333Y-105788152D02*
X127785714Y-105883390D01*
X127785714Y-105883390D02*
X127738095Y-105931009D01*
X127738095Y-105931009D02*
X127642857Y-105978628D01*
X127642857Y-105978628D02*
X127261905Y-105978628D01*
X128214286Y-105550057D02*
X128261905Y-105502438D01*
X128261905Y-105502438D02*
X128357143Y-105454819D01*
X128357143Y-105454819D02*
X128595238Y-105454819D01*
X128595238Y-105454819D02*
X128690476Y-105502438D01*
X128690476Y-105502438D02*
X128738095Y-105550057D01*
X128738095Y-105550057D02*
X128785714Y-105645295D01*
X128785714Y-105645295D02*
X128785714Y-105740533D01*
X128785714Y-105740533D02*
X128738095Y-105883390D01*
X128738095Y-105883390D02*
X128166667Y-106454819D01*
X128166667Y-106454819D02*
X128785714Y-106454819D01*
X118205520Y-89999999D02*
X118443615Y-89999999D01*
X118348377Y-90238094D02*
X118443615Y-89999999D01*
X118443615Y-89999999D02*
X118348377Y-89761904D01*
X118634091Y-90142856D02*
X118443615Y-89999999D01*
X118443615Y-89999999D02*
X118634091Y-89857142D01*
X118205520Y-89999999D02*
X118443615Y-89999999D01*
X118348377Y-90238094D02*
X118443615Y-89999999D01*
X118443615Y-89999999D02*
X118348377Y-89761904D01*
X118634091Y-90142856D02*
X118443615Y-89999999D01*
X118443615Y-89999999D02*
X118634091Y-89857142D01*
D12*
%TO.C,R1*%
X124650000Y-110650000D02*
X123310000Y-110650000D01*
X124650000Y-112350000D02*
X123310000Y-112350000D01*
%TO.C,Kailh_Switch3*%
D13*
X92100000Y-78600000D02*
X97900000Y-78600000D01*
X97900000Y-91400000D01*
X92100000Y-91400000D01*
X92100000Y-78600000D01*
D14*
%TO.C,SW3*%
X124636399Y-71387640D02*
X124636399Y-76192292D01*
X126592639Y-77124200D02*
X128935898Y-77124200D01*
X128935898Y-70875800D02*
X126585301Y-70875800D01*
X130884799Y-76612360D02*
X130884799Y-71387640D01*
D12*
%TO.C,C7*%
X103200000Y-117960000D02*
X103200000Y-119040000D01*
X104800000Y-117960000D02*
X104800000Y-119040000D01*
%TO.C,C6*%
X103700000Y-107040000D02*
X103700000Y-105960000D01*
X105300000Y-107040000D02*
X105300000Y-105960000D01*
%TO.C,C8*%
X124540000Y-102600000D02*
X123460000Y-102600000D01*
X124540000Y-104400000D02*
X123460000Y-104400000D01*
D14*
%TO.C,J1*%
X128426599Y-117077199D02*
X128426599Y-121827000D01*
X128426599Y-121827000D02*
X134573399Y-121827000D01*
X134573399Y-117077199D02*
X128426599Y-117077199D01*
X134573399Y-121827000D02*
X134573399Y-117077199D01*
D15*
X128172599Y-120000000D02*
G75*
G02*
X127410599Y-120000000I-381000J0D01*
G01*
X127410599Y-120000000D02*
G75*
G02*
X128172599Y-120000000I381000J0D01*
G01*
%TO.C,U2*%
D13*
X105000000Y-68000000D02*
X100000000Y-68000000D01*
X100000000Y-80000000D01*
X105000000Y-80000000D01*
X105000000Y-68000000D01*
%TO.C,NRF52840_ProMicro1*%
X106100000Y-50000000D02*
X106100000Y-83000000D01*
X106100000Y-50000000D02*
X123900000Y-50000000D01*
X106100000Y-83000000D02*
X123900000Y-83000000D01*
X123900000Y-50000000D02*
X123900000Y-83000000D01*
D16*
X106500000Y-52500000D02*
G75*
G02*
X105500000Y-52500000I-500000J0D01*
G01*
X105500000Y-52500000D02*
G75*
G02*
X106500000Y-52500000I500000J0D01*
G01*
D13*
%TO.C,PMW3389DM-T3QU1*%
X109500000Y-100500000D02*
X120500000Y-100500000D01*
X109500000Y-102500000D02*
X109500000Y-100500000D01*
X109500000Y-117000000D02*
X109500000Y-119500000D01*
X109500000Y-119500000D02*
X120500000Y-119500000D01*
X120500000Y-100500000D02*
X120500000Y-103000000D01*
X120500000Y-119500000D02*
X120500000Y-117500000D01*
D10*
X110000000Y-100500000D02*
G75*
G02*
X109000000Y-100500000I-500000J0D01*
G01*
X109000000Y-100500000D02*
G75*
G02*
X110000000Y-100500000I500000J0D01*
G01*
D12*
%TO.C,C5*%
X106100000Y-107040000D02*
X106100000Y-105960000D01*
X107900000Y-107040000D02*
X107900000Y-105960000D01*
%TO.C,Kailh_Switch2*%
D13*
X127100000Y-53600000D02*
X132900000Y-53600000D01*
X132900000Y-66400000D01*
X127100000Y-66400000D01*
X127100000Y-53600000D01*
D10*
%TO.C,U1*%
X101850000Y-112275000D02*
X101850000Y-112525000D01*
X101850000Y-113499999D02*
X101850000Y-113750001D01*
X104150000Y-112249999D02*
X104150000Y-112750000D01*
X104150000Y-113499999D02*
X104150000Y-113750001D01*
D14*
%TO.C,L1*%
X100207550Y-117130300D02*
X100792450Y-117130300D01*
X100792450Y-114869700D02*
X100207550Y-114869700D01*
%TO.C,Kailh_Switch1*%
D13*
X97100000Y-53600000D02*
X102900000Y-53600000D01*
X102900000Y-66400000D01*
X97100000Y-66400000D01*
X97100000Y-53600000D01*
D14*
%TO.C,R5*%
X97342350Y-113977900D02*
X98657650Y-113977900D01*
X98657650Y-112022100D02*
X97342350Y-112022100D01*
X100895600Y-113000000D02*
G75*
G02*
X100743200Y-113000000I-76200J0D01*
G01*
X100743200Y-113000000D02*
G75*
G02*
X100895600Y-113000000I76200J0D01*
G01*
D12*
%TO.C,C11*%
X98540000Y-107200000D02*
X97460000Y-107200000D01*
X98540000Y-108800000D02*
X97460000Y-108800000D01*
%TO.C,C9*%
X124540000Y-100200000D02*
X123460000Y-100200000D01*
X124540000Y-101800000D02*
X123460000Y-101800000D01*
%TO.C,Kailh_Switch4*%
D13*
X92100000Y-92100000D02*
X97900000Y-92100000D01*
X97900000Y-104900000D01*
X92100000Y-104900000D01*
X92100000Y-92100000D01*
D14*
%TO.C,SW4*%
X111865201Y-90637640D02*
X111865201Y-95862360D01*
X113814102Y-96374200D02*
X116164699Y-96374200D01*
X116157361Y-90125800D02*
X113814102Y-90125800D01*
X118113601Y-95862360D02*
X118113601Y-91057708D01*
%TD*%
M02*
