%TF.GenerationSoftware,KiCad,Pcbnew,9.0.5*%
%TF.CreationDate,2025-11-20T14:46:47-05:00*%
%TF.ProjectId,Mouse_Project,4d6f7573-655f-4507-926f-6a6563742e6b,rev?*%
%TF.SameCoordinates,Original*%
%TF.FileFunction,Copper,L1,Top*%
%TF.FilePolarity,Positive*%
%FSLAX46Y46*%
G04 Gerber Fmt 4.6, Leading zero omitted, Abs format (unit mm)*
G04 Created by KiCad (PCBNEW 9.0.5) date 2025-11-20 14:46:47*
%MOMM*%
%LPD*%
G01*
G04 APERTURE LIST*
G04 Aperture macros list*
%AMRoundRect*
0 Rectangle with rounded corners*
0 $1 Rounding radius*
0 $2 $3 $4 $5 $6 $7 $8 $9 X,Y pos of 4 corners*
0 Add a 4 corners polygon primitive as box body*
4,1,4,$2,$3,$4,$5,$6,$7,$8,$9,$2,$3,0*
0 Add four circle primitives for the rounded corners*
1,1,$1+$1,$2,$3*
1,1,$1+$1,$4,$5*
1,1,$1+$1,$6,$7*
1,1,$1+$1,$8,$9*
0 Add four rect primitives between the rounded corners*
20,1,$1+$1,$2,$3,$4,$5,0*
20,1,$1+$1,$4,$5,$6,$7,0*
20,1,$1+$1,$6,$7,$8,$9,0*
20,1,$1+$1,$8,$9,$2,$3,0*%
G04 Aperture macros list end*
%ADD10C,0.150000*%
%TA.AperFunction,NonConductor*%
%ADD11C,0.150000*%
%TD*%
%TA.AperFunction,SMDPad,CuDef*%
%ADD12R,0.970000X1.730000*%
%TD*%
%TA.AperFunction,ComponentPad*%
%ADD13O,2.600000X2.000000*%
%TD*%
%TA.AperFunction,ComponentPad*%
%ADD14R,1.500000X1.500000*%
%TD*%
%TA.AperFunction,ComponentPad*%
%ADD15C,2.000000*%
%TD*%
%TA.AperFunction,SMDPad,CuDef*%
%ADD16RoundRect,0.150000X-0.760000X0.450000X-0.760000X-0.450000X0.760000X-0.450000X0.760000X0.450000X0*%
%TD*%
%TA.AperFunction,SMDPad,CuDef*%
%ADD17RoundRect,0.150000X0.760000X-0.450000X0.760000X0.450000X-0.760000X0.450000X-0.760000X-0.450000X0*%
%TD*%
%TA.AperFunction,SMDPad,CuDef*%
%ADD18R,1.240000X1.820000*%
%TD*%
%TA.AperFunction,ComponentPad*%
%ADD19C,1.400000*%
%TD*%
%TA.AperFunction,ComponentPad*%
%ADD20O,2.000000X1.500000*%
%TD*%
%TA.AperFunction,ComponentPad*%
%ADD21O,2.400000X1.600000*%
%TD*%
%TA.AperFunction,ComponentPad*%
%ADD22C,1.524000*%
%TD*%
%TA.AperFunction,SMDPad,CuDef*%
%ADD23R,1.820000X1.240000*%
%TD*%
%TA.AperFunction,SMDPad,CuDef*%
%ADD24R,1.160000X1.470000*%
%TD*%
%TA.AperFunction,SMDPad,CuDef*%
%ADD25R,0.249999X0.549999*%
%TD*%
%TA.AperFunction,SMDPad,CuDef*%
%ADD26R,0.800000X2.006600*%
%TD*%
%TA.AperFunction,SMDPad,CuDef*%
%ADD27R,1.016000X1.701800*%
%TD*%
%TA.AperFunction,SMDPad,CuDef*%
%ADD28RoundRect,0.150000X0.450000X0.760000X-0.450000X0.760000X-0.450000X-0.760000X0.450000X-0.760000X0*%
%TD*%
%TA.AperFunction,SMDPad,CuDef*%
%ADD29R,1.016000X1.193800*%
%TD*%
%TA.AperFunction,ComponentPad*%
%ADD30R,2.000000X2.000000*%
%TD*%
%TA.AperFunction,ViaPad*%
%ADD31C,1.000000*%
%TD*%
%TA.AperFunction,ViaPad*%
%ADD32C,0.600000*%
%TD*%
%TA.AperFunction,Conductor*%
%ADD33C,0.500000*%
%TD*%
%TA.AperFunction,Conductor*%
%ADD34C,0.200000*%
%TD*%
G04 APERTURE END LIST*
D10*
D11*
X96693922Y-121369819D02*
X97027255Y-122369819D01*
X97027255Y-122369819D02*
X97360588Y-121369819D01*
X97693922Y-121988866D02*
X98455827Y-121988866D01*
X99122493Y-121369819D02*
X99217731Y-121369819D01*
X99217731Y-121369819D02*
X99312969Y-121417438D01*
X99312969Y-121417438D02*
X99360588Y-121465057D01*
X99360588Y-121465057D02*
X99408207Y-121560295D01*
X99408207Y-121560295D02*
X99455826Y-121750771D01*
X99455826Y-121750771D02*
X99455826Y-121988866D01*
X99455826Y-121988866D02*
X99408207Y-122179342D01*
X99408207Y-122179342D02*
X99360588Y-122274580D01*
X99360588Y-122274580D02*
X99312969Y-122322200D01*
X99312969Y-122322200D02*
X99217731Y-122369819D01*
X99217731Y-122369819D02*
X99122493Y-122369819D01*
X99122493Y-122369819D02*
X99027255Y-122322200D01*
X99027255Y-122322200D02*
X98979636Y-122274580D01*
X98979636Y-122274580D02*
X98932017Y-122179342D01*
X98932017Y-122179342D02*
X98884398Y-121988866D01*
X98884398Y-121988866D02*
X98884398Y-121750771D01*
X98884398Y-121750771D02*
X98932017Y-121560295D01*
X98932017Y-121560295D02*
X98979636Y-121465057D01*
X98979636Y-121465057D02*
X99027255Y-121417438D01*
X99027255Y-121417438D02*
X99122493Y-121369819D01*
X99884398Y-122274580D02*
X99932017Y-122322200D01*
X99932017Y-122322200D02*
X99884398Y-122369819D01*
X99884398Y-122369819D02*
X99836779Y-122322200D01*
X99836779Y-122322200D02*
X99884398Y-122274580D01*
X99884398Y-122274580D02*
X99884398Y-122369819D01*
X100312969Y-121465057D02*
X100360588Y-121417438D01*
X100360588Y-121417438D02*
X100455826Y-121369819D01*
X100455826Y-121369819D02*
X100693921Y-121369819D01*
X100693921Y-121369819D02*
X100789159Y-121417438D01*
X100789159Y-121417438D02*
X100836778Y-121465057D01*
X100836778Y-121465057D02*
X100884397Y-121560295D01*
X100884397Y-121560295D02*
X100884397Y-121655533D01*
X100884397Y-121655533D02*
X100836778Y-121798390D01*
X100836778Y-121798390D02*
X100265350Y-122369819D01*
X100265350Y-122369819D02*
X100884397Y-122369819D01*
D12*
%TO.P,R1,1*%
%TO.N,VDD 3.3V*%
X125460000Y-111500000D03*
%TO.P,R1,2*%
%TO.N,MISO*%
X122500000Y-111500000D03*
%TD*%
D13*
%TO.P,Kailh_Switch3,1,COM*%
%TO.N,GND*%
X95000000Y-79920000D03*
%TO.P,Kailh_Switch3,2,NO*%
%TO.N,Thumb_1*%
X95000000Y-85000000D03*
%TO.P,Kailh_Switch3,3,NC*%
%TO.N,unconnected-(Kailh_Switch3-NC-Pad3)*%
X95000000Y-90080000D03*
%TD*%
D14*
%TO.P,SW3,1,1*%
%TO.N,Scroll_Button*%
X125510599Y-77250001D03*
D15*
%TO.P,SW3,2,2*%
X125510599Y-70750000D03*
%TO.P,SW3,3,3*%
%TO.N,GND*%
X130010600Y-77250001D03*
%TO.P,SW3,4,4*%
X130010600Y-70750000D03*
%TD*%
D16*
%TO.P,C7,1*%
%TO.N,VCC 3.7V*%
X104000000Y-117040000D03*
%TO.P,C7,2*%
%TO.N,GND*%
X104000000Y-119960000D03*
%TD*%
D17*
%TO.P,C6,1*%
%TO.N,VDD 1.9V*%
X104500000Y-107960000D03*
%TO.P,C6,2*%
%TO.N,GND*%
X104500000Y-105040000D03*
%TD*%
D18*
%TO.P,C8,1*%
%TO.N,VDD 1.9V*%
X125485000Y-103500000D03*
%TO.P,C8,2*%
%TO.N,GND*%
X122515000Y-103500000D03*
%TD*%
D19*
%TO.P,J1,1,1*%
%TO.N,GND*%
X130499999Y-120000000D03*
%TO.P,J1,2,2*%
%TO.N,BATT 3.7V*%
X132500000Y-120000000D03*
%TD*%
D20*
%TO.P,U2,1,A*%
%TO.N,Encoder_A*%
X101500000Y-71500000D03*
%TO.P,U2,2,B*%
%TO.N,Encoder_B*%
X101500000Y-74000000D03*
%TO.P,U2,3,Com*%
%TO.N,GND*%
X101500000Y-76500000D03*
%TD*%
D21*
%TO.P,NRF52840_ProMicro1,1,GND*%
%TO.N,GND*%
X107350000Y-51250000D03*
%TO.P,NRF52840_ProMicro1,2,D1*%
%TO.N,unconnected-(NRF52840_ProMicro1-D1-Pad2)*%
X107350000Y-53791666D03*
%TO.P,NRF52840_ProMicro1,3,D0*%
%TO.N,Left*%
X107350000Y-56333332D03*
%TO.P,NRF52840_ProMicro1,4,GND*%
%TO.N,unconnected-(NRF52840_ProMicro1-GND-Pad4)*%
X107350000Y-58874998D03*
%TO.P,NRF52840_ProMicro1,5,GND*%
%TO.N,unconnected-(NRF52840_ProMicro1-GND-Pad5)*%
X107350000Y-61416664D03*
%TO.P,NRF52840_ProMicro1,6,D2*%
%TO.N,Thumb_1*%
X107350000Y-63958330D03*
%TO.P,NRF52840_ProMicro1,7,D3*%
%TO.N,Thumb_2*%
X107350000Y-66499996D03*
%TO.P,NRF52840_ProMicro1,8,D4*%
%TO.N,unconnected-(NRF52840_ProMicro1-D4-Pad8)*%
X107350000Y-69041662D03*
%TO.P,NRF52840_ProMicro1,9,D5*%
%TO.N,Encoder_A*%
X107350000Y-71583328D03*
%TO.P,NRF52840_ProMicro1,10,D6*%
%TO.N,Encoder_B*%
X107350000Y-74124994D03*
%TO.P,NRF52840_ProMicro1,11,D7*%
%TO.N,2.4 GHz*%
X107350000Y-76666660D03*
%TO.P,NRF52840_ProMicro1,12,D8*%
%TO.N,Bluetooth*%
X107350000Y-79208326D03*
%TO.P,NRF52840_ProMicro1,13,D9*%
%TO.N,NRESET*%
X107350000Y-81750000D03*
%TO.P,NRF52840_ProMicro1,14,D10*%
%TO.N,MISO*%
X122650000Y-81750000D03*
%TO.P,NRF52840_ProMicro1,15,D16*%
%TO.N,MOSI*%
X122650000Y-79208326D03*
%TO.P,NRF52840_ProMicro1,16,D14*%
%TO.N,SCLK*%
X122650000Y-76666660D03*
%TO.P,NRF52840_ProMicro1,17,D15*%
%TO.N,MOTION*%
X122650000Y-74124994D03*
%TO.P,NRF52840_ProMicro1,18,D18*%
%TO.N,NCS*%
X122650000Y-71583328D03*
%TO.P,NRF52840_ProMicro1,19,D19*%
%TO.N,DPI_Button*%
X122650000Y-69041662D03*
%TO.P,NRF52840_ProMicro1,20,D20*%
%TO.N,Scroll_Button*%
X122650000Y-66499996D03*
%TO.P,NRF52840_ProMicro1,21,D21*%
%TO.N,Right*%
X122650000Y-63958330D03*
%TO.P,NRF52840_ProMicro1,22,3.3V*%
%TO.N,VDD 3.3V*%
X122650000Y-61416664D03*
%TO.P,NRF52840_ProMicro1,23,Reset*%
%TO.N,unconnected-(NRF52840_ProMicro1-Reset-Pad23)*%
X122650000Y-58874998D03*
%TO.P,NRF52840_ProMicro1,24,GND*%
%TO.N,GND*%
X122650000Y-56333332D03*
%TO.P,NRF52840_ProMicro1,25,Battery+*%
%TO.N,unconnected-(NRF52840_ProMicro1-Battery+-Pad25)*%
X122650000Y-53791666D03*
%TO.P,NRF52840_ProMicro1,26,Battery+*%
%TO.N,BATT 3.7V*%
X122650000Y-51250000D03*
%TD*%
D22*
%TO.P,PMW3389DM-T3QU1,1,NC_0*%
%TO.N,unconnected-(PMW3389DM-T3QU1-NC_0-Pad1)*%
X109650000Y-103420000D03*
%TO.P,PMW3389DM-T3QU1,2,NC_1*%
%TO.N,unconnected-(PMW3389DM-T3QU1-NC_1-Pad2)*%
X109650000Y-105200000D03*
%TO.P,PMW3389DM-T3QU1,3,VDDPIX*%
%TO.N,Net-(PMW3389DM-T3QU1-VDDPIX)*%
X109650000Y-106980000D03*
%TO.P,PMW3389DM-T3QU1,4,VDD*%
%TO.N,VDD 1.9V*%
X109650000Y-108760000D03*
%TO.P,PMW3389DM-T3QU1,5,VDDIO*%
%TO.N,VDD 3.3V*%
X109650000Y-110540000D03*
%TO.P,PMW3389DM-T3QU1,6,GPO*%
%TO.N,unconnected-(PMW3389DM-T3QU1-GPO-Pad6)*%
X109650000Y-112320000D03*
%TO.P,PMW3389DM-T3QU1,7,NRESET*%
%TO.N,NRESET*%
X109650000Y-114100000D03*
%TO.P,PMW3389DM-T3QU1,8,GND*%
%TO.N,GND*%
X109650000Y-115880000D03*
%TO.P,PMW3389DM-T3QU1,9,MOTION*%
%TO.N,MOTION*%
X120350000Y-116770000D03*
%TO.P,PMW3389DM-T3QU1,10,SCLK*%
%TO.N,SCLK*%
X120350000Y-114990000D03*
%TO.P,PMW3389DM-T3QU1,11,MOSI*%
%TO.N,MOSI*%
X120350000Y-113210000D03*
%TO.P,PMW3389DM-T3QU1,12,MISO*%
%TO.N,MISO*%
X120350000Y-111430000D03*
%TO.P,PMW3389DM-T3QU1,13,NCS*%
%TO.N,NCS*%
X120350000Y-109650000D03*
%TO.P,PMW3389DM-T3QU1,14,NC_3*%
%TO.N,unconnected-(PMW3389DM-T3QU1-NC_3-Pad14)*%
X120350000Y-107870000D03*
%TO.P,PMW3389DM-T3QU1,15,LED1_P*%
%TO.N,Net-(PMW3389DM-T3QU1-LED1_P)*%
X120350000Y-106090000D03*
%TO.P,PMW3389DM-T3QU1,16,NC*%
%TO.N,unconnected-(PMW3389DM-T3QU1-NC-Pad16)*%
X120350000Y-104310000D03*
%TD*%
D23*
%TO.P,C5,1*%
%TO.N,VDD 1.9V*%
X107000000Y-107985000D03*
%TO.P,C5,2*%
%TO.N,GND*%
X107000000Y-105015000D03*
%TD*%
D24*
%TO.P,C10,1*%
%TO.N,VDD 1.9V*%
X99625000Y-110500000D03*
%TO.P,C10,2*%
%TO.N,Net-(U1-FB)*%
X101375000Y-110500000D03*
%TD*%
D13*
%TO.P,Kailh_Switch2,1,COM*%
%TO.N,GND*%
X130000000Y-54920000D03*
%TO.P,Kailh_Switch2,2,NO*%
%TO.N,Right*%
X130000000Y-60000000D03*
%TO.P,Kailh_Switch2,3,NC*%
%TO.N,unconnected-(Kailh_Switch2-NC-Pad3)*%
X130000000Y-65080000D03*
%TD*%
D25*
%TO.P,U1,1,EN*%
%TO.N,VCC 3.7V*%
X103750001Y-112325000D03*
%TO.P,U1,2,FB*%
%TO.N,Net-(U1-FB)*%
X103250002Y-112325000D03*
%TO.P,U1,3,AGND*%
%TO.N,GND*%
X102750000Y-112325000D03*
%TO.P,U1,4,NC*%
%TO.N,unconnected-(U1-NC-Pad4)*%
X102250002Y-112325000D03*
%TO.P,U1,5,PGND*%
%TO.N,GND*%
X102250002Y-113675000D03*
%TO.P,U1,6,SW*%
%TO.N,Net-(U1-SW)*%
X102750000Y-113675000D03*
%TO.P,U1,7,VIN*%
%TO.N,VCC 3.7V*%
X103250002Y-113675000D03*
%TO.P,U1,8,PG*%
%TO.N,unconnected-(U1-PG-Pad8)*%
X103750001Y-113675000D03*
%TD*%
D26*
%TO.P,L1,1,1*%
%TO.N,Net-(U1-SW)*%
X101500000Y-116000000D03*
%TO.P,L1,2,2*%
%TO.N,VDD 1.9V*%
X99500000Y-116000000D03*
%TD*%
D13*
%TO.P,Kailh_Switch1,1,COM*%
%TO.N,GND*%
X100000000Y-54920000D03*
%TO.P,Kailh_Switch1,2,NO*%
%TO.N,Left*%
X100000000Y-60000000D03*
%TO.P,Kailh_Switch1,3,NC*%
%TO.N,unconnected-(Kailh_Switch1-NC-Pad3)*%
X100000000Y-65080000D03*
%TD*%
D27*
%TO.P,R5,1*%
%TO.N,VDD 1.9V*%
X99473200Y-113000000D03*
%TO.P,R5,2*%
%TO.N,GND*%
X96526800Y-113000000D03*
%TD*%
D28*
%TO.P,C11,1*%
%TO.N,VDD 1.9V*%
X99460000Y-108000000D03*
%TO.P,C11,2*%
%TO.N,GND*%
X96540000Y-108000000D03*
%TD*%
%TO.P,C9,1*%
%TO.N,VDD 1.9V*%
X125460000Y-101000000D03*
%TO.P,C9,2*%
%TO.N,GND*%
X122540000Y-101000000D03*
%TD*%
D13*
%TO.P,Kailh_Switch4,1,COM*%
%TO.N,GND*%
X95000000Y-93420000D03*
%TO.P,Kailh_Switch4,2,NO*%
%TO.N,Thumb_2*%
X95000000Y-98500000D03*
%TO.P,Kailh_Switch4,3,NC*%
%TO.N,unconnected-(Kailh_Switch4-NC-Pad3)*%
X95000000Y-103580000D03*
%TD*%
D29*
%TO.P,R2,1*%
%TO.N,VDD 1.9V*%
X125350900Y-106000000D03*
%TO.P,R2,2*%
%TO.N,Net-(PMW3389DM-T3QU1-LED1_P)*%
X123649100Y-106000000D03*
%TD*%
D30*
%TO.P,SW4,1,1*%
%TO.N,DPI_Button*%
X117239401Y-89999999D03*
D15*
%TO.P,SW4,2,2*%
X117239401Y-96500000D03*
%TO.P,SW4,3,3*%
%TO.N,GND*%
X112739400Y-89999999D03*
%TO.P,SW4,4,4*%
X112739400Y-96500000D03*
%TD*%
%TO.P,SW2,1,1*%
%TO.N,2.4 GHz*%
X134500000Y-107500000D03*
%TO.P,SW2,2,2*%
%TO.N,GND*%
X132000000Y-107500000D03*
%TO.P,SW2,3,3*%
%TO.N,Bluetooth*%
X129500000Y-107500000D03*
%TD*%
%TO.P,SW1,1,1*%
%TO.N,BATT 3.7V*%
X134500000Y-112500000D03*
%TO.P,SW1,2,2*%
%TO.N,VCC 3.7V*%
X132000000Y-112500000D03*
%TO.P,SW1,3,3*%
%TO.N,unconnected-(SW1-Pad3)*%
X129500000Y-112500000D03*
%TD*%
D31*
%TO.N,GND*%
X94500000Y-110500000D03*
X106000000Y-101500000D03*
X120500000Y-100500000D03*
D32*
X101000000Y-114000000D03*
%TD*%
D33*
%TO.N,VCC 3.7V*%
X132000000Y-112500000D02*
X123000000Y-121500000D01*
D34*
X104000000Y-117040000D02*
X103250002Y-116290002D01*
X103250002Y-113180998D02*
X103750001Y-112680999D01*
X103750001Y-112680999D02*
X103750001Y-112325000D01*
D33*
X108460000Y-121500000D02*
X104000000Y-117040000D01*
X123000000Y-121500000D02*
X108460000Y-121500000D01*
D34*
X103250002Y-113675000D02*
X103250002Y-113180998D01*
X103250002Y-116290002D02*
X103250002Y-113675000D01*
%TO.N,Net-(U1-FB)*%
X103250002Y-112325000D02*
X103250002Y-111359503D01*
X102390499Y-110500000D02*
X101375000Y-110500000D01*
X103250002Y-111359503D02*
X102390499Y-110500000D01*
%TO.N,GND*%
X102250002Y-113675000D02*
X102250002Y-113249998D01*
X101000000Y-114000000D02*
X101925002Y-114000000D01*
X102750000Y-112750000D02*
X102750000Y-112325000D01*
X101925002Y-114000000D02*
X102250002Y-113675000D01*
X102250002Y-113249998D02*
X102750000Y-112750000D01*
D33*
%TO.N,MISO*%
X122430000Y-111430000D02*
X122500000Y-111500000D01*
X120350000Y-111430000D02*
X122430000Y-111430000D01*
%TO.N,Net-(PMW3389DM-T3QU1-LED1_P)*%
X120440000Y-106000000D02*
X120350000Y-106090000D01*
X123649100Y-106000000D02*
X120440000Y-106000000D01*
%TO.N,VDD 3.3V*%
X108000000Y-118000000D02*
X108000000Y-111845000D01*
X125460000Y-111500000D02*
X125460000Y-114540000D01*
X120000000Y-120000000D02*
X110000000Y-120000000D01*
X109305000Y-110540000D02*
X109650000Y-110540000D01*
X125460000Y-114540000D02*
X120000000Y-120000000D01*
X110000000Y-120000000D02*
X108000000Y-118000000D01*
X108000000Y-111845000D02*
X109305000Y-110540000D01*
%TO.N,VDD 1.9V*%
X125460000Y-99960000D02*
X125460000Y-101000000D01*
X107775000Y-108760000D02*
X107000000Y-107985000D01*
X99473200Y-110651800D02*
X99625000Y-110500000D01*
X99500000Y-116000000D02*
X99500000Y-113026800D01*
X99625000Y-110500000D02*
X99625000Y-108165000D01*
X99473200Y-113000000D02*
X99473200Y-110651800D01*
X125485000Y-105865900D02*
X125350900Y-106000000D01*
X99500000Y-107960000D02*
X99460000Y-108000000D01*
X104500000Y-107960000D02*
X99500000Y-107960000D01*
X107000000Y-107985000D02*
X104525000Y-107985000D01*
X105500000Y-98500000D02*
X124000000Y-98500000D01*
X99625000Y-108165000D02*
X99460000Y-108000000D01*
X99500000Y-113026800D02*
X99473200Y-113000000D01*
X125460000Y-101000000D02*
X125460000Y-103475000D01*
X125485000Y-103500000D02*
X125485000Y-105865900D01*
X99460000Y-108000000D02*
X99460000Y-104540000D01*
X104525000Y-107985000D02*
X104500000Y-107960000D01*
X99460000Y-104540000D02*
X105500000Y-98500000D01*
X125460000Y-103475000D02*
X125485000Y-103500000D01*
X124000000Y-98500000D02*
X125460000Y-99960000D01*
X109650000Y-108760000D02*
X107775000Y-108760000D01*
D34*
%TO.N,Net-(U1-SW)*%
X101500000Y-116000000D02*
X102750000Y-114750000D01*
X102750000Y-114750000D02*
X102750000Y-113675000D01*
D33*
%TO.N,BATT 3.7V*%
X134500000Y-118000000D02*
X134500000Y-112500000D01*
X132500000Y-120000000D02*
X134500000Y-118000000D01*
%TO.N,Left*%
X103666668Y-56333332D02*
X107350000Y-56333332D01*
X100000000Y-60000000D02*
X103666668Y-56333332D01*
%TO.N,Right*%
X126041670Y-63958330D02*
X122650000Y-63958330D01*
X130000000Y-60000000D02*
X126041670Y-63958330D01*
%TO.N,Thumb_1*%
X98500000Y-71000000D02*
X105541670Y-63958330D01*
X98500000Y-81500000D02*
X98500000Y-71000000D01*
X105541670Y-63958330D02*
X107350000Y-63958330D01*
X95000000Y-85000000D02*
X98500000Y-81500000D01*
%TO.N,Scroll_Button*%
X123999996Y-66499996D02*
X122650000Y-66499996D01*
X125510599Y-70750000D02*
X125510599Y-68010599D01*
X125510599Y-68010599D02*
X123999996Y-66499996D01*
X125510599Y-70750000D02*
X125510599Y-77250001D01*
%TO.N,DPI_Button*%
X117239401Y-89999999D02*
X120750000Y-86489400D01*
X120750000Y-70941662D02*
X122650000Y-69041662D01*
X120750000Y-86489400D02*
X120750000Y-70941662D01*
%TO.N,Encoder_A*%
X101500000Y-71500000D02*
X107266672Y-71500000D01*
X107266672Y-71500000D02*
X107350000Y-71583328D01*
%TO.N,Encoder_B*%
X107225006Y-74000000D02*
X107350000Y-74124994D01*
X101500000Y-74000000D02*
X107225006Y-74000000D01*
%TO.N,2.4 GHz*%
X109250000Y-78566660D02*
X109250000Y-89000000D01*
X124500000Y-93000000D02*
X134500000Y-103000000D01*
X109250000Y-89000000D02*
X113250000Y-93000000D01*
X134500000Y-103000000D02*
X134500000Y-107500000D01*
X113250000Y-93000000D02*
X124500000Y-93000000D01*
X107350000Y-76666660D02*
X109250000Y-78566660D01*
%TO.N,Bluetooth*%
X124000000Y-94500000D02*
X129500000Y-100000000D01*
X129500000Y-100000000D02*
X129500000Y-107500000D01*
X106570837Y-79208326D02*
X105000000Y-80779163D01*
X112750000Y-94500000D02*
X124000000Y-94500000D01*
X107350000Y-79208326D02*
X106570837Y-79208326D01*
X105000000Y-80779163D02*
X105000000Y-86750000D01*
X105000000Y-86750000D02*
X112750000Y-94500000D01*
%TD*%
%TA.AperFunction,Conductor*%
%TO.N,GND*%
G36*
X105737554Y-50520185D02*
G01*
X105783309Y-50572989D01*
X105793253Y-50642147D01*
X105781000Y-50680794D01*
X105745245Y-50750967D01*
X105682009Y-50945586D01*
X105673391Y-51000000D01*
X106916988Y-51000000D01*
X106884075Y-51057007D01*
X106850000Y-51184174D01*
X106850000Y-51315826D01*
X106884075Y-51442993D01*
X106916988Y-51500000D01*
X105673391Y-51500000D01*
X105682009Y-51554413D01*
X105745244Y-51749029D01*
X105838140Y-51931349D01*
X105958417Y-52096894D01*
X105958417Y-52096895D01*
X106103104Y-52241582D01*
X106268652Y-52361861D01*
X106363263Y-52410067D01*
X106414060Y-52458041D01*
X106430855Y-52525862D01*
X106408318Y-52591997D01*
X106363265Y-52631036D01*
X106268388Y-52679379D01*
X106102786Y-52799694D01*
X105958028Y-52944452D01*
X105837715Y-53110052D01*
X105744781Y-53292442D01*
X105681522Y-53487131D01*
X105649500Y-53689314D01*
X105649500Y-53894017D01*
X105681522Y-54096200D01*
X105744781Y-54290889D01*
X105837715Y-54473279D01*
X105958028Y-54638879D01*
X106102786Y-54783637D01*
X106257749Y-54896222D01*
X106268390Y-54903953D01*
X106332778Y-54936760D01*
X106362714Y-54952014D01*
X106413510Y-54999989D01*
X106430305Y-55067810D01*
X106407767Y-55133945D01*
X106362714Y-55172984D01*
X106268386Y-55221047D01*
X106102786Y-55341360D01*
X105958028Y-55486118D01*
X105837715Y-55651718D01*
X105744781Y-55834108D01*
X105733071Y-55870151D01*
X105693633Y-55927826D01*
X105629274Y-55955024D01*
X105615140Y-55955832D01*
X103616969Y-55955832D01*
X103520958Y-55981558D01*
X103520951Y-55981561D01*
X103434884Y-56031251D01*
X103434876Y-56031257D01*
X100915164Y-58550969D01*
X100853841Y-58584454D01*
X100789165Y-58581219D01*
X100651369Y-58536447D01*
X100418097Y-58499500D01*
X100418092Y-58499500D01*
X99581908Y-58499500D01*
X99581903Y-58499500D01*
X99348631Y-58536446D01*
X99124003Y-58609433D01*
X98913566Y-58716657D01*
X98804550Y-58795862D01*
X98722490Y-58855483D01*
X98722488Y-58855485D01*
X98722487Y-58855485D01*
X98555485Y-59022487D01*
X98555485Y-59022488D01*
X98555483Y-59022490D01*
X98527349Y-59061213D01*
X98416657Y-59213566D01*
X98309433Y-59424003D01*
X98236446Y-59648631D01*
X98199500Y-59881902D01*
X98199500Y-60118097D01*
X98236446Y-60351368D01*
X98309433Y-60575996D01*
X98383609Y-60721573D01*
X98416657Y-60786433D01*
X98555483Y-60977510D01*
X98722490Y-61144517D01*
X98913567Y-61283343D01*
X98974347Y-61314312D01*
X99124003Y-61390566D01*
X99124005Y-61390566D01*
X99124008Y-61390568D01*
X99244412Y-61429689D01*
X99348631Y-61463553D01*
X99581903Y-61500500D01*
X99581908Y-61500500D01*
X100418097Y-61500500D01*
X100651368Y-61463553D01*
X100696068Y-61449029D01*
X100875992Y-61390568D01*
X101086433Y-61283343D01*
X101277510Y-61144517D01*
X101444517Y-60977510D01*
X101583343Y-60786433D01*
X101690568Y-60575992D01*
X101763553Y-60351368D01*
X101785715Y-60211444D01*
X101800500Y-60118097D01*
X101800500Y-59881902D01*
X101763553Y-59648631D01*
X101690566Y-59424003D01*
X101651666Y-59347659D01*
X101583343Y-59213567D01*
X101579527Y-59208315D01*
X101534901Y-59146891D01*
X101511421Y-59081085D01*
X101527247Y-59013031D01*
X101547534Y-58986329D01*
X103786715Y-56747151D01*
X103848038Y-56713666D01*
X103874396Y-56710832D01*
X105615140Y-56710832D01*
X105682179Y-56730517D01*
X105727934Y-56783321D01*
X105733068Y-56796505D01*
X105740311Y-56818798D01*
X105744781Y-56832555D01*
X105837715Y-57014945D01*
X105958028Y-57180545D01*
X106102786Y-57325303D01*
X106257749Y-57437888D01*
X106268390Y-57445619D01*
X106332778Y-57478426D01*
X106362714Y-57493680D01*
X106413510Y-57541655D01*
X106430305Y-57609476D01*
X106407767Y-57675611D01*
X106362714Y-57714650D01*
X106268386Y-57762713D01*
X106102786Y-57883026D01*
X105958028Y-58027784D01*
X105837715Y-58193384D01*
X105744781Y-58375774D01*
X105681522Y-58570463D01*
X105649500Y-58772646D01*
X105649500Y-58977349D01*
X105681522Y-59179532D01*
X105744781Y-59374221D01*
X105837715Y-59556611D01*
X105958028Y-59722211D01*
X106102786Y-59866969D01*
X106257749Y-59979554D01*
X106268390Y-59987285D01*
X106332778Y-60020092D01*
X106362714Y-60035346D01*
X106413510Y-60083321D01*
X106430305Y-60151142D01*
X106407767Y-60217277D01*
X106362714Y-60256316D01*
X106268386Y-60304379D01*
X106102786Y-60424692D01*
X105958028Y-60569450D01*
X105837715Y-60735050D01*
X105744781Y-60917440D01*
X105681522Y-61112129D01*
X105649500Y-61314312D01*
X105649500Y-61519015D01*
X105681522Y-61721198D01*
X105744781Y-61915887D01*
X105837715Y-62098277D01*
X105958028Y-62263877D01*
X106102786Y-62408635D01*
X106226750Y-62498698D01*
X106268390Y-62528951D01*
X106332778Y-62561758D01*
X106362714Y-62577012D01*
X106413510Y-62624987D01*
X106430305Y-62692808D01*
X106407767Y-62758943D01*
X106362714Y-62797982D01*
X106268386Y-62846045D01*
X106102786Y-62966358D01*
X105958028Y-63111116D01*
X105837715Y-63276716D01*
X105744781Y-63459106D01*
X105733071Y-63495149D01*
X105693633Y-63552824D01*
X105629274Y-63580022D01*
X105615140Y-63580830D01*
X105491971Y-63580830D01*
X105404052Y-63604388D01*
X105395957Y-63606557D01*
X105314138Y-63653796D01*
X105309878Y-63656255D01*
X98197927Y-70768207D01*
X98197925Y-70768210D01*
X98148224Y-70854291D01*
X98144528Y-70868090D01*
X98144528Y-70868091D01*
X98122500Y-70950301D01*
X98122500Y-81292272D01*
X98102815Y-81359311D01*
X98086181Y-81379953D01*
X95915164Y-83550969D01*
X95853841Y-83584454D01*
X95789165Y-83581219D01*
X95651369Y-83536447D01*
X95418097Y-83499500D01*
X95418092Y-83499500D01*
X94581908Y-83499500D01*
X94581903Y-83499500D01*
X94348631Y-83536446D01*
X94124003Y-83609433D01*
X93913566Y-83716657D01*
X93804550Y-83795862D01*
X93722490Y-83855483D01*
X93722488Y-83855485D01*
X93722487Y-83855485D01*
X93555485Y-84022487D01*
X93555485Y-84022488D01*
X93555483Y-84022490D01*
X93527349Y-84061213D01*
X93416657Y-84213566D01*
X93309433Y-84424003D01*
X93236446Y-84648631D01*
X93199500Y-84881902D01*
X93199500Y-85118097D01*
X93236446Y-85351368D01*
X93309433Y-85575996D01*
X93416657Y-85786433D01*
X93555483Y-85977510D01*
X93722490Y-86144517D01*
X93913567Y-86283343D01*
X94011091Y-86333034D01*
X94124003Y-86390566D01*
X94124005Y-86390566D01*
X94124008Y-86390568D01*
X94244412Y-86429689D01*
X94348631Y-86463553D01*
X94581903Y-86500500D01*
X94581908Y-86500500D01*
X95418097Y-86500500D01*
X95651368Y-86463553D01*
X95875992Y-86390568D01*
X96086433Y-86283343D01*
X96277510Y-86144517D01*
X96444517Y-85977510D01*
X96583343Y-85786433D01*
X96690568Y-85575992D01*
X96763553Y-85351368D01*
X96800500Y-85118097D01*
X96800500Y-84881902D01*
X96763553Y-84648631D01*
X96690566Y-84424003D01*
X96651666Y-84347659D01*
X96583343Y-84213567D01*
X96579527Y-84208315D01*
X96534901Y-84146891D01*
X96511421Y-84081085D01*
X96527247Y-84013031D01*
X96547534Y-83986329D01*
X98802075Y-81731791D01*
X98848454Y-81651459D01*
X98851774Y-81645709D01*
X98877500Y-81549699D01*
X98877500Y-71207727D01*
X98897185Y-71140688D01*
X98913819Y-71120046D01*
X100348337Y-69685528D01*
X101804671Y-68229193D01*
X101865992Y-68195710D01*
X101935684Y-68200694D01*
X101991617Y-68242566D01*
X102016034Y-68308030D01*
X102001182Y-68376303D01*
X101999738Y-68378875D01*
X101983608Y-68406811D01*
X101949500Y-68534108D01*
X101949500Y-70125500D01*
X101929815Y-70192539D01*
X101877011Y-70238294D01*
X101825500Y-70249500D01*
X101151578Y-70249500D01*
X100957173Y-70280290D01*
X100769970Y-70341117D01*
X100594594Y-70430476D01*
X100527669Y-70479101D01*
X100435354Y-70546172D01*
X100435352Y-70546174D01*
X100435351Y-70546174D01*
X100296174Y-70685351D01*
X100296174Y-70685352D01*
X100296172Y-70685354D01*
X100249204Y-70749999D01*
X100180476Y-70844594D01*
X100091117Y-71019970D01*
X100030290Y-71207173D01*
X99999500Y-71401577D01*
X99999500Y-71598422D01*
X100030290Y-71792826D01*
X100091117Y-71980029D01*
X100143353Y-72082547D01*
X100180476Y-72155405D01*
X100296172Y-72314646D01*
X100435354Y-72453828D01*
X100594595Y-72569524D01*
X100653181Y-72599375D01*
X100731960Y-72639515D01*
X100782756Y-72687490D01*
X100799551Y-72755311D01*
X100777014Y-72821446D01*
X100731960Y-72860485D01*
X100594594Y-72930476D01*
X100547564Y-72964646D01*
X100435354Y-73046172D01*
X100435352Y-73046174D01*
X100435351Y-73046174D01*
X100296174Y-73185351D01*
X100296174Y-73185352D01*
X100296172Y-73185354D01*
X100287981Y-73196628D01*
X100180476Y-73344594D01*
X100091117Y-73519970D01*
X100030290Y-73707173D01*
X99999500Y-73901577D01*
X99999500Y-74098422D01*
X100030290Y-74292826D01*
X100091117Y-74480029D01*
X100164583Y-74624213D01*
X100180476Y-74655405D01*
X100296172Y-74814646D01*
X100435354Y-74953828D01*
X100554784Y-75040600D01*
X100594596Y-75069525D01*
X100684606Y-75115387D01*
X100732511Y-75139795D01*
X100783307Y-75187769D01*
X100800103Y-75255590D01*
X100777566Y-75321725D01*
X100732512Y-75360765D01*
X100594856Y-75430904D01*
X100435678Y-75546555D01*
X100296555Y-75685678D01*
X100180904Y-75844856D01*
X100091581Y-76020162D01*
X100030781Y-76207283D01*
X100024016Y-76250000D01*
X101066988Y-76250000D01*
X101034075Y-76307007D01*
X101000000Y-76434174D01*
X101000000Y-76565826D01*
X101034075Y-76692993D01*
X101066988Y-76750000D01*
X100024016Y-76750000D01*
X100030781Y-76792716D01*
X100091581Y-76979837D01*
X100180904Y-77155143D01*
X100296555Y-77314321D01*
X100435678Y-77453444D01*
X100594856Y-77569095D01*
X100770164Y-77658418D01*
X100957294Y-77719221D01*
X101151618Y-77750000D01*
X101250000Y-77750000D01*
X101250000Y-76933012D01*
X101307007Y-76965925D01*
X101434174Y-77000000D01*
X101565826Y-77000000D01*
X101692993Y-76965925D01*
X101750000Y-76933012D01*
X101750000Y-77750000D01*
X101825500Y-77750000D01*
X101892539Y-77769685D01*
X101938294Y-77822489D01*
X101949500Y-77874000D01*
X101949500Y-79465891D01*
X101983608Y-79593187D01*
X101988401Y-79601488D01*
X102049500Y-79707314D01*
X102142686Y-79800500D01*
X102256814Y-79866392D01*
X102384108Y-79900500D01*
X102384110Y-79900500D01*
X104615890Y-79900500D01*
X104615892Y-79900500D01*
X104743186Y-79866392D01*
X104857314Y-79800500D01*
X104950500Y-79707314D01*
X105016392Y-79593186D01*
X105050500Y-79465892D01*
X105050500Y-77534108D01*
X105016392Y-77406814D01*
X104950500Y-77292686D01*
X104857314Y-77199500D01*
X104773069Y-77150861D01*
X104743187Y-77133608D01*
X104679539Y-77116554D01*
X104615892Y-77099500D01*
X103040209Y-77099500D01*
X102973170Y-77079815D01*
X102927415Y-77027011D01*
X102917471Y-76957853D01*
X102922278Y-76937181D01*
X102969218Y-76792716D01*
X102975984Y-76750000D01*
X101933012Y-76750000D01*
X101965925Y-76692993D01*
X102000000Y-76565826D01*
X102000000Y-76434174D01*
X101965925Y-76307007D01*
X101933012Y-76250000D01*
X102975984Y-76250000D01*
X102969218Y-76207283D01*
X102908418Y-76020162D01*
X102819095Y-75844856D01*
X102703444Y-75685678D01*
X102564321Y-75546555D01*
X102405143Y-75430904D01*
X102267487Y-75360765D01*
X102216691Y-75312791D01*
X102199896Y-75244970D01*
X102222433Y-75178835D01*
X102267485Y-75139796D01*
X102405405Y-75069524D01*
X102564646Y-74953828D01*
X102703828Y-74814646D01*
X102819524Y-74655405D01*
X102908884Y-74480025D01*
X102914358Y-74463177D01*
X102953797Y-74405504D01*
X103018157Y-74378308D01*
X103032288Y-74377500D01*
X105574527Y-74377500D01*
X105641566Y-74397185D01*
X105687321Y-74449989D01*
X105692457Y-74463179D01*
X105697931Y-74480028D01*
X105744781Y-74624215D01*
X105837715Y-74806607D01*
X105958028Y-74972207D01*
X106102786Y-75116965D01*
X106244204Y-75219709D01*
X106268390Y-75237281D01*
X106332778Y-75270088D01*
X106362714Y-75285342D01*
X106413510Y-75333317D01*
X106430305Y-75401138D01*
X106407767Y-75467273D01*
X106362714Y-75506312D01*
X106268386Y-75554375D01*
X106102786Y-75674688D01*
X105958028Y-75819446D01*
X105837715Y-75985046D01*
X105744781Y-76167436D01*
X105681522Y-76362125D01*
X105649500Y-76564308D01*
X105649500Y-76769011D01*
X105681522Y-76971194D01*
X105744781Y-77165883D01*
X105787642Y-77250000D01*
X105809391Y-77292686D01*
X105837715Y-77348273D01*
X105958028Y-77513873D01*
X106102786Y-77658631D01*
X106255642Y-77769685D01*
X106268390Y-77778947D01*
X106332778Y-77811754D01*
X106362714Y-77827008D01*
X106413510Y-77874983D01*
X106430305Y-77942804D01*
X106407767Y-78008939D01*
X106362714Y-78047978D01*
X106268386Y-78096041D01*
X106102786Y-78216354D01*
X105958028Y-78361112D01*
X105837715Y-78526712D01*
X105744781Y-78709102D01*
X105681522Y-78903791D01*
X105649500Y-79105974D01*
X105649500Y-79310677D01*
X105678600Y-79494409D01*
X105669645Y-79563703D01*
X105643808Y-79601488D01*
X104697927Y-80547370D01*
X104697925Y-80547373D01*
X104648225Y-80633454D01*
X104648225Y-80633457D01*
X104622500Y-80729464D01*
X104622500Y-86700301D01*
X104622500Y-86799699D01*
X104648226Y-86895710D01*
X104697925Y-86981790D01*
X104697927Y-86981792D01*
X112518213Y-94802078D01*
X112520694Y-94803982D01*
X112522254Y-94806119D01*
X112523957Y-94807822D01*
X112523691Y-94808087D01*
X112561894Y-94860412D01*
X112566044Y-94930158D01*
X112531828Y-94991077D01*
X112470109Y-95023826D01*
X112464600Y-95024826D01*
X112388152Y-95036934D01*
X112163597Y-95109897D01*
X111953230Y-95217084D01*
X111870294Y-95277340D01*
X112613828Y-96020874D01*
X112548221Y-96038454D01*
X112435279Y-96103661D01*
X112343061Y-96195879D01*
X112277854Y-96308821D01*
X112260274Y-96374428D01*
X111516740Y-95630894D01*
X111456484Y-95713830D01*
X111349297Y-95924197D01*
X111276334Y-96148752D01*
X111239400Y-96381947D01*
X111239400Y-96618052D01*
X111276334Y-96851247D01*
X111349297Y-97075802D01*
X111456487Y-97286174D01*
X111516738Y-97369104D01*
X111516740Y-97369105D01*
X112260274Y-96625571D01*
X112277854Y-96691179D01*
X112343061Y-96804121D01*
X112435279Y-96896339D01*
X112548221Y-96961546D01*
X112613828Y-96979125D01*
X111870293Y-97722658D01*
X111953228Y-97782914D01*
X112159500Y-97888015D01*
X112210296Y-97935989D01*
X112227091Y-98003810D01*
X112204554Y-98069945D01*
X112149839Y-98113397D01*
X112103205Y-98122500D01*
X105450301Y-98122500D01*
X105354289Y-98148226D01*
X105268210Y-98197925D01*
X105268207Y-98197927D01*
X99157927Y-104308207D01*
X99157925Y-104308210D01*
X99108225Y-104394291D01*
X99108225Y-104394294D01*
X99082500Y-104490301D01*
X99082500Y-106465500D01*
X99062815Y-106532539D01*
X99010011Y-106578294D01*
X98958500Y-106589500D01*
X98944298Y-106589500D01*
X98907432Y-106592401D01*
X98907426Y-106592402D01*
X98749606Y-106638254D01*
X98749603Y-106638255D01*
X98608137Y-106721917D01*
X98608129Y-106721923D01*
X98491923Y-106838129D01*
X98491917Y-106838137D01*
X98408255Y-106979603D01*
X98408254Y-106979606D01*
X98362402Y-107137426D01*
X98362401Y-107137432D01*
X98359500Y-107174298D01*
X98359500Y-108825701D01*
X98362401Y-108862567D01*
X98362402Y-108862573D01*
X98408254Y-109020393D01*
X98408255Y-109020396D01*
X98408256Y-109020398D01*
X98425051Y-109048797D01*
X98491917Y-109161862D01*
X98491923Y-109161870D01*
X98608129Y-109278076D01*
X98608135Y-109278081D01*
X98611242Y-109279919D01*
X98613181Y-109281995D01*
X98614298Y-109282861D01*
X98614158Y-109283041D01*
X98658929Y-109330984D01*
X98671437Y-109399725D01*
X98647395Y-109460964D01*
X98601206Y-109522665D01*
X98601202Y-109522671D01*
X98550908Y-109657517D01*
X98545161Y-109710975D01*
X98544501Y-109717123D01*
X98544500Y-109717135D01*
X98544500Y-111282870D01*
X98544501Y-111282876D01*
X98550908Y-111342483D01*
X98601202Y-111477328D01*
X98601203Y-111477330D01*
X98635008Y-111522487D01*
X98672272Y-111572266D01*
X98679957Y-111582531D01*
X98704374Y-111647995D01*
X98689523Y-111716268D01*
X98655003Y-111756107D01*
X98607654Y-111791553D01*
X98607652Y-111791555D01*
X98521406Y-111906764D01*
X98521402Y-111906771D01*
X98471110Y-112041613D01*
X98471109Y-112041617D01*
X98465997Y-112089158D01*
X98439261Y-112153706D01*
X98381868Y-112193554D01*
X98342709Y-112199900D01*
X97656787Y-112199900D01*
X97589748Y-112180215D01*
X97543993Y-112127411D01*
X97533498Y-112089156D01*
X97528398Y-112041727D01*
X97528396Y-112041720D01*
X97478154Y-111907013D01*
X97478150Y-111907006D01*
X97391990Y-111791912D01*
X97391987Y-111791909D01*
X97276893Y-111705749D01*
X97276886Y-111705745D01*
X97142179Y-111655503D01*
X97142172Y-111655501D01*
X97082644Y-111649100D01*
X96776800Y-111649100D01*
X96776800Y-114350900D01*
X97082628Y-114350900D01*
X97082644Y-114350899D01*
X97142172Y-114344498D01*
X97142179Y-114344496D01*
X97276886Y-114294254D01*
X97276893Y-114294250D01*
X97391987Y-114208090D01*
X97391990Y-114208087D01*
X97478150Y-114092993D01*
X97478154Y-114092986D01*
X97528396Y-113958279D01*
X97528398Y-113958272D01*
X97533498Y-113910844D01*
X97560236Y-113846293D01*
X97617629Y-113806445D01*
X97656787Y-113800100D01*
X98342709Y-113800100D01*
X98409748Y-113819785D01*
X98455503Y-113872589D01*
X98465999Y-113910847D01*
X98471108Y-113958383D01*
X98521402Y-114093228D01*
X98521406Y-114093235D01*
X98607652Y-114208444D01*
X98607655Y-114208447D01*
X98722864Y-114294693D01*
X98722871Y-114294697D01*
X98830289Y-114334761D01*
X98886223Y-114376632D01*
X98910640Y-114442096D01*
X98895789Y-114510369D01*
X98861268Y-114550209D01*
X98742452Y-114639155D01*
X98656206Y-114754364D01*
X98656202Y-114754371D01*
X98605908Y-114889217D01*
X98599501Y-114948816D01*
X98599500Y-114948835D01*
X98599500Y-117051170D01*
X98599501Y-117051176D01*
X98605908Y-117110783D01*
X98656202Y-117245628D01*
X98656206Y-117245635D01*
X98742452Y-117360844D01*
X98742455Y-117360847D01*
X98857664Y-117447093D01*
X98857671Y-117447097D01*
X98992517Y-117497391D01*
X98992516Y-117497391D01*
X98999444Y-117498135D01*
X99052127Y-117503800D01*
X99947872Y-117503799D01*
X100007483Y-117497391D01*
X100142331Y-117447096D01*
X100257546Y-117360846D01*
X100343796Y-117245631D01*
X100383818Y-117138327D01*
X100425689Y-117082393D01*
X100491153Y-117057976D01*
X100559426Y-117072827D01*
X100608832Y-117122232D01*
X100616182Y-117138327D01*
X100656202Y-117245628D01*
X100656206Y-117245635D01*
X100742452Y-117360844D01*
X100742455Y-117360847D01*
X100857664Y-117447093D01*
X100857671Y-117447097D01*
X100992517Y-117497391D01*
X100992516Y-117497391D01*
X100999444Y-117498135D01*
X101052127Y-117503800D01*
X101947872Y-117503799D01*
X102007483Y-117497391D01*
X102142331Y-117447096D01*
X102257546Y-117360846D01*
X102343796Y-117245631D01*
X102349318Y-117230825D01*
X102391188Y-117174893D01*
X102456652Y-117150475D01*
X102524925Y-117165326D01*
X102574331Y-117214730D01*
X102589500Y-117274159D01*
X102589500Y-117555701D01*
X102592401Y-117592567D01*
X102592402Y-117592573D01*
X102638254Y-117750393D01*
X102638255Y-117750396D01*
X102721917Y-117891862D01*
X102721923Y-117891870D01*
X102838129Y-118008076D01*
X102838133Y-118008079D01*
X102838135Y-118008081D01*
X102979602Y-118091744D01*
X103021224Y-118103836D01*
X103137426Y-118137597D01*
X103137429Y-118137597D01*
X103137431Y-118137598D01*
X103174306Y-118140500D01*
X104515273Y-118140500D01*
X104582312Y-118160185D01*
X104602954Y-118176819D01*
X105122207Y-118696072D01*
X105155692Y-118757395D01*
X105150708Y-118827087D01*
X105108836Y-118883020D01*
X105043372Y-118907437D01*
X104999932Y-118902830D01*
X104862489Y-118862899D01*
X104825649Y-118860000D01*
X104250000Y-118860000D01*
X104250000Y-119710000D01*
X105410000Y-119710000D01*
X105410000Y-119444365D01*
X105409999Y-119444350D01*
X105407100Y-119407510D01*
X105407099Y-119407504D01*
X105367170Y-119270068D01*
X105367369Y-119200199D01*
X105405311Y-119141529D01*
X105468949Y-119112685D01*
X105538079Y-119122826D01*
X105573926Y-119147791D01*
X108228209Y-121802075D01*
X108228210Y-121802076D01*
X108228212Y-121802077D01*
X108277905Y-121830766D01*
X108277907Y-121830768D01*
X108277908Y-121830768D01*
X108314291Y-121851774D01*
X108410301Y-121877500D01*
X108410304Y-121877500D01*
X123049697Y-121877500D01*
X123049699Y-121877500D01*
X123145710Y-121851774D01*
X123231790Y-121802075D01*
X131174345Y-113859518D01*
X131235666Y-113826035D01*
X131305358Y-113831019D01*
X131318320Y-113836717D01*
X131424001Y-113890565D01*
X131424004Y-113890565D01*
X131424008Y-113890568D01*
X131552627Y-113932359D01*
X131648631Y-113963553D01*
X131881903Y-114000500D01*
X131881908Y-114000500D01*
X132118097Y-114000500D01*
X132351368Y-113963553D01*
X132575992Y-113890568D01*
X132786433Y-113783343D01*
X132977510Y-113644517D01*
X133144517Y-113477510D01*
X133149682Y-113470401D01*
X133205012Y-113427735D01*
X133274625Y-113421756D01*
X133336420Y-113454362D01*
X133350318Y-113470401D01*
X133355483Y-113477510D01*
X133522490Y-113644517D01*
X133713567Y-113783343D01*
X133924008Y-113890568D01*
X134036818Y-113927222D01*
X134094494Y-113966660D01*
X134121692Y-114031018D01*
X134122500Y-114045153D01*
X134122500Y-117792272D01*
X134102815Y-117859311D01*
X134086181Y-117879953D01*
X133102606Y-118863527D01*
X133041283Y-118897012D01*
X132971591Y-118892028D01*
X132965344Y-118889283D01*
X132965331Y-118889317D01*
X132960835Y-118887454D01*
X132781118Y-118829059D01*
X132594486Y-118799500D01*
X132594481Y-118799500D01*
X132405519Y-118799500D01*
X132405514Y-118799500D01*
X132218881Y-118829059D01*
X132039163Y-118887454D01*
X131870800Y-118973240D01*
X131783579Y-119036610D01*
X131717927Y-119084310D01*
X131717925Y-119084312D01*
X131717924Y-119084312D01*
X131584312Y-119217924D01*
X131584312Y-119217925D01*
X131584310Y-119217927D01*
X131546427Y-119270068D01*
X131473239Y-119370802D01*
X131472268Y-119372708D01*
X131471014Y-119374432D01*
X131470699Y-119374948D01*
X131470658Y-119374923D01*
X131449472Y-119404079D01*
X130880999Y-119972552D01*
X130880999Y-119949840D01*
X130855035Y-119852939D01*
X130804875Y-119766060D01*
X130733939Y-119695124D01*
X130647060Y-119644964D01*
X130550159Y-119619000D01*
X130527446Y-119619000D01*
X131154327Y-118992116D01*
X131128932Y-118973666D01*
X130960636Y-118887914D01*
X130781001Y-118829548D01*
X130594446Y-118800000D01*
X130405552Y-118800000D01*
X130218996Y-118829548D01*
X130039361Y-118887914D01*
X129871059Y-118973669D01*
X129845669Y-118992116D01*
X129845668Y-118992116D01*
X130472553Y-119619000D01*
X130449839Y-119619000D01*
X130352938Y-119644964D01*
X130266059Y-119695124D01*
X130195123Y-119766060D01*
X130144963Y-119852939D01*
X130118999Y-119949840D01*
X130118999Y-119972553D01*
X129492115Y-119345669D01*
X129492115Y-119345670D01*
X129473668Y-119371060D01*
X129387913Y-119539362D01*
X129329547Y-119718997D01*
X129299999Y-119905552D01*
X129299999Y-120094447D01*
X129329547Y-120281002D01*
X129387913Y-120460637D01*
X129473665Y-120628933D01*
X129492115Y-120654328D01*
X130118999Y-120027445D01*
X130118999Y-120050160D01*
X130144963Y-120147061D01*
X130195123Y-120233940D01*
X130266059Y-120304876D01*
X130352938Y-120355036D01*
X130449839Y-120381000D01*
X130472553Y-120381000D01*
X129845668Y-121007882D01*
X129845669Y-121007883D01*
X129871058Y-121026329D01*
X130039361Y-121112085D01*
X130218996Y-121170451D01*
X130405552Y-121200000D01*
X130594446Y-121200000D01*
X130781001Y-121170451D01*
X130960636Y-121112085D01*
X131128936Y-121026331D01*
X131154327Y-121007883D01*
X131154327Y-121007882D01*
X130527446Y-120381000D01*
X130550159Y-120381000D01*
X130647060Y-120355036D01*
X130733939Y-120304876D01*
X130804875Y-120233940D01*
X130855035Y-120147061D01*
X130880999Y-120050160D01*
X130880999Y-120027447D01*
X131449470Y-120595918D01*
X131470651Y-120625067D01*
X131470693Y-120625042D01*
X131471015Y-120625567D01*
X131472266Y-120627289D01*
X131473104Y-120628933D01*
X131473240Y-120629199D01*
X131584310Y-120782073D01*
X131717927Y-120915690D01*
X131870801Y-121026760D01*
X131950347Y-121067290D01*
X132039163Y-121112545D01*
X132039165Y-121112545D01*
X132039168Y-121112547D01*
X132135497Y-121143846D01*
X132218881Y-121170940D01*
X132405514Y-121200500D01*
X132405519Y-121200500D01*
X132594486Y-121200500D01*
X132781118Y-121170940D01*
X132782623Y-121170451D01*
X132960832Y-121112547D01*
X133129199Y-121026760D01*
X133282073Y-120915690D01*
X133415690Y-120782073D01*
X133526760Y-120629199D01*
X133612547Y-120460832D01*
X133670940Y-120281118D01*
X133682204Y-120210000D01*
X133700500Y-120094486D01*
X133700500Y-119905513D01*
X133670940Y-119718881D01*
X133639623Y-119622500D01*
X133612547Y-119539168D01*
X133612540Y-119539155D01*
X133610681Y-119534664D01*
X133612289Y-119533997D01*
X133600768Y-119472727D01*
X133627030Y-119407980D01*
X133636462Y-119397401D01*
X134802075Y-118231790D01*
X134851774Y-118145710D01*
X134855035Y-118133536D01*
X134857210Y-118125422D01*
X134857210Y-118125420D01*
X134866233Y-118091745D01*
X134877500Y-118049699D01*
X134877500Y-114045153D01*
X134897185Y-113978114D01*
X134949989Y-113932359D01*
X134963178Y-113927223D01*
X135075992Y-113890568D01*
X135286433Y-113783343D01*
X135477510Y-113644517D01*
X135644517Y-113477510D01*
X135783343Y-113286433D01*
X135890568Y-113075992D01*
X135963553Y-112851368D01*
X135970296Y-112808793D01*
X136000500Y-112618097D01*
X136000500Y-112381902D01*
X135963553Y-112148631D01*
X135896582Y-111942517D01*
X135890568Y-111924008D01*
X135890566Y-111924005D01*
X135890566Y-111924003D01*
X135828508Y-111802208D01*
X135783343Y-111713567D01*
X135644517Y-111522490D01*
X135477510Y-111355483D01*
X135286433Y-111216657D01*
X135075996Y-111109433D01*
X134851368Y-111036446D01*
X134618097Y-110999500D01*
X134618092Y-110999500D01*
X134381908Y-110999500D01*
X134381903Y-110999500D01*
X134148631Y-111036446D01*
X133924003Y-111109433D01*
X133713566Y-111216657D01*
X133604550Y-111295862D01*
X133522490Y-111355483D01*
X133522488Y-111355485D01*
X133522487Y-111355485D01*
X133355482Y-111522490D01*
X133350315Y-111529603D01*
X133294983Y-111572266D01*
X133225370Y-111578242D01*
X133163576Y-111545634D01*
X133149685Y-111529603D01*
X133144517Y-111522490D01*
X132977512Y-111355485D01*
X132977510Y-111355483D01*
X132786433Y-111216657D01*
X132575996Y-111109433D01*
X132351368Y-111036446D01*
X132118097Y-110999500D01*
X132118092Y-110999500D01*
X131881908Y-110999500D01*
X131881903Y-110999500D01*
X131648631Y-111036446D01*
X131424003Y-111109433D01*
X131213566Y-111216657D01*
X131104550Y-111295862D01*
X131022490Y-111355483D01*
X131022488Y-111355485D01*
X131022487Y-111355485D01*
X130855482Y-111522490D01*
X130850315Y-111529603D01*
X130794983Y-111572266D01*
X130725370Y-111578242D01*
X130663576Y-111545634D01*
X130649685Y-111529603D01*
X130644517Y-111522490D01*
X130477512Y-111355485D01*
X130477510Y-111355483D01*
X130286433Y-111216657D01*
X130075996Y-111109433D01*
X129851368Y-111036446D01*
X129618097Y-110999500D01*
X129618092Y-110999500D01*
X129381908Y-110999500D01*
X129381903Y-110999500D01*
X129148631Y-111036446D01*
X128924003Y-111109433D01*
X128713566Y-111216657D01*
X128604550Y-111295862D01*
X128522490Y-111355483D01*
X128522488Y-111355485D01*
X128522487Y-111355485D01*
X128355485Y-111522487D01*
X128355485Y-111522488D01*
X128355483Y-111522490D01*
X128331592Y-111555373D01*
X128216657Y-111713566D01*
X128109433Y-111924003D01*
X128036446Y-112148631D01*
X127999500Y-112381902D01*
X127999500Y-112618097D01*
X128036446Y-112851368D01*
X128109433Y-113075996D01*
X128177712Y-113210000D01*
X128216657Y-113286433D01*
X128355483Y-113477510D01*
X128522490Y-113644517D01*
X128713567Y-113783343D01*
X128812991Y-113834002D01*
X128924003Y-113890566D01*
X128924005Y-113890566D01*
X128924008Y-113890568D01*
X129036817Y-113927222D01*
X129148631Y-113963553D01*
X129381903Y-114000500D01*
X129381908Y-114000500D01*
X129618097Y-114000500D01*
X129654104Y-113994797D01*
X129723397Y-114003751D01*
X129776849Y-114048748D01*
X129797489Y-114115499D01*
X129778764Y-114182813D01*
X129761183Y-114204951D01*
X122879954Y-121086181D01*
X122818631Y-121119666D01*
X122792273Y-121122500D01*
X108667728Y-121122500D01*
X108600689Y-121102815D01*
X108580047Y-121086181D01*
X105385848Y-117891983D01*
X105352363Y-117830660D01*
X105357347Y-117760968D01*
X105359732Y-117755045D01*
X105361740Y-117750403D01*
X105361744Y-117750398D01*
X105366805Y-117732981D01*
X105407597Y-117592573D01*
X105407598Y-117592567D01*
X105410499Y-117555701D01*
X105410500Y-117555694D01*
X105410500Y-116524306D01*
X105407598Y-116487431D01*
X105361744Y-116329602D01*
X105278081Y-116188135D01*
X105278079Y-116188133D01*
X105278076Y-116188129D01*
X105161870Y-116071923D01*
X105161862Y-116071917D01*
X105020396Y-115988255D01*
X105020393Y-115988254D01*
X104862573Y-115942402D01*
X104862567Y-115942401D01*
X104825701Y-115939500D01*
X104825694Y-115939500D01*
X103601502Y-115939500D01*
X103534463Y-115919815D01*
X103488708Y-115867011D01*
X103477502Y-115815500D01*
X103477502Y-114574499D01*
X103497187Y-114507460D01*
X103549991Y-114461705D01*
X103601497Y-114450499D01*
X103922873Y-114450499D01*
X103982484Y-114444091D01*
X104117332Y-114393796D01*
X104232547Y-114307546D01*
X104318797Y-114192331D01*
X104369092Y-114057483D01*
X104375501Y-113997873D01*
X104375500Y-113352128D01*
X104369092Y-113292517D01*
X104363504Y-113277536D01*
X104318798Y-113157671D01*
X104318797Y-113157669D01*
X104276000Y-113100500D01*
X104256394Y-113074310D01*
X104231978Y-113008847D01*
X104246829Y-112940574D01*
X104256395Y-112925689D01*
X104264873Y-112914364D01*
X104318797Y-112842331D01*
X104369092Y-112707483D01*
X104375501Y-112647873D01*
X104375500Y-112002128D01*
X104369092Y-111942517D01*
X104362720Y-111925434D01*
X104318798Y-111807671D01*
X104318794Y-111807664D01*
X104232548Y-111692455D01*
X104232545Y-111692452D01*
X104117336Y-111606206D01*
X104117329Y-111606202D01*
X103982487Y-111555910D01*
X103982486Y-111555909D01*
X103982484Y-111555909D01*
X103922874Y-111549500D01*
X103922865Y-111549500D01*
X103601502Y-111549500D01*
X103534463Y-111529815D01*
X103488708Y-111477011D01*
X103477502Y-111425500D01*
X103477502Y-111314251D01*
X103477500Y-111314246D01*
X103442870Y-111230637D01*
X102519368Y-110307135D01*
X102510608Y-110301282D01*
X102465803Y-110247670D01*
X102455499Y-110198180D01*
X102455499Y-109717129D01*
X102455498Y-109717123D01*
X102455497Y-109717116D01*
X102449091Y-109657517D01*
X102446287Y-109650000D01*
X102398797Y-109522671D01*
X102398793Y-109522664D01*
X102312547Y-109407455D01*
X102312544Y-109407452D01*
X102197335Y-109321206D01*
X102197328Y-109321202D01*
X102062482Y-109270908D01*
X102062483Y-109270908D01*
X102002883Y-109264501D01*
X102002881Y-109264500D01*
X102002873Y-109264500D01*
X102002864Y-109264500D01*
X100747129Y-109264500D01*
X100747123Y-109264501D01*
X100687515Y-109270909D01*
X100600503Y-109303362D01*
X100530812Y-109308346D01*
X100469489Y-109274860D01*
X100436005Y-109213537D01*
X100440990Y-109143845D01*
X100450439Y-109124059D01*
X100511744Y-109020398D01*
X100546006Y-108902467D01*
X100557597Y-108862573D01*
X100557598Y-108862567D01*
X100560499Y-108825701D01*
X100560500Y-108825694D01*
X100560500Y-108461500D01*
X100580185Y-108394461D01*
X100632989Y-108348706D01*
X100684500Y-108337500D01*
X102965500Y-108337500D01*
X103032539Y-108357185D01*
X103078294Y-108409989D01*
X103089500Y-108461500D01*
X103089500Y-108475701D01*
X103092401Y-108512567D01*
X103092402Y-108512573D01*
X103138254Y-108670393D01*
X103138255Y-108670396D01*
X103221917Y-108811862D01*
X103221923Y-108811870D01*
X103338129Y-108928076D01*
X103338133Y-108928079D01*
X103338135Y-108928081D01*
X103479602Y-109011744D01*
X103508694Y-109020196D01*
X103637426Y-109057597D01*
X103637429Y-109057597D01*
X103637431Y-109057598D01*
X103674306Y-109060500D01*
X103674314Y-109060500D01*
X105325686Y-109060500D01*
X105325694Y-109060500D01*
X105362569Y-109057598D01*
X105362571Y-109057597D01*
X105362573Y-109057597D01*
X105404191Y-109045505D01*
X105520398Y-109011744D01*
X105604374Y-108962081D01*
X105672098Y-108944898D01*
X105738361Y-108967058D01*
X105741781Y-108969528D01*
X105847668Y-109048795D01*
X105847671Y-109048797D01*
X105982517Y-109099091D01*
X105982516Y-109099091D01*
X105989444Y-109099835D01*
X106042127Y-109105500D01*
X107589547Y-109105499D01*
X107621640Y-109109724D01*
X107629289Y-109111773D01*
X107629290Y-109111774D01*
X107725301Y-109137500D01*
X108355094Y-109137500D01*
X108422133Y-109157185D01*
X108467888Y-109209989D01*
X108473025Y-109223181D01*
X108479995Y-109244632D01*
X108479994Y-109244632D01*
X108535905Y-109354362D01*
X108562957Y-109407454D01*
X108570215Y-109421697D01*
X108683132Y-109577115D01*
X108706612Y-109642921D01*
X108690786Y-109710975D01*
X108683132Y-109722885D01*
X108570215Y-109878302D01*
X108479994Y-110055367D01*
X108479993Y-110055370D01*
X108418587Y-110244362D01*
X108387500Y-110440639D01*
X108387500Y-110639360D01*
X108416484Y-110822361D01*
X108407529Y-110891655D01*
X108381692Y-110929440D01*
X107697927Y-111613207D01*
X107697925Y-111613210D01*
X107648224Y-111699291D01*
X107641167Y-111725634D01*
X107641167Y-111725635D01*
X107641167Y-111725636D01*
X107622500Y-111795301D01*
X107622500Y-117950301D01*
X107622500Y-118049699D01*
X107648226Y-118145710D01*
X107697925Y-118231790D01*
X109768210Y-120302075D01*
X109854290Y-120351774D01*
X109854292Y-120351774D01*
X109854293Y-120351775D01*
X109874572Y-120357208D01*
X109874577Y-120357211D01*
X109874578Y-120357210D01*
X109894868Y-120362646D01*
X109950301Y-120377500D01*
X109950302Y-120377500D01*
X120049697Y-120377500D01*
X120049699Y-120377500D01*
X120145710Y-120351774D01*
X120231790Y-120302075D01*
X125762075Y-114771790D01*
X125811774Y-114685710D01*
X125837500Y-114589699D01*
X125837500Y-114490301D01*
X125837500Y-112989499D01*
X125857185Y-112922460D01*
X125909989Y-112876705D01*
X125961500Y-112865499D01*
X125992871Y-112865499D01*
X125992872Y-112865499D01*
X126052483Y-112859091D01*
X126187331Y-112808796D01*
X126302546Y-112722546D01*
X126388796Y-112607331D01*
X126439091Y-112472483D01*
X126445500Y-112412873D01*
X126445499Y-110587128D01*
X126439091Y-110527517D01*
X126388796Y-110392669D01*
X126388795Y-110392668D01*
X126388793Y-110392664D01*
X126302547Y-110277455D01*
X126302544Y-110277452D01*
X126187335Y-110191206D01*
X126187328Y-110191202D01*
X126052482Y-110140908D01*
X126052483Y-110140908D01*
X125992883Y-110134501D01*
X125992881Y-110134500D01*
X125992873Y-110134500D01*
X125992864Y-110134500D01*
X124927129Y-110134500D01*
X124927123Y-110134501D01*
X124867516Y-110140908D01*
X124732671Y-110191202D01*
X124732664Y-110191206D01*
X124617455Y-110277452D01*
X124617452Y-110277455D01*
X124531206Y-110392664D01*
X124531202Y-110392671D01*
X124480908Y-110527517D01*
X124474501Y-110587116D01*
X124474501Y-110587123D01*
X124474500Y-110587135D01*
X124474500Y-112412870D01*
X124474501Y-112412876D01*
X124480908Y-112472483D01*
X124531202Y-112607328D01*
X124531206Y-112607335D01*
X124617452Y-112722544D01*
X124617455Y-112722547D01*
X124732664Y-112808793D01*
X124732671Y-112808797D01*
X124738133Y-112810834D01*
X124867517Y-112859091D01*
X124927127Y-112865500D01*
X124958498Y-112865499D01*
X125025536Y-112885182D01*
X125071293Y-112937984D01*
X125082500Y-112989499D01*
X125082500Y-114332273D01*
X125062815Y-114399312D01*
X125046181Y-114419954D01*
X119879954Y-119586181D01*
X119818631Y-119619666D01*
X119792273Y-119622500D01*
X110207727Y-119622500D01*
X110140688Y-119602815D01*
X110120046Y-119586181D01*
X108413819Y-117879954D01*
X108380334Y-117818631D01*
X108377500Y-117792273D01*
X108377500Y-116657227D01*
X108397185Y-116590188D01*
X108449989Y-116544433D01*
X108519147Y-116534489D01*
X108582703Y-116563514D01*
X108596571Y-116578624D01*
X108597731Y-116578716D01*
X109269000Y-115907447D01*
X109269000Y-115930160D01*
X109294964Y-116027061D01*
X109345124Y-116113940D01*
X109416060Y-116184876D01*
X109502939Y-116235036D01*
X109599840Y-116261000D01*
X109622552Y-116261000D01*
X108951283Y-116932268D01*
X108951283Y-116932269D01*
X108988567Y-116959358D01*
X109165562Y-117049542D01*
X109354477Y-117110924D01*
X109550679Y-117142000D01*
X109749321Y-117142000D01*
X109856102Y-117125087D01*
X109925395Y-117134041D01*
X109978847Y-117179037D01*
X109999487Y-117245789D01*
X109999500Y-117247560D01*
X109999500Y-118565891D01*
X110033608Y-118693187D01*
X110035274Y-118696072D01*
X110099500Y-118807314D01*
X110192686Y-118900500D01*
X110306814Y-118966392D01*
X110434108Y-119000500D01*
X110434110Y-119000500D01*
X119565890Y-119000500D01*
X119565892Y-119000500D01*
X119693186Y-118966392D01*
X119807314Y-118900500D01*
X119900500Y-118807314D01*
X119966392Y-118693186D01*
X120000500Y-118565892D01*
X120000500Y-118138066D01*
X120020185Y-118071027D01*
X120072989Y-118025272D01*
X120142147Y-118015328D01*
X120143759Y-118015571D01*
X120250639Y-118032500D01*
X120250641Y-118032500D01*
X120449360Y-118032500D01*
X120449361Y-118032500D01*
X120645636Y-118001413D01*
X120834632Y-117940005D01*
X121011694Y-117849787D01*
X121172464Y-117732981D01*
X121312981Y-117592464D01*
X121429787Y-117431694D01*
X121520005Y-117254632D01*
X121581413Y-117065636D01*
X121612500Y-116869361D01*
X121612500Y-116670639D01*
X121581413Y-116474364D01*
X121534378Y-116329603D01*
X121520006Y-116285370D01*
X121520005Y-116285367D01*
X121470459Y-116188129D01*
X121429787Y-116108306D01*
X121316866Y-115952883D01*
X121293387Y-115887079D01*
X121309212Y-115819025D01*
X121316859Y-115807125D01*
X121429787Y-115651694D01*
X121520005Y-115474632D01*
X121581413Y-115285636D01*
X121612500Y-115089361D01*
X121612500Y-114890639D01*
X121581413Y-114694364D01*
X121534069Y-114548653D01*
X121520006Y-114505370D01*
X121520005Y-114505367D01*
X121474035Y-114415149D01*
X121429787Y-114328306D01*
X121316866Y-114172883D01*
X121293387Y-114107079D01*
X121309212Y-114039025D01*
X121316859Y-114027125D01*
X121429787Y-113871694D01*
X121520005Y-113694632D01*
X121581413Y-113505636D01*
X121612500Y-113309361D01*
X121612500Y-113110639D01*
X121584456Y-112933577D01*
X121593410Y-112864286D01*
X121638407Y-112810834D01*
X121705158Y-112790194D01*
X121766359Y-112805350D01*
X121772665Y-112808793D01*
X121772669Y-112808796D01*
X121772672Y-112808797D01*
X121907517Y-112859091D01*
X121907516Y-112859091D01*
X121914444Y-112859835D01*
X121967127Y-112865500D01*
X123032872Y-112865499D01*
X123092483Y-112859091D01*
X123227331Y-112808796D01*
X123342546Y-112722546D01*
X123428796Y-112607331D01*
X123479091Y-112472483D01*
X123485500Y-112412873D01*
X123485499Y-110587128D01*
X123479091Y-110527517D01*
X123428796Y-110392669D01*
X123428795Y-110392668D01*
X123428793Y-110392664D01*
X123342547Y-110277455D01*
X123342544Y-110277452D01*
X123227335Y-110191206D01*
X123227328Y-110191202D01*
X123092482Y-110140908D01*
X123092483Y-110140908D01*
X123032883Y-110134501D01*
X123032881Y-110134500D01*
X123032873Y-110134500D01*
X123032864Y-110134500D01*
X121967129Y-110134500D01*
X121967123Y-110134501D01*
X121907516Y-110140908D01*
X121772671Y-110191202D01*
X121772669Y-110191203D01*
X121727608Y-110224936D01*
X121662143Y-110249352D01*
X121593870Y-110234500D01*
X121544465Y-110185094D01*
X121529614Y-110116821D01*
X121535365Y-110087357D01*
X121581413Y-109945636D01*
X121612500Y-109749361D01*
X121612500Y-109550639D01*
X121581413Y-109354364D01*
X121545759Y-109244632D01*
X121520006Y-109165370D01*
X121520005Y-109165367D01*
X121460608Y-109048795D01*
X121429787Y-108988306D01*
X121316866Y-108832883D01*
X121293387Y-108767079D01*
X121309212Y-108699025D01*
X121316859Y-108687125D01*
X121429787Y-108531694D01*
X121520005Y-108354632D01*
X121581413Y-108165636D01*
X121612500Y-107969361D01*
X121612500Y-107770639D01*
X121581413Y-107574364D01*
X121520005Y-107385368D01*
X121520005Y-107385367D01*
X121474035Y-107295149D01*
X121429787Y-107208306D01*
X121316866Y-107052883D01*
X121293387Y-106987079D01*
X121309212Y-106919025D01*
X121316859Y-106907125D01*
X121429787Y-106751694D01*
X121520005Y-106574632D01*
X121556217Y-106463182D01*
X121595654Y-106405507D01*
X121660012Y-106378308D01*
X121674148Y-106377500D01*
X122516601Y-106377500D01*
X122583640Y-106397185D01*
X122629395Y-106449989D01*
X122640601Y-106501500D01*
X122640601Y-106644776D01*
X122647008Y-106704383D01*
X122697302Y-106839228D01*
X122697306Y-106839235D01*
X122783552Y-106954444D01*
X122783555Y-106954447D01*
X122898764Y-107040693D01*
X122898771Y-107040697D01*
X123033617Y-107090991D01*
X123033616Y-107090991D01*
X123040544Y-107091735D01*
X123093227Y-107097400D01*
X124204972Y-107097399D01*
X124264583Y-107090991D01*
X124399431Y-107040696D01*
X124401779Y-107038938D01*
X124425689Y-107021040D01*
X124491153Y-106996622D01*
X124559426Y-107011473D01*
X124574311Y-107021040D01*
X124600564Y-107040693D01*
X124600571Y-107040697D01*
X124735417Y-107090991D01*
X124735416Y-107090991D01*
X124742344Y-107091735D01*
X124795027Y-107097400D01*
X125906772Y-107097399D01*
X125966383Y-107090991D01*
X126101231Y-107040696D01*
X126216446Y-106954446D01*
X126302696Y-106839231D01*
X126352991Y-106704383D01*
X126359400Y-106644773D01*
X126359399Y-105355228D01*
X126354199Y-105306857D01*
X126352991Y-105295616D01*
X126302697Y-105160771D01*
X126302695Y-105160768D01*
X126281507Y-105132464D01*
X126232064Y-105066417D01*
X126207647Y-105000954D01*
X126222498Y-104932681D01*
X126271903Y-104883275D01*
X126287987Y-104875929D01*
X126347331Y-104853796D01*
X126462546Y-104767546D01*
X126548796Y-104652331D01*
X126599091Y-104517483D01*
X126605500Y-104457873D01*
X126605499Y-102542128D01*
X126599091Y-102482517D01*
X126581549Y-102435485D01*
X126548797Y-102347671D01*
X126548795Y-102347668D01*
X126497479Y-102279119D01*
X126469546Y-102241805D01*
X126445129Y-102176342D01*
X126459980Y-102108069D01*
X126462081Y-102104374D01*
X126493094Y-102051933D01*
X126511744Y-102020398D01*
X126557598Y-101862569D01*
X126560500Y-101825694D01*
X126560500Y-100174306D01*
X126557598Y-100137431D01*
X126552547Y-100120046D01*
X126511745Y-99979606D01*
X126511744Y-99979603D01*
X126511744Y-99979602D01*
X126428081Y-99838135D01*
X126428079Y-99838133D01*
X126428076Y-99838129D01*
X126311870Y-99721923D01*
X126311862Y-99721917D01*
X126180985Y-99644517D01*
X126170398Y-99638256D01*
X126170397Y-99638255D01*
X126170396Y-99638255D01*
X126170393Y-99638254D01*
X126012573Y-99592402D01*
X126012567Y-99592401D01*
X125975701Y-99589500D01*
X125975694Y-99589500D01*
X125674727Y-99589500D01*
X125607688Y-99569815D01*
X125587046Y-99553181D01*
X124231792Y-98197927D01*
X124231790Y-98197925D01*
X124145710Y-98148226D01*
X124049699Y-98122500D01*
X117876699Y-98122500D01*
X117809660Y-98102815D01*
X117763905Y-98050011D01*
X117753961Y-97980853D01*
X117782986Y-97917297D01*
X117820404Y-97888015D01*
X117858947Y-97868376D01*
X118025834Y-97783343D01*
X118216911Y-97644517D01*
X118383918Y-97477510D01*
X118522744Y-97286433D01*
X118629969Y-97075992D01*
X118702954Y-96851368D01*
X118710437Y-96804121D01*
X118739901Y-96618097D01*
X118739901Y-96381902D01*
X118702954Y-96148631D01*
X118667155Y-96038454D01*
X118629969Y-95924008D01*
X118629967Y-95924005D01*
X118629967Y-95924003D01*
X118522878Y-95713830D01*
X118522744Y-95713567D01*
X118383918Y-95522490D01*
X118216911Y-95355483D01*
X118025834Y-95216657D01*
X117820404Y-95111985D01*
X117769608Y-95064010D01*
X117752813Y-94996189D01*
X117775350Y-94930054D01*
X117830066Y-94886603D01*
X117876699Y-94877500D01*
X123792273Y-94877500D01*
X123859312Y-94897185D01*
X123879954Y-94913819D01*
X129086181Y-100120046D01*
X129119666Y-100181369D01*
X129122500Y-100207727D01*
X129122500Y-105954846D01*
X129102815Y-106021885D01*
X129050011Y-106067640D01*
X129036819Y-106072777D01*
X128924003Y-106109433D01*
X128713566Y-106216657D01*
X128630047Y-106277338D01*
X128522490Y-106355483D01*
X128522488Y-106355485D01*
X128522487Y-106355485D01*
X128355485Y-106522487D01*
X128355485Y-106522488D01*
X128355483Y-106522490D01*
X128348182Y-106532539D01*
X128216657Y-106713566D01*
X128109433Y-106924003D01*
X128036446Y-107148631D01*
X127999500Y-107381902D01*
X127999500Y-107618097D01*
X128036446Y-107851368D01*
X128109433Y-108075996D01*
X128155108Y-108165637D01*
X128216657Y-108286433D01*
X128355483Y-108477510D01*
X128522490Y-108644517D01*
X128713567Y-108783343D01*
X128796568Y-108825634D01*
X128924003Y-108890566D01*
X128924005Y-108890566D01*
X128924008Y-108890568D01*
X129039445Y-108928076D01*
X129148631Y-108963553D01*
X129381903Y-109000500D01*
X129381908Y-109000500D01*
X129618097Y-109000500D01*
X129851368Y-108963553D01*
X129855898Y-108962081D01*
X130075992Y-108890568D01*
X130286433Y-108783343D01*
X130477510Y-108644517D01*
X130644517Y-108477510D01*
X130689267Y-108415915D01*
X130693680Y-108411031D01*
X130718059Y-108396063D01*
X130740711Y-108378596D01*
X130748343Y-108377470D01*
X130753223Y-108374475D01*
X130766770Y-108374753D01*
X130772543Y-108373902D01*
X131562352Y-107584093D01*
X131585792Y-107671571D01*
X131644311Y-107772930D01*
X131727070Y-107855689D01*
X131828429Y-107914208D01*
X131915906Y-107937647D01*
X131130893Y-108722658D01*
X131213828Y-108782914D01*
X131424197Y-108890102D01*
X131648752Y-108963065D01*
X131648751Y-108963065D01*
X131881948Y-109000000D01*
X132118052Y-109000000D01*
X132351247Y-108963065D01*
X132575802Y-108890102D01*
X132786163Y-108782918D01*
X132786169Y-108782914D01*
X132869104Y-108722658D01*
X132869105Y-108722658D01*
X132084093Y-107937647D01*
X132171571Y-107914208D01*
X132272930Y-107855689D01*
X132355689Y-107772930D01*
X132414208Y-107671571D01*
X132437647Y-107584094D01*
X133229270Y-108375717D01*
X133272943Y-108384891D01*
X133314614Y-108421259D01*
X133355483Y-108477510D01*
X133522490Y-108644517D01*
X133713567Y-108783343D01*
X133796568Y-108825634D01*
X133924003Y-108890566D01*
X133924005Y-108890566D01*
X133924008Y-108890568D01*
X134039445Y-108928076D01*
X134148631Y-108963553D01*
X134381903Y-109000500D01*
X134381908Y-109000500D01*
X134618097Y-109000500D01*
X134851368Y-108963553D01*
X134855898Y-108962081D01*
X135075992Y-108890568D01*
X135286433Y-108783343D01*
X135477510Y-108644517D01*
X135644517Y-108477510D01*
X135783343Y-108286433D01*
X135890568Y-108075992D01*
X135963553Y-107851368D01*
X135971299Y-107802464D01*
X136000500Y-107618097D01*
X136000500Y-107381902D01*
X135963553Y-107148631D01*
X135908632Y-106979603D01*
X135890568Y-106924008D01*
X135890566Y-106924005D01*
X135890566Y-106924003D01*
X135834002Y-106812991D01*
X135783343Y-106713567D01*
X135644517Y-106522490D01*
X135477510Y-106355483D01*
X135286433Y-106216657D01*
X135075996Y-106109433D01*
X134963181Y-106072777D01*
X134905506Y-106033339D01*
X134878308Y-105968980D01*
X134877500Y-105954846D01*
X134877500Y-102950303D01*
X134877499Y-102950299D01*
X134875257Y-102941933D01*
X134866794Y-102910345D01*
X134851774Y-102854290D01*
X134816716Y-102793567D01*
X134802080Y-102768216D01*
X134802074Y-102768208D01*
X124731792Y-92697927D01*
X124731790Y-92697925D01*
X124645710Y-92648226D01*
X124549699Y-92622500D01*
X124549698Y-92622500D01*
X113457727Y-92622500D01*
X113390688Y-92602815D01*
X113370046Y-92586181D01*
X112490206Y-91706341D01*
X112456721Y-91645018D01*
X112461705Y-91575326D01*
X112503577Y-91519393D01*
X112569041Y-91494976D01*
X112597288Y-91496187D01*
X112621352Y-91499999D01*
X112857452Y-91499999D01*
X113090647Y-91463064D01*
X113315202Y-91390101D01*
X113525563Y-91282917D01*
X113525569Y-91282913D01*
X113608504Y-91222657D01*
X113608505Y-91222657D01*
X112864971Y-90479124D01*
X112930579Y-90461545D01*
X113043521Y-90396338D01*
X113135739Y-90304120D01*
X113200946Y-90191178D01*
X113218525Y-90125571D01*
X113962058Y-90869104D01*
X113962058Y-90869103D01*
X114022314Y-90786168D01*
X114022318Y-90786162D01*
X114129502Y-90575801D01*
X114202465Y-90351246D01*
X114239400Y-90118051D01*
X114239400Y-89881946D01*
X114202465Y-89648751D01*
X114129502Y-89424196D01*
X114022314Y-89213827D01*
X113962058Y-89130893D01*
X113962058Y-89130892D01*
X113218525Y-89874426D01*
X113200946Y-89808820D01*
X113135739Y-89695878D01*
X113043521Y-89603660D01*
X112930579Y-89538453D01*
X112864972Y-89520873D01*
X113608505Y-88777339D01*
X113608504Y-88777337D01*
X113525574Y-88717086D01*
X113315202Y-88609896D01*
X113090647Y-88536933D01*
X113090648Y-88536933D01*
X112857452Y-88499999D01*
X112621348Y-88499999D01*
X112388152Y-88536933D01*
X112163597Y-88609896D01*
X111953230Y-88717083D01*
X111870294Y-88777339D01*
X112613828Y-89520873D01*
X112548221Y-89538453D01*
X112435279Y-89603660D01*
X112343061Y-89695878D01*
X112277854Y-89808820D01*
X112260274Y-89874427D01*
X111516740Y-89130893D01*
X111456484Y-89213829D01*
X111349297Y-89424196D01*
X111276334Y-89648751D01*
X111239400Y-89881946D01*
X111239400Y-90118051D01*
X111243211Y-90142113D01*
X111234256Y-90211407D01*
X111189260Y-90264859D01*
X111122509Y-90285498D01*
X111055195Y-90266773D01*
X111033057Y-90249192D01*
X109663819Y-88879954D01*
X109630334Y-88818631D01*
X109627500Y-88792273D01*
X109627500Y-82577639D01*
X109647185Y-82510600D01*
X109699989Y-82464845D01*
X109769147Y-82454901D01*
X109798545Y-82465102D01*
X109799300Y-82463280D01*
X109806809Y-82466389D01*
X109806814Y-82466392D01*
X109934108Y-82500500D01*
X109934110Y-82500500D01*
X120065890Y-82500500D01*
X120065892Y-82500500D01*
X120193186Y-82466392D01*
X120193193Y-82466387D01*
X120200700Y-82463280D01*
X120202039Y-82466513D01*
X120254196Y-82453770D01*
X120320261Y-82476513D01*
X120363542Y-82531364D01*
X120372500Y-82577639D01*
X120372500Y-86281672D01*
X120352815Y-86348711D01*
X120336181Y-86369353D01*
X118242353Y-88463180D01*
X118181030Y-88496665D01*
X118154672Y-88499499D01*
X116191530Y-88499499D01*
X116191524Y-88499500D01*
X116131917Y-88505907D01*
X115997072Y-88556201D01*
X115997065Y-88556205D01*
X115881856Y-88642451D01*
X115881853Y-88642454D01*
X115795607Y-88757663D01*
X115795603Y-88757670D01*
X115745309Y-88892516D01*
X115738902Y-88952115D01*
X115738901Y-88952134D01*
X115738901Y-91047869D01*
X115738902Y-91047875D01*
X115745309Y-91107482D01*
X115795603Y-91242327D01*
X115795607Y-91242334D01*
X115881853Y-91357543D01*
X115881856Y-91357546D01*
X115997065Y-91443792D01*
X115997072Y-91443796D01*
X116131918Y-91494090D01*
X116131917Y-91494090D01*
X116138845Y-91494834D01*
X116191528Y-91500499D01*
X118287273Y-91500498D01*
X118346884Y-91494090D01*
X118481732Y-91443795D01*
X118596947Y-91357545D01*
X118683197Y-91242330D01*
X118733492Y-91107482D01*
X118739901Y-91047872D01*
X118739900Y-89084725D01*
X118759585Y-89017687D01*
X118776214Y-88997050D01*
X121052076Y-86721190D01*
X121101774Y-86635110D01*
X121127500Y-86539099D01*
X121127500Y-86439701D01*
X121127500Y-82766047D01*
X121147185Y-82699008D01*
X121199989Y-82653253D01*
X121269147Y-82643309D01*
X121332703Y-82672334D01*
X121339181Y-82678366D01*
X121402786Y-82741971D01*
X121557749Y-82854556D01*
X121568390Y-82862287D01*
X121684607Y-82921503D01*
X121750776Y-82955218D01*
X121750778Y-82955218D01*
X121750781Y-82955220D01*
X121855137Y-82989127D01*
X121945465Y-83018477D01*
X122046557Y-83034488D01*
X122147648Y-83050500D01*
X122147649Y-83050500D01*
X123152351Y-83050500D01*
X123152352Y-83050500D01*
X123354534Y-83018477D01*
X123549219Y-82955220D01*
X123731610Y-82862287D01*
X123824590Y-82794732D01*
X123897213Y-82741971D01*
X123897215Y-82741968D01*
X123897219Y-82741966D01*
X124041966Y-82597219D01*
X124041968Y-82597215D01*
X124041971Y-82597213D01*
X124112236Y-82500500D01*
X124162287Y-82431610D01*
X124255220Y-82249219D01*
X124318477Y-82054534D01*
X124350500Y-81852352D01*
X124350500Y-81647648D01*
X124318477Y-81445466D01*
X124255220Y-81250781D01*
X124255218Y-81250778D01*
X124255218Y-81250776D01*
X124221503Y-81184607D01*
X124162287Y-81068390D01*
X124103074Y-80986889D01*
X124041971Y-80902786D01*
X123897213Y-80758028D01*
X123731614Y-80637715D01*
X123637277Y-80589648D01*
X123586481Y-80541673D01*
X123569686Y-80473852D01*
X123592223Y-80407717D01*
X123637277Y-80368678D01*
X123731610Y-80320613D01*
X123788381Y-80279367D01*
X123897213Y-80200297D01*
X123897215Y-80200294D01*
X123897219Y-80200292D01*
X124041966Y-80055545D01*
X124041968Y-80055541D01*
X124041971Y-80055539D01*
X124140444Y-79920000D01*
X124162287Y-79889936D01*
X124255220Y-79707545D01*
X124318477Y-79512860D01*
X124350500Y-79310678D01*
X124350500Y-79105974D01*
X124318477Y-78903791D01*
X124255218Y-78709102D01*
X124191554Y-78584156D01*
X124162287Y-78526716D01*
X124143240Y-78500500D01*
X124041971Y-78361112D01*
X123897213Y-78216354D01*
X123731614Y-78096041D01*
X123681711Y-78070614D01*
X123637284Y-78047977D01*
X123586489Y-78000003D01*
X123569694Y-77932182D01*
X123592231Y-77866047D01*
X123637285Y-77827008D01*
X123646154Y-77822489D01*
X123731610Y-77778947D01*
X123752770Y-77763573D01*
X123897213Y-77658631D01*
X123897215Y-77658628D01*
X123897219Y-77658626D01*
X124041966Y-77513879D01*
X124041966Y-77513878D01*
X124045411Y-77510434D01*
X124046184Y-77511207D01*
X124100311Y-77475871D01*
X124170179Y-77475369D01*
X124229227Y-77512721D01*
X124258707Y-77576067D01*
X124260099Y-77594594D01*
X124260099Y-78047871D01*
X124260100Y-78047877D01*
X124266507Y-78107484D01*
X124316801Y-78242329D01*
X124316805Y-78242336D01*
X124403051Y-78357545D01*
X124403054Y-78357548D01*
X124518263Y-78443794D01*
X124518270Y-78443798D01*
X124653116Y-78494092D01*
X124653115Y-78494092D01*
X124660043Y-78494836D01*
X124712726Y-78500501D01*
X126308471Y-78500500D01*
X126368082Y-78494092D01*
X126502930Y-78443797D01*
X126618145Y-78357547D01*
X126704395Y-78242332D01*
X126754690Y-78107484D01*
X126761099Y-78047874D01*
X126761098Y-77131948D01*
X128510600Y-77131948D01*
X128510600Y-77368053D01*
X128547534Y-77601248D01*
X128620497Y-77825803D01*
X128727687Y-78036175D01*
X128787938Y-78119105D01*
X128787940Y-78119106D01*
X129531474Y-77375572D01*
X129549054Y-77441180D01*
X129614261Y-77554122D01*
X129706479Y-77646340D01*
X129819421Y-77711547D01*
X129885028Y-77729126D01*
X129141493Y-78472659D01*
X129224428Y-78532915D01*
X129434797Y-78640103D01*
X129659352Y-78713066D01*
X129659351Y-78713066D01*
X129892548Y-78750001D01*
X130128652Y-78750001D01*
X130361847Y-78713066D01*
X130586402Y-78640103D01*
X130796763Y-78532919D01*
X130796769Y-78532915D01*
X130879704Y-78472659D01*
X130879705Y-78472659D01*
X130136171Y-77729126D01*
X130201779Y-77711547D01*
X130314721Y-77646340D01*
X130406939Y-77554122D01*
X130472146Y-77441180D01*
X130489725Y-77375572D01*
X131233258Y-78119106D01*
X131233258Y-78119105D01*
X131293514Y-78036170D01*
X131293518Y-78036164D01*
X131400702Y-77825803D01*
X131473665Y-77601248D01*
X131510600Y-77368053D01*
X131510600Y-77131948D01*
X131473665Y-76898753D01*
X131400702Y-76674198D01*
X131293514Y-76463829D01*
X131233258Y-76380895D01*
X131233258Y-76380894D01*
X130489725Y-77124428D01*
X130472146Y-77058822D01*
X130406939Y-76945880D01*
X130314721Y-76853662D01*
X130201779Y-76788455D01*
X130136172Y-76770875D01*
X130879705Y-76027341D01*
X130879704Y-76027339D01*
X130796774Y-75967088D01*
X130586402Y-75859898D01*
X130361847Y-75786935D01*
X130361848Y-75786935D01*
X130128652Y-75750001D01*
X129892548Y-75750001D01*
X129659352Y-75786935D01*
X129434797Y-75859898D01*
X129224430Y-75967085D01*
X129141494Y-76027341D01*
X129885028Y-76770875D01*
X129819421Y-76788455D01*
X129706479Y-76853662D01*
X129614261Y-76945880D01*
X129549054Y-77058822D01*
X129531474Y-77124429D01*
X128787940Y-76380895D01*
X128727684Y-76463831D01*
X128620497Y-76674198D01*
X128547534Y-76898753D01*
X128510600Y-77131948D01*
X126761098Y-77131948D01*
X126761098Y-76452129D01*
X126754690Y-76392518D01*
X126743354Y-76362125D01*
X126704396Y-76257672D01*
X126704394Y-76257669D01*
X126666675Y-76207283D01*
X126618145Y-76142455D01*
X126563235Y-76101349D01*
X126502934Y-76056207D01*
X126502927Y-76056203D01*
X126368081Y-76005909D01*
X126368082Y-76005909D01*
X126308482Y-75999502D01*
X126308480Y-75999501D01*
X126308472Y-75999501D01*
X126308464Y-75999501D01*
X126012099Y-75999501D01*
X125945060Y-75979816D01*
X125899305Y-75927012D01*
X125888099Y-75875501D01*
X125888099Y-72295153D01*
X125907784Y-72228114D01*
X125960588Y-72182359D01*
X125973777Y-72177223D01*
X126086591Y-72140568D01*
X126297032Y-72033343D01*
X126488109Y-71894517D01*
X126655116Y-71727510D01*
X126793942Y-71536433D01*
X126901167Y-71325992D01*
X126974152Y-71101368D01*
X126976886Y-71084104D01*
X127011099Y-70868097D01*
X127011099Y-70631947D01*
X128510600Y-70631947D01*
X128510600Y-70868052D01*
X128547534Y-71101247D01*
X128620497Y-71325802D01*
X128727687Y-71536174D01*
X128787938Y-71619104D01*
X128787940Y-71619105D01*
X129531474Y-70875571D01*
X129549054Y-70941179D01*
X129614261Y-71054121D01*
X129706479Y-71146339D01*
X129819421Y-71211546D01*
X129885028Y-71229125D01*
X129141493Y-71972658D01*
X129224428Y-72032914D01*
X129434797Y-72140102D01*
X129659352Y-72213065D01*
X129659351Y-72213065D01*
X129892548Y-72250000D01*
X130128652Y-72250000D01*
X130361847Y-72213065D01*
X130586402Y-72140102D01*
X130796763Y-72032918D01*
X130796769Y-72032914D01*
X130879704Y-71972658D01*
X130879705Y-71972658D01*
X130136171Y-71229125D01*
X130201779Y-71211546D01*
X130314721Y-71146339D01*
X130406939Y-71054121D01*
X130472146Y-70941179D01*
X130489725Y-70875571D01*
X131233258Y-71619105D01*
X131233258Y-71619104D01*
X131293514Y-71536169D01*
X131293518Y-71536163D01*
X131400702Y-71325802D01*
X131473665Y-71101247D01*
X131510600Y-70868052D01*
X131510600Y-70631947D01*
X131473665Y-70398752D01*
X131400702Y-70174197D01*
X131293514Y-69963828D01*
X131233258Y-69880894D01*
X131233258Y-69880893D01*
X130489725Y-70624427D01*
X130472146Y-70558821D01*
X130406939Y-70445879D01*
X130314721Y-70353661D01*
X130201779Y-70288454D01*
X130136172Y-70270874D01*
X130879705Y-69527340D01*
X130879704Y-69527338D01*
X130796774Y-69467087D01*
X130586402Y-69359897D01*
X130361847Y-69286934D01*
X130361848Y-69286934D01*
X130128652Y-69250000D01*
X129892548Y-69250000D01*
X129659352Y-69286934D01*
X129434797Y-69359897D01*
X129224430Y-69467084D01*
X129141494Y-69527340D01*
X129885028Y-70270874D01*
X129819421Y-70288454D01*
X129706479Y-70353661D01*
X129614261Y-70445879D01*
X129549054Y-70558821D01*
X129531474Y-70624428D01*
X128787940Y-69880894D01*
X128727684Y-69963830D01*
X128620497Y-70174197D01*
X128547534Y-70398752D01*
X128510600Y-70631947D01*
X127011099Y-70631947D01*
X127011099Y-70631902D01*
X126974152Y-70398631D01*
X126935700Y-70280290D01*
X126901167Y-70174008D01*
X126901165Y-70174005D01*
X126901165Y-70174003D01*
X126817951Y-70010687D01*
X126793942Y-69963567D01*
X126655116Y-69772490D01*
X126488109Y-69605483D01*
X126297032Y-69466657D01*
X126086595Y-69359433D01*
X126003405Y-69332402D01*
X125973779Y-69322776D01*
X125916105Y-69283339D01*
X125888907Y-69218980D01*
X125888099Y-69204846D01*
X125888099Y-67960902D01*
X125888099Y-67960900D01*
X125862373Y-67864890D01*
X125812674Y-67778809D01*
X125742389Y-67708524D01*
X124363743Y-66329878D01*
X124330258Y-66268555D01*
X124328957Y-66261633D01*
X124318477Y-66195462D01*
X124255220Y-66000777D01*
X124255218Y-66000774D01*
X124255218Y-66000772D01*
X124186768Y-65866433D01*
X124162287Y-65818386D01*
X124153878Y-65806812D01*
X124041971Y-65652782D01*
X123897213Y-65508024D01*
X123731614Y-65387711D01*
X123637285Y-65339648D01*
X123586489Y-65291673D01*
X123569694Y-65223852D01*
X123592231Y-65157717D01*
X123637285Y-65118678D01*
X123731610Y-65070617D01*
X123752770Y-65055243D01*
X123881245Y-64961902D01*
X128199500Y-64961902D01*
X128199500Y-65198097D01*
X128236446Y-65431368D01*
X128309433Y-65655996D01*
X128392174Y-65818382D01*
X128416657Y-65866433D01*
X128555483Y-66057510D01*
X128722490Y-66224517D01*
X128913567Y-66363343D01*
X128975046Y-66394668D01*
X129124003Y-66470566D01*
X129124005Y-66470566D01*
X129124008Y-66470568D01*
X129216129Y-66500500D01*
X129348631Y-66543553D01*
X129581903Y-66580500D01*
X129581908Y-66580500D01*
X130418097Y-66580500D01*
X130651368Y-66543553D01*
X130875992Y-66470568D01*
X131086433Y-66363343D01*
X131277510Y-66224517D01*
X131444517Y-66057510D01*
X131583343Y-65866433D01*
X131690568Y-65655992D01*
X131763553Y-65431368D01*
X131785187Y-65294776D01*
X131800500Y-65198097D01*
X131800500Y-64961902D01*
X131763553Y-64728631D01*
X131690566Y-64504003D01*
X131619147Y-64363836D01*
X131583343Y-64293567D01*
X131444517Y-64102490D01*
X131277510Y-63935483D01*
X131086433Y-63796657D01*
X130875996Y-63689433D01*
X130651368Y-63616446D01*
X130418097Y-63579500D01*
X130418092Y-63579500D01*
X129581908Y-63579500D01*
X129581903Y-63579500D01*
X129348631Y-63616446D01*
X129124003Y-63689433D01*
X128913566Y-63796657D01*
X128831919Y-63855978D01*
X128722490Y-63935483D01*
X128722488Y-63935485D01*
X128722487Y-63935485D01*
X128555485Y-64102487D01*
X128555485Y-64102488D01*
X128555483Y-64102490D01*
X128495862Y-64184550D01*
X128416657Y-64293566D01*
X128309433Y-64504003D01*
X128236446Y-64728631D01*
X128199500Y-64961902D01*
X123881245Y-64961902D01*
X123897213Y-64950301D01*
X123897215Y-64950298D01*
X123897219Y-64950296D01*
X124041966Y-64805549D01*
X124041968Y-64805545D01*
X124041971Y-64805543D01*
X124097850Y-64728631D01*
X124162287Y-64639940D01*
X124255220Y-64457549D01*
X124266929Y-64421509D01*
X124306367Y-64363836D01*
X124370726Y-64336638D01*
X124384860Y-64335830D01*
X126091367Y-64335830D01*
X126091369Y-64335830D01*
X126187380Y-64310104D01*
X126273460Y-64260405D01*
X129084836Y-61449027D01*
X129146157Y-61415544D01*
X129210832Y-61418778D01*
X129348632Y-61463553D01*
X129436110Y-61477408D01*
X129581903Y-61500500D01*
X129581908Y-61500500D01*
X130418097Y-61500500D01*
X130651368Y-61463553D01*
X130696068Y-61449029D01*
X130875992Y-61390568D01*
X131086433Y-61283343D01*
X131277510Y-61144517D01*
X131444517Y-60977510D01*
X131583343Y-60786433D01*
X131690568Y-60575992D01*
X131763553Y-60351368D01*
X131785715Y-60211444D01*
X131800500Y-60118097D01*
X131800500Y-59881902D01*
X131763553Y-59648631D01*
X131690566Y-59424003D01*
X131583342Y-59213566D01*
X131558615Y-59179532D01*
X131444517Y-59022490D01*
X131277510Y-58855483D01*
X131086433Y-58716657D01*
X130875996Y-58609433D01*
X130651368Y-58536446D01*
X130418097Y-58499500D01*
X130418092Y-58499500D01*
X129581908Y-58499500D01*
X129581903Y-58499500D01*
X129348631Y-58536446D01*
X129124003Y-58609433D01*
X128913566Y-58716657D01*
X128804550Y-58795862D01*
X128722490Y-58855483D01*
X128722488Y-58855485D01*
X128722487Y-58855485D01*
X128555485Y-59022487D01*
X128555485Y-59022488D01*
X128555483Y-59022490D01*
X128527349Y-59061213D01*
X128416657Y-59213566D01*
X128309433Y-59424003D01*
X128236446Y-59648631D01*
X128199500Y-59881902D01*
X128199500Y-60118097D01*
X128236446Y-60351368D01*
X128309433Y-60575996D01*
X128416659Y-60786437D01*
X128465097Y-60853105D01*
X128488578Y-60918911D01*
X128472753Y-60986965D01*
X128452461Y-61013672D01*
X125921624Y-63544511D01*
X125860301Y-63577996D01*
X125833943Y-63580830D01*
X124384860Y-63580830D01*
X124317821Y-63561145D01*
X124272066Y-63508341D01*
X124266929Y-63495149D01*
X124261854Y-63479530D01*
X124255220Y-63459111D01*
X124255218Y-63459108D01*
X124255218Y-63459106D01*
X124221503Y-63392937D01*
X124162287Y-63276720D01*
X124154556Y-63266079D01*
X124041971Y-63111116D01*
X123897213Y-62966358D01*
X123731614Y-62846045D01*
X123637285Y-62797982D01*
X123586489Y-62750007D01*
X123569694Y-62682186D01*
X123592231Y-62616051D01*
X123637285Y-62577012D01*
X123731610Y-62528951D01*
X123776062Y-62496655D01*
X123897213Y-62408635D01*
X123897215Y-62408632D01*
X123897219Y-62408630D01*
X124041966Y-62263883D01*
X124041968Y-62263879D01*
X124041971Y-62263877D01*
X124098754Y-62185721D01*
X124162287Y-62098274D01*
X124255220Y-61915883D01*
X124318477Y-61721198D01*
X124350500Y-61519016D01*
X124350500Y-61314312D01*
X124318477Y-61112130D01*
X124255220Y-60917445D01*
X124255218Y-60917442D01*
X124255218Y-60917440D01*
X124221503Y-60851271D01*
X124162287Y-60735054D01*
X124152493Y-60721573D01*
X124041971Y-60569450D01*
X123897213Y-60424692D01*
X123731614Y-60304379D01*
X123637285Y-60256316D01*
X123586489Y-60208341D01*
X123569694Y-60140520D01*
X123592231Y-60074385D01*
X123637285Y-60035346D01*
X123731610Y-59987285D01*
X123815251Y-59926517D01*
X123897213Y-59866969D01*
X123897215Y-59866966D01*
X123897219Y-59866964D01*
X124041966Y-59722217D01*
X124041968Y-59722213D01*
X124041971Y-59722211D01*
X124104747Y-59635805D01*
X124162287Y-59556608D01*
X124255220Y-59374217D01*
X124318477Y-59179532D01*
X124350500Y-58977350D01*
X124350500Y-58772646D01*
X124327351Y-58626489D01*
X124318477Y-58570463D01*
X124255218Y-58375774D01*
X124221503Y-58309605D01*
X124162287Y-58193388D01*
X124133658Y-58153983D01*
X124041971Y-58027784D01*
X123897213Y-57883026D01*
X123731611Y-57762711D01*
X123636734Y-57714368D01*
X123585939Y-57666394D01*
X123569144Y-57598573D01*
X123591682Y-57532438D01*
X123636736Y-57493399D01*
X123731347Y-57445193D01*
X123896894Y-57324914D01*
X123896895Y-57324914D01*
X124041582Y-57180227D01*
X124041582Y-57180226D01*
X124161859Y-57014681D01*
X124254755Y-56832361D01*
X124317990Y-56637745D01*
X124326609Y-56583332D01*
X123083012Y-56583332D01*
X123115925Y-56526325D01*
X123150000Y-56399158D01*
X123150000Y-56267506D01*
X123115925Y-56140339D01*
X123083012Y-56083332D01*
X124326609Y-56083332D01*
X124317990Y-56028918D01*
X124254755Y-55834302D01*
X124161859Y-55651982D01*
X124041582Y-55486437D01*
X124041582Y-55486436D01*
X123896895Y-55341749D01*
X123731349Y-55221472D01*
X123636735Y-55173264D01*
X123585939Y-55125290D01*
X123569144Y-55057469D01*
X123591681Y-54991334D01*
X123636734Y-54952294D01*
X123731610Y-54903953D01*
X123752770Y-54888579D01*
X123872011Y-54801947D01*
X128200000Y-54801947D01*
X128200000Y-55038052D01*
X128236934Y-55271247D01*
X128309897Y-55495802D01*
X128417085Y-55706171D01*
X128555866Y-55897186D01*
X128612564Y-55953884D01*
X129476212Y-55090235D01*
X129487482Y-55132292D01*
X129559890Y-55257708D01*
X129662292Y-55360110D01*
X129787708Y-55432518D01*
X129829764Y-55443787D01*
X129017707Y-56255842D01*
X129124202Y-56310104D01*
X129348752Y-56383065D01*
X129348751Y-56383065D01*
X129581948Y-56420000D01*
X130418052Y-56420000D01*
X130651247Y-56383065D01*
X130875798Y-56310104D01*
X130875805Y-56310101D01*
X130982291Y-56255842D01*
X130170235Y-55443787D01*
X130212292Y-55432518D01*
X130337708Y-55360110D01*
X130440110Y-55257708D01*
X130512518Y-55132292D01*
X130523787Y-55090235D01*
X131387436Y-55953884D01*
X131444133Y-55897186D01*
X131582914Y-55706171D01*
X131690102Y-55495802D01*
X131763065Y-55271247D01*
X131800000Y-55038052D01*
X131800000Y-54801947D01*
X131763065Y-54568752D01*
X131690102Y-54344197D01*
X131582914Y-54133828D01*
X131444133Y-53942813D01*
X131387436Y-53886116D01*
X130523787Y-54749764D01*
X130512518Y-54707708D01*
X130440110Y-54582292D01*
X130337708Y-54479890D01*
X130212292Y-54407482D01*
X130170235Y-54396212D01*
X130982291Y-53584156D01*
X130875802Y-53529897D01*
X130651247Y-53456934D01*
X130651248Y-53456934D01*
X130418052Y-53420000D01*
X129581948Y-53420000D01*
X129348752Y-53456934D01*
X129124197Y-53529897D01*
X129017708Y-53584156D01*
X129829764Y-54396212D01*
X129787708Y-54407482D01*
X129662292Y-54479890D01*
X129559890Y-54582292D01*
X129487482Y-54707708D01*
X129476212Y-54749764D01*
X128612564Y-53886116D01*
X128555866Y-53942813D01*
X128417085Y-54133828D01*
X128309897Y-54344197D01*
X128236934Y-54568752D01*
X128200000Y-54801947D01*
X123872011Y-54801947D01*
X123897213Y-54783637D01*
X123897215Y-54783634D01*
X123897219Y-54783632D01*
X124041966Y-54638885D01*
X124041968Y-54638881D01*
X124041971Y-54638879D01*
X124094732Y-54566256D01*
X124162287Y-54473276D01*
X124255220Y-54290885D01*
X124318477Y-54096200D01*
X124350500Y-53894018D01*
X124350500Y-53689314D01*
X124318636Y-53488133D01*
X124318477Y-53487131D01*
X124255218Y-53292442D01*
X124193600Y-53171512D01*
X124162287Y-53110056D01*
X124154556Y-53099415D01*
X124041971Y-52944452D01*
X123897213Y-52799694D01*
X123731614Y-52679381D01*
X123637285Y-52631318D01*
X123586489Y-52583343D01*
X123569694Y-52515522D01*
X123592231Y-52449387D01*
X123637285Y-52410348D01*
X123731610Y-52362287D01*
X123765421Y-52337722D01*
X123897213Y-52241971D01*
X123897215Y-52241968D01*
X123897219Y-52241966D01*
X124041966Y-52097219D01*
X124041968Y-52097215D01*
X124041971Y-52097213D01*
X124116955Y-51994004D01*
X124162287Y-51931610D01*
X124255220Y-51749219D01*
X124318477Y-51554534D01*
X124350500Y-51352352D01*
X124350500Y-51147648D01*
X124335068Y-51050216D01*
X124318477Y-50945465D01*
X124269295Y-50794099D01*
X124255220Y-50750781D01*
X124255218Y-50750778D01*
X124255218Y-50750776D01*
X124232091Y-50705388D01*
X124219559Y-50680794D01*
X124206664Y-50612126D01*
X124232940Y-50547386D01*
X124290046Y-50507128D01*
X124330045Y-50500500D01*
X127995034Y-50500500D01*
X127997017Y-50500515D01*
X128260886Y-50504738D01*
X128264907Y-50504870D01*
X128535404Y-50518225D01*
X128539646Y-50518508D01*
X128804957Y-50540847D01*
X128809200Y-50541279D01*
X129071673Y-50572682D01*
X129075985Y-50573275D01*
X129333638Y-50613402D01*
X129337943Y-50614151D01*
X129593721Y-50663395D01*
X129598004Y-50664300D01*
X129849066Y-50722058D01*
X129853343Y-50723123D01*
X130103366Y-50790228D01*
X130107553Y-50791433D01*
X130352992Y-50866919D01*
X130357191Y-50868294D01*
X130602278Y-50953498D01*
X130606436Y-50955028D01*
X130846999Y-51048533D01*
X130851082Y-51050205D01*
X131091378Y-51153722D01*
X131092107Y-51154036D01*
X131096104Y-51155842D01*
X131332722Y-51267995D01*
X131336608Y-51269923D01*
X131425158Y-51315826D01*
X131574278Y-51393127D01*
X131578128Y-51395210D01*
X131811264Y-51526702D01*
X131814992Y-51528891D01*
X131995006Y-51638888D01*
X132049893Y-51672426D01*
X132053507Y-51674721D01*
X132283808Y-51826606D01*
X132287294Y-51828991D01*
X132519860Y-51994004D01*
X132523211Y-51996467D01*
X132751126Y-52169958D01*
X132754245Y-52172414D01*
X132984863Y-52360297D01*
X132987905Y-52362860D01*
X133213518Y-52559161D01*
X133216449Y-52561794D01*
X133445070Y-52773844D01*
X133447859Y-52776512D01*
X133502243Y-52830197D01*
X133617984Y-52944452D01*
X133671343Y-52997125D01*
X133673980Y-52999809D01*
X133900702Y-53237684D01*
X133900713Y-53237695D01*
X133903219Y-53240404D01*
X134124430Y-53486777D01*
X134126799Y-53489493D01*
X134351437Y-53754805D01*
X134353670Y-53757520D01*
X134572423Y-54031253D01*
X134574526Y-54033960D01*
X134796728Y-54328339D01*
X134798674Y-54330990D01*
X135014613Y-54633682D01*
X135016466Y-54636353D01*
X135235841Y-54961571D01*
X135237575Y-54964215D01*
X135450168Y-55297399D01*
X135451765Y-55299971D01*
X135664110Y-55651722D01*
X135667652Y-55657589D01*
X135669166Y-55660167D01*
X135877836Y-56025460D01*
X135879242Y-56027991D01*
X135881007Y-56031256D01*
X136090940Y-56419638D01*
X136092255Y-56422139D01*
X136296171Y-56820854D01*
X136297396Y-56823315D01*
X136504093Y-57250568D01*
X136505230Y-57252984D01*
X136703508Y-57686403D01*
X136704563Y-57688776D01*
X136905194Y-58152789D01*
X136906173Y-58155116D01*
X137097759Y-58624205D01*
X137098665Y-58626489D01*
X137292152Y-59128423D01*
X137292991Y-59130663D01*
X137476607Y-59635805D01*
X137477382Y-59638002D01*
X137662373Y-60178346D01*
X137663089Y-60180501D01*
X137837328Y-60721573D01*
X137837989Y-60723690D01*
X138012895Y-61302088D01*
X138013503Y-61304166D01*
X138176686Y-61879895D01*
X138177247Y-61881940D01*
X138340181Y-62496684D01*
X138340697Y-62498698D01*
X138490843Y-63106130D01*
X138491317Y-63108119D01*
X138640000Y-63755251D01*
X138640435Y-63757217D01*
X138775110Y-64390331D01*
X138775510Y-64392285D01*
X138907061Y-65063594D01*
X138907426Y-65065541D01*
X139023646Y-65713274D01*
X139023980Y-65715227D01*
X139134546Y-66393638D01*
X139134852Y-66395611D01*
X139228824Y-67037114D01*
X139229101Y-67039124D01*
X139313629Y-67690262D01*
X139313882Y-67692346D01*
X139380966Y-68287930D01*
X139381192Y-68290106D01*
X139433955Y-68846682D01*
X139434157Y-68849060D01*
X139470234Y-69327456D01*
X139470472Y-69331486D01*
X139499387Y-70008042D01*
X139499500Y-70013337D01*
X139499500Y-116997438D01*
X139499394Y-117002562D01*
X139480928Y-117449016D01*
X139480082Y-117459230D01*
X139425128Y-117900099D01*
X139423441Y-117910208D01*
X139332269Y-118345028D01*
X139329753Y-118354963D01*
X139202984Y-118780773D01*
X139199656Y-118790466D01*
X139038161Y-119204339D01*
X139034045Y-119213724D01*
X138838919Y-119612863D01*
X138834041Y-119621877D01*
X138606616Y-120003544D01*
X138601010Y-120012123D01*
X138342859Y-120373687D01*
X138336564Y-120381775D01*
X138049428Y-120720796D01*
X138042487Y-120728336D01*
X137728336Y-121042487D01*
X137720796Y-121049428D01*
X137381775Y-121336564D01*
X137373687Y-121342859D01*
X137012123Y-121601010D01*
X137003544Y-121606616D01*
X136621877Y-121834041D01*
X136612863Y-121838919D01*
X136213724Y-122034045D01*
X136204339Y-122038161D01*
X135790466Y-122199656D01*
X135780773Y-122202984D01*
X135354963Y-122329753D01*
X135345028Y-122332269D01*
X134910208Y-122423441D01*
X134900099Y-122425128D01*
X134459230Y-122480082D01*
X134449016Y-122480928D01*
X134002563Y-122499394D01*
X133997439Y-122499500D01*
X101589753Y-122499500D01*
X101522714Y-122479815D01*
X101476959Y-122427011D01*
X101465753Y-122375500D01*
X101465753Y-120788463D01*
X96112566Y-120788463D01*
X96112566Y-122374921D01*
X96092881Y-122441960D01*
X96040077Y-122487715D01*
X95983442Y-122498815D01*
X95550983Y-122480928D01*
X95540769Y-122480082D01*
X95099900Y-122425128D01*
X95089791Y-122423441D01*
X94654971Y-122332269D01*
X94645036Y-122329753D01*
X94219226Y-122202984D01*
X94209533Y-122199656D01*
X93795660Y-122038161D01*
X93786275Y-122034045D01*
X93387136Y-121838919D01*
X93378122Y-121834041D01*
X92996455Y-121606616D01*
X92987876Y-121601010D01*
X92626312Y-121342859D01*
X92618224Y-121336564D01*
X92279203Y-121049428D01*
X92271663Y-121042487D01*
X91957512Y-120728336D01*
X91950571Y-120720796D01*
X91907715Y-120670196D01*
X91742942Y-120475649D01*
X102590000Y-120475649D01*
X102592899Y-120512489D01*
X102592900Y-120512495D01*
X102638716Y-120670193D01*
X102638717Y-120670196D01*
X102722314Y-120811552D01*
X102722321Y-120811561D01*
X102838438Y-120927678D01*
X102838447Y-120927685D01*
X102979803Y-121011282D01*
X102979806Y-121011283D01*
X103137504Y-121057099D01*
X103137510Y-121057100D01*
X103174350Y-121059999D01*
X103174366Y-121060000D01*
X103750000Y-121060000D01*
X104250000Y-121060000D01*
X104825634Y-121060000D01*
X104825649Y-121059999D01*
X104862489Y-121057100D01*
X104862495Y-121057099D01*
X105020193Y-121011283D01*
X105020196Y-121011282D01*
X105161552Y-120927685D01*
X105161561Y-120927678D01*
X105277678Y-120811561D01*
X105277685Y-120811552D01*
X105361282Y-120670196D01*
X105361283Y-120670193D01*
X105407099Y-120512495D01*
X105407100Y-120512489D01*
X105409999Y-120475649D01*
X105410000Y-120475634D01*
X105410000Y-120210000D01*
X104250000Y-120210000D01*
X104250000Y-121060000D01*
X103750000Y-121060000D01*
X103750000Y-120210000D01*
X102590000Y-120210000D01*
X102590000Y-120475649D01*
X91742942Y-120475649D01*
X91663431Y-120381770D01*
X91657140Y-120373687D01*
X91645376Y-120357211D01*
X91398989Y-120012123D01*
X91393383Y-120003544D01*
X91165958Y-119621877D01*
X91161080Y-119612863D01*
X91104137Y-119496383D01*
X91078700Y-119444350D01*
X102590000Y-119444350D01*
X102590000Y-119710000D01*
X103750000Y-119710000D01*
X103750000Y-118860000D01*
X103174350Y-118860000D01*
X103137510Y-118862899D01*
X103137504Y-118862900D01*
X102979806Y-118908716D01*
X102979803Y-118908717D01*
X102838447Y-118992314D01*
X102838438Y-118992321D01*
X102722321Y-119108438D01*
X102722314Y-119108447D01*
X102638717Y-119249803D01*
X102638716Y-119249806D01*
X102592900Y-119407504D01*
X102592899Y-119407510D01*
X102590000Y-119444350D01*
X91078700Y-119444350D01*
X90965954Y-119213724D01*
X90961838Y-119204339D01*
X90871830Y-118973669D01*
X90800338Y-118790454D01*
X90797019Y-118780786D01*
X90670242Y-118354950D01*
X90667733Y-118345042D01*
X90576555Y-117910194D01*
X90574873Y-117900114D01*
X90519915Y-117459209D01*
X90519072Y-117449036D01*
X90500606Y-117002562D01*
X90500500Y-116997438D01*
X90500500Y-113898744D01*
X95518800Y-113898744D01*
X95525201Y-113958272D01*
X95525203Y-113958279D01*
X95575445Y-114092986D01*
X95575449Y-114092993D01*
X95661609Y-114208087D01*
X95661612Y-114208090D01*
X95776706Y-114294250D01*
X95776713Y-114294254D01*
X95911420Y-114344496D01*
X95911427Y-114344498D01*
X95970955Y-114350899D01*
X95970972Y-114350900D01*
X96276800Y-114350900D01*
X96276800Y-113250000D01*
X95518800Y-113250000D01*
X95518800Y-113898744D01*
X90500500Y-113898744D01*
X90500500Y-112101255D01*
X95518800Y-112101255D01*
X95518800Y-112750000D01*
X96276800Y-112750000D01*
X96276800Y-111649100D01*
X95970955Y-111649100D01*
X95911427Y-111655501D01*
X95911420Y-111655503D01*
X95776713Y-111705745D01*
X95776706Y-111705749D01*
X95661612Y-111791909D01*
X95661609Y-111791912D01*
X95575449Y-111907006D01*
X95575445Y-111907013D01*
X95525203Y-112041720D01*
X95525201Y-112041727D01*
X95518800Y-112101255D01*
X90500500Y-112101255D01*
X90500500Y-108825649D01*
X95440000Y-108825649D01*
X95442899Y-108862489D01*
X95442900Y-108862495D01*
X95488716Y-109020193D01*
X95488717Y-109020196D01*
X95572314Y-109161552D01*
X95572321Y-109161561D01*
X95688438Y-109277678D01*
X95688447Y-109277685D01*
X95829803Y-109361282D01*
X95829806Y-109361283D01*
X95987504Y-109407099D01*
X95987510Y-109407100D01*
X96024350Y-109409999D01*
X96024366Y-109410000D01*
X96290000Y-109410000D01*
X96790000Y-109410000D01*
X97055634Y-109410000D01*
X97055649Y-109409999D01*
X97092489Y-109407100D01*
X97092495Y-109407099D01*
X97250193Y-109361283D01*
X97250196Y-109361282D01*
X97391552Y-109277685D01*
X97391561Y-109277678D01*
X97507678Y-109161561D01*
X97507685Y-109161552D01*
X97591282Y-109020196D01*
X97591283Y-109020193D01*
X97637099Y-108862495D01*
X97637100Y-108862489D01*
X97639999Y-108825649D01*
X97640000Y-108825634D01*
X97640000Y-108250000D01*
X96790000Y-108250000D01*
X96790000Y-109410000D01*
X96290000Y-109410000D01*
X96290000Y-108250000D01*
X95440000Y-108250000D01*
X95440000Y-108825649D01*
X90500500Y-108825649D01*
X90500500Y-107174350D01*
X95440000Y-107174350D01*
X95440000Y-107750000D01*
X96290000Y-107750000D01*
X96790000Y-107750000D01*
X97640000Y-107750000D01*
X97640000Y-107174365D01*
X97639999Y-107174350D01*
X97637100Y-107137510D01*
X97637099Y-107137504D01*
X97591283Y-106979806D01*
X97591282Y-106979803D01*
X97507685Y-106838447D01*
X97507678Y-106838438D01*
X97391561Y-106722321D01*
X97391552Y-106722314D01*
X97250196Y-106638717D01*
X97250193Y-106638716D01*
X97092495Y-106592900D01*
X97092489Y-106592899D01*
X97055649Y-106590000D01*
X96790000Y-106590000D01*
X96790000Y-107750000D01*
X96290000Y-107750000D01*
X96290000Y-106590000D01*
X96024350Y-106590000D01*
X95987510Y-106592899D01*
X95987504Y-106592900D01*
X95829806Y-106638716D01*
X95829803Y-106638717D01*
X95688447Y-106722314D01*
X95688438Y-106722321D01*
X95572321Y-106838438D01*
X95572314Y-106838447D01*
X95488717Y-106979803D01*
X95488716Y-106979806D01*
X95442900Y-107137504D01*
X95442899Y-107137510D01*
X95440000Y-107174350D01*
X90500500Y-107174350D01*
X90500500Y-103461902D01*
X93199500Y-103461902D01*
X93199500Y-103698097D01*
X93236446Y-103931368D01*
X93309433Y-104155996D01*
X93416657Y-104366433D01*
X93555483Y-104557510D01*
X93722490Y-104724517D01*
X93913567Y-104863343D01*
X93994075Y-104904364D01*
X94124003Y-104970566D01*
X94124005Y-104970566D01*
X94124008Y-104970568D01*
X94217526Y-105000954D01*
X94348631Y-105043553D01*
X94581903Y-105080500D01*
X94581908Y-105080500D01*
X95418097Y-105080500D01*
X95651368Y-105043553D01*
X95681751Y-105033681D01*
X95875992Y-104970568D01*
X96086433Y-104863343D01*
X96277510Y-104724517D01*
X96444517Y-104557510D01*
X96583343Y-104366433D01*
X96690568Y-104155992D01*
X96763553Y-103931368D01*
X96792279Y-103750000D01*
X96800500Y-103698097D01*
X96800500Y-103461902D01*
X96763553Y-103228631D01*
X96714800Y-103078587D01*
X96690568Y-103004008D01*
X96690566Y-103004005D01*
X96690566Y-103004003D01*
X96583342Y-102793566D01*
X96564920Y-102768210D01*
X96444517Y-102602490D01*
X96277510Y-102435483D01*
X96086433Y-102296657D01*
X96045252Y-102275674D01*
X95875996Y-102189433D01*
X95651368Y-102116446D01*
X95418097Y-102079500D01*
X95418092Y-102079500D01*
X94581908Y-102079500D01*
X94581903Y-102079500D01*
X94348631Y-102116446D01*
X94124003Y-102189433D01*
X93913566Y-102296657D01*
X93843022Y-102347911D01*
X93722490Y-102435483D01*
X93722488Y-102435485D01*
X93722487Y-102435485D01*
X93555485Y-102602487D01*
X93555485Y-102602488D01*
X93555483Y-102602490D01*
X93495862Y-102684550D01*
X93416657Y-102793566D01*
X93309433Y-103004003D01*
X93236446Y-103228631D01*
X93199500Y-103461902D01*
X90500500Y-103461902D01*
X90500500Y-98381902D01*
X93199500Y-98381902D01*
X93199500Y-98618097D01*
X93236446Y-98851368D01*
X93309433Y-99075996D01*
X93416657Y-99286433D01*
X93555483Y-99477510D01*
X93722490Y-99644517D01*
X93913567Y-99783343D01*
X94012991Y-99834002D01*
X94124003Y-99890566D01*
X94124005Y-99890566D01*
X94124008Y-99890568D01*
X94184737Y-99910300D01*
X94348631Y-99963553D01*
X94581903Y-100000500D01*
X94581908Y-100000500D01*
X95418097Y-100000500D01*
X95651368Y-99963553D01*
X95692159Y-99950299D01*
X95875992Y-99890568D01*
X96086433Y-99783343D01*
X96277510Y-99644517D01*
X96444517Y-99477510D01*
X96583343Y-99286433D01*
X96690568Y-99075992D01*
X96763553Y-98851368D01*
X96800500Y-98618097D01*
X96800500Y-98381902D01*
X96763553Y-98148631D01*
X96690566Y-97924003D01*
X96634002Y-97812991D01*
X96583343Y-97713567D01*
X96444517Y-97522490D01*
X96277510Y-97355483D01*
X96086433Y-97216657D01*
X95875996Y-97109433D01*
X95651368Y-97036446D01*
X95418097Y-96999500D01*
X95418092Y-96999500D01*
X94581908Y-96999500D01*
X94581903Y-96999500D01*
X94348631Y-97036446D01*
X94124003Y-97109433D01*
X93913566Y-97216657D01*
X93817900Y-97286163D01*
X93722490Y-97355483D01*
X93722488Y-97355485D01*
X93722487Y-97355485D01*
X93555485Y-97522487D01*
X93555485Y-97522488D01*
X93555483Y-97522490D01*
X93495862Y-97604550D01*
X93416657Y-97713566D01*
X93309433Y-97924003D01*
X93236446Y-98148631D01*
X93199500Y-98381902D01*
X90500500Y-98381902D01*
X90500500Y-93301947D01*
X93200000Y-93301947D01*
X93200000Y-93538052D01*
X93236934Y-93771247D01*
X93309897Y-93995802D01*
X93417085Y-94206171D01*
X93555866Y-94397186D01*
X93612564Y-94453884D01*
X94476212Y-93590235D01*
X94487482Y-93632292D01*
X94559890Y-93757708D01*
X94662292Y-93860110D01*
X94787708Y-93932518D01*
X94829764Y-93943787D01*
X94017707Y-94755842D01*
X94124202Y-94810104D01*
X94348752Y-94883065D01*
X94348751Y-94883065D01*
X94581948Y-94920000D01*
X95418052Y-94920000D01*
X95651247Y-94883065D01*
X95875798Y-94810104D01*
X95875805Y-94810101D01*
X95982291Y-94755842D01*
X95170235Y-93943787D01*
X95212292Y-93932518D01*
X95337708Y-93860110D01*
X95440110Y-93757708D01*
X95512518Y-93632292D01*
X95523787Y-93590235D01*
X96387436Y-94453884D01*
X96444133Y-94397186D01*
X96582914Y-94206171D01*
X96690102Y-93995802D01*
X96763065Y-93771247D01*
X96800000Y-93538052D01*
X96800000Y-93301947D01*
X96763065Y-93068752D01*
X96690102Y-92844197D01*
X96582914Y-92633828D01*
X96444133Y-92442813D01*
X96387436Y-92386116D01*
X95523787Y-93249764D01*
X95512518Y-93207708D01*
X95440110Y-93082292D01*
X95337708Y-92979890D01*
X95212292Y-92907482D01*
X95170235Y-92896212D01*
X95982291Y-92084156D01*
X95875802Y-92029897D01*
X95651247Y-91956934D01*
X95651248Y-91956934D01*
X95418052Y-91920000D01*
X94581948Y-91920000D01*
X94348752Y-91956934D01*
X94124197Y-92029897D01*
X94017708Y-92084156D01*
X94829764Y-92896212D01*
X94787708Y-92907482D01*
X94662292Y-92979890D01*
X94559890Y-93082292D01*
X94487482Y-93207708D01*
X94476212Y-93249764D01*
X93612564Y-92386116D01*
X93555866Y-92442813D01*
X93417085Y-92633828D01*
X93309897Y-92844197D01*
X93236934Y-93068752D01*
X93200000Y-93301947D01*
X90500500Y-93301947D01*
X90500500Y-89961902D01*
X93199500Y-89961902D01*
X93199500Y-90198097D01*
X93236446Y-90431368D01*
X93309433Y-90655996D01*
X93375757Y-90786162D01*
X93416657Y-90866433D01*
X93555483Y-91057510D01*
X93722490Y-91224517D01*
X93913567Y-91363343D01*
X93966083Y-91390101D01*
X94124003Y-91470566D01*
X94124005Y-91470566D01*
X94124008Y-91470568D01*
X94196401Y-91494090D01*
X94348631Y-91543553D01*
X94581903Y-91580500D01*
X94581908Y-91580500D01*
X95418097Y-91580500D01*
X95651368Y-91543553D01*
X95875992Y-91470568D01*
X96086433Y-91363343D01*
X96277510Y-91224517D01*
X96444517Y-91057510D01*
X96583343Y-90866433D01*
X96690568Y-90655992D01*
X96763553Y-90431368D01*
X96783707Y-90304120D01*
X96800500Y-90198097D01*
X96800500Y-89961902D01*
X96763553Y-89728631D01*
X96701760Y-89538453D01*
X96690568Y-89504008D01*
X96690566Y-89504005D01*
X96690566Y-89504003D01*
X96583342Y-89293566D01*
X96444517Y-89102490D01*
X96277510Y-88935483D01*
X96086433Y-88796657D01*
X96077829Y-88792273D01*
X95875996Y-88689433D01*
X95651368Y-88616446D01*
X95418097Y-88579500D01*
X95418092Y-88579500D01*
X94581908Y-88579500D01*
X94581903Y-88579500D01*
X94348631Y-88616446D01*
X94124003Y-88689433D01*
X93913566Y-88796657D01*
X93804550Y-88875862D01*
X93722490Y-88935483D01*
X93722488Y-88935485D01*
X93722487Y-88935485D01*
X93555485Y-89102487D01*
X93555485Y-89102488D01*
X93555483Y-89102490D01*
X93534848Y-89130892D01*
X93416657Y-89293566D01*
X93309433Y-89504003D01*
X93236446Y-89728631D01*
X93199500Y-89961902D01*
X90500500Y-89961902D01*
X90500500Y-79801947D01*
X93200000Y-79801947D01*
X93200000Y-80038052D01*
X93236934Y-80271247D01*
X93309897Y-80495802D01*
X93417085Y-80706171D01*
X93555866Y-80897186D01*
X93612564Y-80953884D01*
X94476212Y-80090235D01*
X94487482Y-80132292D01*
X94559890Y-80257708D01*
X94662292Y-80360110D01*
X94787708Y-80432518D01*
X94829764Y-80443787D01*
X94017707Y-81255842D01*
X94124202Y-81310104D01*
X94348752Y-81383065D01*
X94348751Y-81383065D01*
X94581948Y-81420000D01*
X95418052Y-81420000D01*
X95651247Y-81383065D01*
X95875798Y-81310104D01*
X95875805Y-81310101D01*
X95982291Y-81255842D01*
X95170235Y-80443787D01*
X95212292Y-80432518D01*
X95337708Y-80360110D01*
X95440110Y-80257708D01*
X95512518Y-80132292D01*
X95523787Y-80090235D01*
X96387436Y-80953884D01*
X96444133Y-80897186D01*
X96582914Y-80706171D01*
X96690102Y-80495802D01*
X96763065Y-80271247D01*
X96800000Y-80038052D01*
X96800000Y-79801947D01*
X96763065Y-79568752D01*
X96690102Y-79344197D01*
X96582914Y-79133828D01*
X96444133Y-78942813D01*
X96387436Y-78886116D01*
X95523787Y-79749764D01*
X95512518Y-79707708D01*
X95440110Y-79582292D01*
X95337708Y-79479890D01*
X95212292Y-79407482D01*
X95170235Y-79396212D01*
X95982291Y-78584156D01*
X95875802Y-78529897D01*
X95651247Y-78456934D01*
X95651248Y-78456934D01*
X95418052Y-78420000D01*
X94581948Y-78420000D01*
X94348752Y-78456934D01*
X94124197Y-78529897D01*
X94017708Y-78584156D01*
X94829764Y-79396212D01*
X94787708Y-79407482D01*
X94662292Y-79479890D01*
X94559890Y-79582292D01*
X94487482Y-79707708D01*
X94476212Y-79749764D01*
X93612564Y-78886116D01*
X93555866Y-78942813D01*
X93417085Y-79133828D01*
X93309897Y-79344197D01*
X93236934Y-79568752D01*
X93200000Y-79801947D01*
X90500500Y-79801947D01*
X90500500Y-70013337D01*
X90500613Y-70008043D01*
X90502236Y-69970070D01*
X90529528Y-69331440D01*
X90529761Y-69327505D01*
X90565844Y-68849026D01*
X90566044Y-68846679D01*
X90618815Y-68290006D01*
X90619018Y-68288054D01*
X90686117Y-67692332D01*
X90686369Y-67690261D01*
X90701873Y-67570831D01*
X90770900Y-67039097D01*
X90771174Y-67037114D01*
X90834862Y-66602347D01*
X90865153Y-66395564D01*
X90865426Y-66393801D01*
X90976025Y-65715187D01*
X90976352Y-65713278D01*
X90980047Y-65692686D01*
X91092587Y-65065457D01*
X91092937Y-65063594D01*
X91112865Y-64961902D01*
X98199500Y-64961902D01*
X98199500Y-65198097D01*
X98236446Y-65431368D01*
X98309433Y-65655996D01*
X98392174Y-65818382D01*
X98416657Y-65866433D01*
X98555483Y-66057510D01*
X98722490Y-66224517D01*
X98913567Y-66363343D01*
X98975046Y-66394668D01*
X99124003Y-66470566D01*
X99124005Y-66470566D01*
X99124008Y-66470568D01*
X99216129Y-66500500D01*
X99348631Y-66543553D01*
X99581903Y-66580500D01*
X99581908Y-66580500D01*
X100418097Y-66580500D01*
X100651368Y-66543553D01*
X100875992Y-66470568D01*
X101086433Y-66363343D01*
X101277510Y-66224517D01*
X101444517Y-66057510D01*
X101583343Y-65866433D01*
X101690568Y-65655992D01*
X101763553Y-65431368D01*
X101785187Y-65294776D01*
X101800500Y-65198097D01*
X101800500Y-64961902D01*
X101763553Y-64728631D01*
X101690566Y-64504003D01*
X101619147Y-64363836D01*
X101583343Y-64293567D01*
X101444517Y-64102490D01*
X101277510Y-63935483D01*
X101086433Y-63796657D01*
X100875996Y-63689433D01*
X100651368Y-63616446D01*
X100418097Y-63579500D01*
X100418092Y-63579500D01*
X99581908Y-63579500D01*
X99581903Y-63579500D01*
X99348631Y-63616446D01*
X99124003Y-63689433D01*
X98913566Y-63796657D01*
X98831919Y-63855978D01*
X98722490Y-63935483D01*
X98722488Y-63935485D01*
X98722487Y-63935485D01*
X98555485Y-64102487D01*
X98555485Y-64102488D01*
X98555483Y-64102490D01*
X98495862Y-64184550D01*
X98416657Y-64293566D01*
X98309433Y-64504003D01*
X98236446Y-64728631D01*
X98199500Y-64961902D01*
X91112865Y-64961902D01*
X91224508Y-64392185D01*
X91224861Y-64390463D01*
X91359574Y-63757161D01*
X91359981Y-63755321D01*
X91508681Y-63108113D01*
X91509142Y-63106181D01*
X91509155Y-63106130D01*
X91659323Y-62498611D01*
X91659818Y-62496684D01*
X91822758Y-61881912D01*
X91823286Y-61879983D01*
X91986504Y-61304133D01*
X91987103Y-61302089D01*
X92162039Y-60723591D01*
X92162638Y-60721674D01*
X92336912Y-60180490D01*
X92337625Y-60178346D01*
X92522648Y-59637910D01*
X92523348Y-59635923D01*
X92707020Y-59130630D01*
X92707854Y-59128406D01*
X92726095Y-59081085D01*
X92901342Y-58626462D01*
X92902233Y-58624217D01*
X92908272Y-58609433D01*
X93093825Y-58155116D01*
X93094795Y-58152811D01*
X93094805Y-58152789D01*
X93295484Y-57688663D01*
X93296442Y-57686509D01*
X93494801Y-57252912D01*
X93495873Y-57250636D01*
X93702635Y-56823246D01*
X93703827Y-56820854D01*
X93907762Y-56422103D01*
X93909003Y-56419741D01*
X94120794Y-56027921D01*
X94122121Y-56025532D01*
X94330838Y-55660155D01*
X94332303Y-55657661D01*
X94548231Y-55299973D01*
X94549847Y-55297372D01*
X94565046Y-55273552D01*
X94762456Y-54964163D01*
X94764181Y-54961535D01*
X94871830Y-54801947D01*
X98200000Y-54801947D01*
X98200000Y-55038052D01*
X98236934Y-55271247D01*
X98309897Y-55495802D01*
X98417085Y-55706171D01*
X98555866Y-55897186D01*
X98612564Y-55953884D01*
X99476212Y-55090235D01*
X99487482Y-55132292D01*
X99559890Y-55257708D01*
X99662292Y-55360110D01*
X99787708Y-55432518D01*
X99829764Y-55443787D01*
X99017707Y-56255842D01*
X99124202Y-56310104D01*
X99348752Y-56383065D01*
X99348751Y-56383065D01*
X99581948Y-56420000D01*
X100418052Y-56420000D01*
X100651247Y-56383065D01*
X100875798Y-56310104D01*
X100875805Y-56310101D01*
X100982291Y-56255842D01*
X100170235Y-55443787D01*
X100212292Y-55432518D01*
X100337708Y-55360110D01*
X100440110Y-55257708D01*
X100512518Y-55132292D01*
X100523787Y-55090235D01*
X101387436Y-55953884D01*
X101444133Y-55897186D01*
X101582914Y-55706171D01*
X101690102Y-55495802D01*
X101763065Y-55271247D01*
X101800000Y-55038052D01*
X101800000Y-54801947D01*
X101763065Y-54568752D01*
X101690102Y-54344197D01*
X101582914Y-54133828D01*
X101444133Y-53942813D01*
X101387436Y-53886116D01*
X100523787Y-54749764D01*
X100512518Y-54707708D01*
X100440110Y-54582292D01*
X100337708Y-54479890D01*
X100212292Y-54407482D01*
X100170235Y-54396212D01*
X100982291Y-53584156D01*
X100875802Y-53529897D01*
X100651247Y-53456934D01*
X100651248Y-53456934D01*
X100418052Y-53420000D01*
X99581948Y-53420000D01*
X99348752Y-53456934D01*
X99124197Y-53529897D01*
X99017708Y-53584156D01*
X99829764Y-54396212D01*
X99787708Y-54407482D01*
X99662292Y-54479890D01*
X99559890Y-54582292D01*
X99487482Y-54707708D01*
X99476212Y-54749764D01*
X98612564Y-53886116D01*
X98555866Y-53942813D01*
X98417085Y-54133828D01*
X98309897Y-54344197D01*
X98236934Y-54568752D01*
X98200000Y-54801947D01*
X94871830Y-54801947D01*
X94983565Y-54636302D01*
X94985317Y-54633778D01*
X95201325Y-54330990D01*
X95203242Y-54328376D01*
X95425485Y-54033941D01*
X95427573Y-54031255D01*
X95427575Y-54031253D01*
X95646366Y-53757473D01*
X95648573Y-53754792D01*
X95824479Y-53547035D01*
X95824480Y-53547034D01*
X95873211Y-53489480D01*
X95875568Y-53486777D01*
X96096837Y-53240340D01*
X96099246Y-53237735D01*
X96326026Y-52999801D01*
X96328666Y-52997115D01*
X96552174Y-52776478D01*
X96554921Y-52773851D01*
X96783561Y-52561784D01*
X96786492Y-52559151D01*
X97012093Y-52362861D01*
X97015166Y-52360273D01*
X97015168Y-52360272D01*
X97245735Y-52172430D01*
X97248931Y-52169912D01*
X97476843Y-51996424D01*
X97480126Y-51994011D01*
X97712705Y-51828991D01*
X97716160Y-51826626D01*
X97946540Y-51674689D01*
X97950084Y-51672439D01*
X98185039Y-51528872D01*
X98188712Y-51526715D01*
X98421887Y-51395200D01*
X98425703Y-51393136D01*
X98663414Y-51269911D01*
X98667305Y-51267982D01*
X98903852Y-51155861D01*
X98907841Y-51154057D01*
X99148916Y-51050205D01*
X99152970Y-51048544D01*
X99393572Y-50955024D01*
X99397706Y-50953503D01*
X99642824Y-50868288D01*
X99646990Y-50866924D01*
X99892453Y-50791431D01*
X99896610Y-50790233D01*
X100146676Y-50723117D01*
X100150927Y-50722059D01*
X100402000Y-50664299D01*
X100406260Y-50663398D01*
X100662065Y-50614149D01*
X100666350Y-50613403D01*
X100923994Y-50573278D01*
X100928306Y-50572685D01*
X101190806Y-50541278D01*
X101195032Y-50540848D01*
X101460359Y-50518508D01*
X101464590Y-50518225D01*
X101735093Y-50504870D01*
X101739110Y-50504738D01*
X102002982Y-50500515D01*
X102004966Y-50500500D01*
X105670515Y-50500500D01*
X105737554Y-50520185D01*
G37*
%TD.AperFunction*%
%TA.AperFunction,Conductor*%
G36*
X108815751Y-115055683D02*
G01*
X108829209Y-115064197D01*
X108963029Y-115161422D01*
X108988306Y-115179787D01*
X109104052Y-115238762D01*
X109165367Y-115270005D01*
X109165370Y-115270006D01*
X109253507Y-115298643D01*
X109354364Y-115331413D01*
X109434109Y-115344043D01*
X109497239Y-115373970D01*
X109502388Y-115378834D01*
X109622554Y-115499000D01*
X109599840Y-115499000D01*
X109502939Y-115524964D01*
X109416060Y-115575124D01*
X109345124Y-115646060D01*
X109294964Y-115732939D01*
X109269000Y-115829840D01*
X109269000Y-115852553D01*
X108668643Y-115252196D01*
X108635158Y-115190873D01*
X108640142Y-115121181D01*
X108682014Y-115065248D01*
X108747478Y-115040831D01*
X108815751Y-115055683D01*
G37*
%TD.AperFunction*%
%TA.AperFunction,Conductor*%
G36*
X100519171Y-111670680D02*
G01*
X100526427Y-111670166D01*
X100543976Y-111676723D01*
X100544360Y-111675696D01*
X100552666Y-111678794D01*
X100552669Y-111678796D01*
X100687517Y-111729091D01*
X100747127Y-111735500D01*
X101529530Y-111735499D01*
X101596569Y-111755183D01*
X101642324Y-111807987D01*
X101652268Y-111877146D01*
X101645712Y-111902831D01*
X101630912Y-111942511D01*
X101630911Y-111942515D01*
X101630911Y-111942517D01*
X101624502Y-112002127D01*
X101624502Y-112002134D01*
X101624502Y-112002135D01*
X101624502Y-112647870D01*
X101624503Y-112647876D01*
X101630910Y-112707483D01*
X101681204Y-112842328D01*
X101681206Y-112842331D01*
X101713284Y-112885182D01*
X101743919Y-112926104D01*
X101768337Y-112991569D01*
X101753486Y-113059842D01*
X101743920Y-113074727D01*
X101681649Y-113157910D01*
X101681647Y-113157913D01*
X101631405Y-113292620D01*
X101631403Y-113292627D01*
X101625002Y-113352155D01*
X101625002Y-113997844D01*
X101631403Y-114057372D01*
X101631405Y-114057379D01*
X101681647Y-114192086D01*
X101681648Y-114192088D01*
X101760851Y-114297889D01*
X101785268Y-114363353D01*
X101770417Y-114431626D01*
X101721012Y-114481032D01*
X101661584Y-114496200D01*
X101052129Y-114496200D01*
X101052123Y-114496201D01*
X100992516Y-114502608D01*
X100857671Y-114552902D01*
X100857664Y-114552906D01*
X100742455Y-114639152D01*
X100742452Y-114639155D01*
X100656206Y-114754364D01*
X100656202Y-114754371D01*
X100616182Y-114861672D01*
X100574311Y-114917606D01*
X100508846Y-114942023D01*
X100440573Y-114927171D01*
X100391168Y-114877766D01*
X100383818Y-114861672D01*
X100343797Y-114754371D01*
X100343793Y-114754364D01*
X100257547Y-114639155D01*
X100257544Y-114639152D01*
X100142335Y-114552906D01*
X100134546Y-114548653D01*
X100136022Y-114545949D01*
X100092334Y-114513229D01*
X100067933Y-114447759D01*
X100082801Y-114379490D01*
X100132218Y-114330096D01*
X100148287Y-114322760D01*
X100223526Y-114294698D01*
X100223526Y-114294697D01*
X100223531Y-114294696D01*
X100338746Y-114208446D01*
X100424996Y-114093231D01*
X100475291Y-113958383D01*
X100481700Y-113898773D01*
X100481699Y-112101228D01*
X100475291Y-112041617D01*
X100460565Y-112002135D01*
X100424997Y-111906771D01*
X100424996Y-111906770D01*
X100424996Y-111906769D01*
X100395728Y-111867672D01*
X100371311Y-111802208D01*
X100386163Y-111733935D01*
X100399359Y-111720738D01*
X100400775Y-111716950D01*
X100410178Y-111709918D01*
X100435568Y-111684529D01*
X100451689Y-111677169D01*
X100455668Y-111675686D01*
X100455732Y-111675858D01*
X100456733Y-111675110D01*
X100483026Y-111673244D01*
X100508775Y-111667628D01*
X100519171Y-111670680D01*
G37*
%TD.AperFunction*%
%TA.AperFunction,Conductor*%
G36*
X123859312Y-98897185D02*
G01*
X123879954Y-98913819D01*
X124560413Y-99594278D01*
X124593898Y-99655601D01*
X124588914Y-99725293D01*
X124560413Y-99769640D01*
X124491923Y-99838129D01*
X124491917Y-99838137D01*
X124408255Y-99979603D01*
X124408254Y-99979606D01*
X124362402Y-100137426D01*
X124362401Y-100137432D01*
X124359500Y-100174298D01*
X124359500Y-101825701D01*
X124362401Y-101862567D01*
X124362402Y-101862573D01*
X124408254Y-102020393D01*
X124408254Y-102020394D01*
X124479986Y-102141688D01*
X124497168Y-102209412D01*
X124475008Y-102275674D01*
X124472520Y-102279119D01*
X124421204Y-102347668D01*
X124421202Y-102347671D01*
X124370908Y-102482517D01*
X124366549Y-102523065D01*
X124364501Y-102542123D01*
X124364500Y-102542135D01*
X124364500Y-104457870D01*
X124364501Y-104457876D01*
X124370908Y-104517483D01*
X124421202Y-104652328D01*
X124421204Y-104652331D01*
X124495373Y-104751408D01*
X124519791Y-104816872D01*
X124504940Y-104885145D01*
X124455535Y-104934551D01*
X124387262Y-104949403D01*
X124352775Y-104941901D01*
X124264585Y-104909009D01*
X124264583Y-104909008D01*
X124204983Y-104902601D01*
X124204981Y-104902600D01*
X124204973Y-104902600D01*
X124204965Y-104902600D01*
X123638543Y-104902600D01*
X123571504Y-104882915D01*
X123525749Y-104830111D01*
X123515805Y-104760953D01*
X123539276Y-104704289D01*
X123578352Y-104652088D01*
X123578354Y-104652086D01*
X123628596Y-104517379D01*
X123628598Y-104517372D01*
X123634999Y-104457844D01*
X123635000Y-104457827D01*
X123635000Y-103750000D01*
X122765000Y-103750000D01*
X122765000Y-104916097D01*
X122791151Y-104963989D01*
X122786167Y-105033681D01*
X122769252Y-105064658D01*
X122697304Y-105160768D01*
X122697302Y-105160771D01*
X122647008Y-105295617D01*
X122646606Y-105299361D01*
X122640601Y-105355223D01*
X122640600Y-105355235D01*
X122640600Y-105498500D01*
X122620915Y-105565539D01*
X122568111Y-105611294D01*
X122516600Y-105622500D01*
X121604721Y-105622500D01*
X121537682Y-105602815D01*
X121494237Y-105554796D01*
X121429787Y-105428306D01*
X121316866Y-105272883D01*
X121293387Y-105207079D01*
X121309212Y-105139025D01*
X121316859Y-105127125D01*
X121429787Y-104971694D01*
X121468169Y-104896364D01*
X121516144Y-104845569D01*
X121583965Y-104828774D01*
X121644891Y-104849536D01*
X121645128Y-104849103D01*
X121647630Y-104850469D01*
X121650100Y-104851311D01*
X121652902Y-104853348D01*
X121652913Y-104853354D01*
X121787620Y-104903596D01*
X121787627Y-104903598D01*
X121847155Y-104909999D01*
X121847172Y-104910000D01*
X122265000Y-104910000D01*
X122265000Y-102537272D01*
X122765000Y-102537272D01*
X122765000Y-103250000D01*
X123635000Y-103250000D01*
X123635000Y-102542172D01*
X123634999Y-102542155D01*
X123628598Y-102482627D01*
X123628596Y-102482620D01*
X123578354Y-102347913D01*
X123578353Y-102347911D01*
X123526879Y-102279151D01*
X123502462Y-102213687D01*
X123517313Y-102145414D01*
X123519414Y-102141719D01*
X123591282Y-102020196D01*
X123591283Y-102020193D01*
X123637099Y-101862495D01*
X123637100Y-101862489D01*
X123639999Y-101825649D01*
X123640000Y-101825634D01*
X123640000Y-101250000D01*
X122790000Y-101250000D01*
X122790000Y-102463638D01*
X122781355Y-102493078D01*
X122774832Y-102523065D01*
X122771077Y-102528080D01*
X122770315Y-102530677D01*
X122765000Y-102537272D01*
X122265000Y-102537272D01*
X122265000Y-102036362D01*
X122284685Y-101969323D01*
X122290000Y-101962727D01*
X122290000Y-101250000D01*
X121440000Y-101250000D01*
X121440000Y-101825649D01*
X121442899Y-101862489D01*
X121442900Y-101862495D01*
X121488716Y-102020193D01*
X121488717Y-102020196D01*
X121538518Y-102104406D01*
X121555701Y-102172131D01*
X121533541Y-102238393D01*
X121531053Y-102241838D01*
X121451647Y-102347910D01*
X121451645Y-102347913D01*
X121401403Y-102482620D01*
X121401401Y-102482627D01*
X121395000Y-102542155D01*
X121395000Y-103270193D01*
X121375315Y-103337232D01*
X121322511Y-103382987D01*
X121253353Y-103392931D01*
X121189797Y-103363906D01*
X121183319Y-103357874D01*
X121172466Y-103347021D01*
X121172464Y-103347019D01*
X121011694Y-103230213D01*
X120967563Y-103207727D01*
X120834632Y-103139994D01*
X120834629Y-103139993D01*
X120645637Y-103078587D01*
X120499561Y-103055451D01*
X120449361Y-103047500D01*
X120250639Y-103047500D01*
X120200439Y-103055451D01*
X120143898Y-103064406D01*
X120074604Y-103055451D01*
X120021152Y-103010455D01*
X120000513Y-102943703D01*
X120000500Y-102941933D01*
X120000500Y-101434110D01*
X120000500Y-101434108D01*
X119966392Y-101306814D01*
X119900500Y-101192686D01*
X119807314Y-101099500D01*
X119750250Y-101066554D01*
X119693187Y-101033608D01*
X119629539Y-101016554D01*
X119565892Y-100999500D01*
X110565892Y-100999500D01*
X110434108Y-100999500D01*
X110306812Y-101033608D01*
X110192686Y-101099500D01*
X110192683Y-101099502D01*
X110099502Y-101192683D01*
X110099500Y-101192686D01*
X110033608Y-101306812D01*
X109999500Y-101434108D01*
X109999500Y-102051933D01*
X109979815Y-102118972D01*
X109927011Y-102164727D01*
X109857853Y-102174671D01*
X109856102Y-102174406D01*
X109776920Y-102161865D01*
X109749361Y-102157500D01*
X109550639Y-102157500D01*
X109523080Y-102161865D01*
X109354362Y-102188587D01*
X109165370Y-102249993D01*
X109165367Y-102249994D01*
X108988305Y-102340213D01*
X108827533Y-102457021D01*
X108687021Y-102597533D01*
X108570213Y-102758305D01*
X108479994Y-102935367D01*
X108479993Y-102935370D01*
X108418587Y-103124362D01*
X108387500Y-103320639D01*
X108387500Y-103519360D01*
X108418587Y-103715637D01*
X108479993Y-103904629D01*
X108479997Y-103904638D01*
X108490609Y-103925465D01*
X108503505Y-103994134D01*
X108477228Y-104058875D01*
X108420121Y-104099131D01*
X108350316Y-104102123D01*
X108289974Y-104066900D01*
X108280857Y-104056070D01*
X108267186Y-104037809D01*
X108152093Y-103951649D01*
X108152086Y-103951645D01*
X108017379Y-103901403D01*
X108017372Y-103901401D01*
X107957844Y-103895000D01*
X107250000Y-103895000D01*
X107250000Y-106135000D01*
X107957828Y-106135000D01*
X107957844Y-106134999D01*
X108017372Y-106128598D01*
X108017379Y-106128596D01*
X108152086Y-106078354D01*
X108152093Y-106078350D01*
X108267187Y-105992190D01*
X108267190Y-105992187D01*
X108353351Y-105877091D01*
X108357334Y-105869799D01*
X108358015Y-105869117D01*
X108358234Y-105868180D01*
X108382673Y-105844459D01*
X108406739Y-105820394D01*
X108407679Y-105820189D01*
X108408371Y-105819518D01*
X108441762Y-105812775D01*
X108475012Y-105805542D01*
X108475914Y-105805878D01*
X108476858Y-105805688D01*
X108508576Y-105818061D01*
X108540476Y-105829959D01*
X108541349Y-105830845D01*
X108541951Y-105831080D01*
X108545744Y-105835306D01*
X108566532Y-105856406D01*
X108569845Y-105860973D01*
X108570213Y-105861694D01*
X108683180Y-106017180D01*
X108694875Y-106050028D01*
X108706612Y-106082921D01*
X108706602Y-106082963D01*
X108706616Y-106083002D01*
X108698792Y-106116544D01*
X108690786Y-106150975D01*
X108690749Y-106151032D01*
X108690746Y-106151046D01*
X108690731Y-106151060D01*
X108683132Y-106162885D01*
X108570215Y-106318302D01*
X108479994Y-106495367D01*
X108479993Y-106495370D01*
X108418587Y-106684362D01*
X108388996Y-106871190D01*
X108359067Y-106934325D01*
X108299755Y-106971256D01*
X108229892Y-106970258D01*
X108192212Y-106951059D01*
X108152330Y-106921203D01*
X108152328Y-106921202D01*
X108017482Y-106870908D01*
X108017483Y-106870908D01*
X107957883Y-106864501D01*
X107957881Y-106864500D01*
X107957873Y-106864500D01*
X107957864Y-106864500D01*
X106042129Y-106864500D01*
X106042123Y-106864501D01*
X105982516Y-106870908D01*
X105847671Y-106921202D01*
X105847668Y-106921204D01*
X105779119Y-106972520D01*
X105713654Y-106996937D01*
X105645381Y-106982085D01*
X105641688Y-106979986D01*
X105564478Y-106934325D01*
X105520398Y-106908256D01*
X105520394Y-106908255D01*
X105520393Y-106908254D01*
X105362573Y-106862402D01*
X105362567Y-106862401D01*
X105325701Y-106859500D01*
X105325694Y-106859500D01*
X103674306Y-106859500D01*
X103674298Y-106859500D01*
X103637432Y-106862401D01*
X103637426Y-106862402D01*
X103479606Y-106908254D01*
X103479603Y-106908255D01*
X103338137Y-106991917D01*
X103338129Y-106991923D01*
X103221923Y-107108129D01*
X103221917Y-107108137D01*
X103138255Y-107249603D01*
X103138254Y-107249606D01*
X103092402Y-107407426D01*
X103092401Y-107407432D01*
X103089500Y-107444298D01*
X103089500Y-107458500D01*
X103069815Y-107525539D01*
X103017011Y-107571294D01*
X102965500Y-107582500D01*
X100684500Y-107582500D01*
X100617461Y-107562815D01*
X100571706Y-107510011D01*
X100560500Y-107458500D01*
X100560500Y-107174313D01*
X100560499Y-107174298D01*
X100557598Y-107137432D01*
X100557597Y-107137426D01*
X100512465Y-106982085D01*
X100511744Y-106979602D01*
X100428081Y-106838135D01*
X100428079Y-106838133D01*
X100428076Y-106838129D01*
X100311870Y-106721923D01*
X100311862Y-106721917D01*
X100233681Y-106675681D01*
X100170398Y-106638256D01*
X100170397Y-106638255D01*
X100170396Y-106638255D01*
X100170393Y-106638254D01*
X100012573Y-106592402D01*
X100012567Y-106592401D01*
X99975701Y-106589500D01*
X99975694Y-106589500D01*
X99961500Y-106589500D01*
X99894461Y-106569815D01*
X99848706Y-106517011D01*
X99837500Y-106465500D01*
X99837500Y-105555649D01*
X103090000Y-105555649D01*
X103092899Y-105592489D01*
X103092900Y-105592495D01*
X103138716Y-105750193D01*
X103138717Y-105750196D01*
X103222314Y-105891552D01*
X103222321Y-105891561D01*
X103338438Y-106007678D01*
X103338447Y-106007685D01*
X103479803Y-106091282D01*
X103479806Y-106091283D01*
X103637504Y-106137099D01*
X103637510Y-106137100D01*
X103674350Y-106139999D01*
X103674366Y-106140000D01*
X104250000Y-106140000D01*
X104250000Y-105290000D01*
X104750000Y-105290000D01*
X104750000Y-106140000D01*
X105325634Y-106140000D01*
X105325649Y-106139999D01*
X105362489Y-106137100D01*
X105362495Y-106137099D01*
X105520193Y-106091283D01*
X105520196Y-106091282D01*
X105641719Y-106019414D01*
X105709442Y-106002231D01*
X105775705Y-106024391D01*
X105779151Y-106026879D01*
X105847911Y-106078353D01*
X105847913Y-106078354D01*
X105982620Y-106128596D01*
X105982627Y-106128598D01*
X106042155Y-106134999D01*
X106042172Y-106135000D01*
X106750000Y-106135000D01*
X106750000Y-105265000D01*
X106030590Y-105265000D01*
X105989996Y-105287166D01*
X105963638Y-105290000D01*
X104750000Y-105290000D01*
X104250000Y-105290000D01*
X103090000Y-105290000D01*
X103090000Y-105555649D01*
X99837500Y-105555649D01*
X99837500Y-104747727D01*
X99857185Y-104680688D01*
X99873819Y-104660046D01*
X100009515Y-104524350D01*
X103090000Y-104524350D01*
X103090000Y-104790000D01*
X104250000Y-104790000D01*
X104250000Y-103940000D01*
X104750000Y-103940000D01*
X104750000Y-104790000D01*
X105469410Y-104790000D01*
X105510004Y-104767834D01*
X105536362Y-104765000D01*
X106750000Y-104765000D01*
X106750000Y-103895000D01*
X106042155Y-103895000D01*
X105982627Y-103901401D01*
X105982620Y-103901403D01*
X105847913Y-103951645D01*
X105847910Y-103951647D01*
X105741838Y-104031053D01*
X105676374Y-104055470D01*
X105608101Y-104040618D01*
X105604406Y-104038518D01*
X105520196Y-103988717D01*
X105520193Y-103988716D01*
X105362495Y-103942900D01*
X105362489Y-103942899D01*
X105325649Y-103940000D01*
X104750000Y-103940000D01*
X104250000Y-103940000D01*
X103674350Y-103940000D01*
X103637510Y-103942899D01*
X103637504Y-103942900D01*
X103479806Y-103988716D01*
X103479803Y-103988717D01*
X103338447Y-104072314D01*
X103338438Y-104072321D01*
X103222321Y-104188438D01*
X103222314Y-104188447D01*
X103138717Y-104329803D01*
X103138716Y-104329806D01*
X103092900Y-104487504D01*
X103092899Y-104487510D01*
X103090000Y-104524350D01*
X100009515Y-104524350D01*
X104359515Y-100174350D01*
X121440000Y-100174350D01*
X121440000Y-100750000D01*
X122290000Y-100750000D01*
X122790000Y-100750000D01*
X123640000Y-100750000D01*
X123640000Y-100174365D01*
X123639999Y-100174350D01*
X123637100Y-100137510D01*
X123637099Y-100137504D01*
X123591283Y-99979806D01*
X123591282Y-99979803D01*
X123507685Y-99838447D01*
X123507678Y-99838438D01*
X123391561Y-99722321D01*
X123391552Y-99722314D01*
X123250196Y-99638717D01*
X123250193Y-99638716D01*
X123092495Y-99592900D01*
X123092489Y-99592899D01*
X123055649Y-99590000D01*
X122790000Y-99590000D01*
X122790000Y-100750000D01*
X122290000Y-100750000D01*
X122290000Y-99590000D01*
X122024350Y-99590000D01*
X121987510Y-99592899D01*
X121987504Y-99592900D01*
X121829806Y-99638716D01*
X121829803Y-99638717D01*
X121688447Y-99722314D01*
X121688438Y-99722321D01*
X121572321Y-99838438D01*
X121572314Y-99838447D01*
X121488717Y-99979803D01*
X121488716Y-99979806D01*
X121442900Y-100137504D01*
X121442899Y-100137510D01*
X121440000Y-100174350D01*
X104359515Y-100174350D01*
X105620046Y-98913819D01*
X105681369Y-98880334D01*
X105707727Y-98877500D01*
X123792273Y-98877500D01*
X123859312Y-98897185D01*
G37*
%TD.AperFunction*%
%TA.AperFunction,Conductor*%
G36*
X106124011Y-80247958D02*
G01*
X106153102Y-80247185D01*
X106160169Y-80250543D01*
X106164673Y-80250866D01*
X106185585Y-80260989D01*
X106190027Y-80263679D01*
X106268390Y-80320613D01*
X106366767Y-80370739D01*
X106370672Y-80373104D01*
X106391295Y-80395664D01*
X106413518Y-80416653D01*
X106414646Y-80421208D01*
X106417813Y-80424673D01*
X106422965Y-80454802D01*
X106430313Y-80484474D01*
X106428798Y-80488916D01*
X106429590Y-80493543D01*
X106417634Y-80521676D01*
X106407775Y-80550609D01*
X106403921Y-80553948D01*
X106402264Y-80557848D01*
X106388994Y-80566882D01*
X106362722Y-80589648D01*
X106268386Y-80637715D01*
X106102786Y-80758028D01*
X105958028Y-80902786D01*
X105837715Y-81068386D01*
X105744781Y-81250776D01*
X105681522Y-81445465D01*
X105649500Y-81647648D01*
X105649500Y-81852351D01*
X105681522Y-82054534D01*
X105744781Y-82249223D01*
X105837715Y-82431613D01*
X105958028Y-82597213D01*
X106102786Y-82741971D01*
X106257749Y-82854556D01*
X106268390Y-82862287D01*
X106384607Y-82921503D01*
X106450776Y-82955218D01*
X106450778Y-82955218D01*
X106450781Y-82955220D01*
X106555137Y-82989127D01*
X106645465Y-83018477D01*
X106746557Y-83034488D01*
X106847648Y-83050500D01*
X106847649Y-83050500D01*
X107852351Y-83050500D01*
X107852352Y-83050500D01*
X108054534Y-83018477D01*
X108249219Y-82955220D01*
X108431610Y-82862287D01*
X108524590Y-82794732D01*
X108597213Y-82741971D01*
X108597215Y-82741968D01*
X108597219Y-82741966D01*
X108660819Y-82678366D01*
X108722142Y-82644881D01*
X108791834Y-82649865D01*
X108847767Y-82691737D01*
X108872184Y-82757201D01*
X108872500Y-82766047D01*
X108872500Y-88950301D01*
X108872500Y-89049699D01*
X108898226Y-89145710D01*
X108947925Y-89231790D01*
X112947925Y-93231790D01*
X113018210Y-93302075D01*
X113104291Y-93351774D01*
X113200301Y-93377500D01*
X124292273Y-93377500D01*
X124359312Y-93397185D01*
X124379954Y-93413819D01*
X134086181Y-103120046D01*
X134119666Y-103181369D01*
X134122500Y-103207727D01*
X134122500Y-105954846D01*
X134102815Y-106021885D01*
X134050011Y-106067640D01*
X134036819Y-106072777D01*
X133924003Y-106109433D01*
X133713566Y-106216657D01*
X133630047Y-106277338D01*
X133522490Y-106355483D01*
X133522488Y-106355485D01*
X133522487Y-106355485D01*
X133355482Y-106522490D01*
X133314615Y-106578739D01*
X133259285Y-106621404D01*
X133227455Y-106626096D01*
X132437647Y-107415905D01*
X132414208Y-107328429D01*
X132355689Y-107227070D01*
X132272930Y-107144311D01*
X132171571Y-107085792D01*
X132084094Y-107062352D01*
X132869105Y-106277340D01*
X132869104Y-106277338D01*
X132786174Y-106217087D01*
X132575802Y-106109897D01*
X132351247Y-106036934D01*
X132351248Y-106036934D01*
X132118052Y-106000000D01*
X131881948Y-106000000D01*
X131648752Y-106036934D01*
X131424197Y-106109897D01*
X131213830Y-106217084D01*
X131130894Y-106277340D01*
X131915906Y-107062352D01*
X131828429Y-107085792D01*
X131727070Y-107144311D01*
X131644311Y-107227070D01*
X131585792Y-107328429D01*
X131562352Y-107415905D01*
X130771809Y-106625363D01*
X130757862Y-106621577D01*
X130727052Y-106615105D01*
X130723361Y-106612214D01*
X130720824Y-106611526D01*
X130711673Y-106603060D01*
X130693680Y-106588968D01*
X130689264Y-106584079D01*
X130644517Y-106522490D01*
X130477510Y-106355483D01*
X130286433Y-106216657D01*
X130075996Y-106109433D01*
X129963181Y-106072777D01*
X129905506Y-106033339D01*
X129878308Y-105968980D01*
X129877500Y-105954846D01*
X129877500Y-99950303D01*
X129877499Y-99950299D01*
X129866782Y-99910300D01*
X129866782Y-99910301D01*
X129851774Y-99854290D01*
X129810813Y-99783343D01*
X129802080Y-99768216D01*
X129802074Y-99768208D01*
X124231792Y-94197927D01*
X124231790Y-94197925D01*
X124145710Y-94148226D01*
X124049699Y-94122500D01*
X124049698Y-94122500D01*
X112957727Y-94122500D01*
X112890688Y-94102815D01*
X112870046Y-94086181D01*
X105413819Y-86629954D01*
X105380334Y-86568631D01*
X105377500Y-86542273D01*
X105377500Y-80986889D01*
X105397185Y-80919850D01*
X105413815Y-80899212D01*
X106033661Y-80279365D01*
X106059198Y-80265421D01*
X106083257Y-80249041D01*
X106089500Y-80248875D01*
X106094982Y-80245882D01*
X106124011Y-80247958D01*
G37*
%TD.AperFunction*%
%TA.AperFunction,Conductor*%
G36*
X116669142Y-94897185D02*
G01*
X116714897Y-94949989D01*
X116724841Y-95019147D01*
X116695816Y-95082703D01*
X116658398Y-95111985D01*
X116452967Y-95216657D01*
X116369448Y-95277338D01*
X116261891Y-95355483D01*
X116261889Y-95355485D01*
X116261888Y-95355485D01*
X116094886Y-95522487D01*
X116094886Y-95522488D01*
X116094884Y-95522490D01*
X116035263Y-95604550D01*
X115956058Y-95713566D01*
X115848834Y-95924003D01*
X115775847Y-96148631D01*
X115738901Y-96381902D01*
X115738901Y-96618097D01*
X115775847Y-96851368D01*
X115848834Y-97075996D01*
X115920505Y-97216657D01*
X115956058Y-97286433D01*
X116094884Y-97477510D01*
X116261891Y-97644517D01*
X116452968Y-97783343D01*
X116592632Y-97854505D01*
X116658398Y-97888015D01*
X116709194Y-97935990D01*
X116725989Y-98003811D01*
X116703452Y-98069946D01*
X116648736Y-98113397D01*
X116602103Y-98122500D01*
X113375595Y-98122500D01*
X113308556Y-98102815D01*
X113262801Y-98050011D01*
X113252857Y-97980853D01*
X113281882Y-97917297D01*
X113319300Y-97888015D01*
X113525563Y-97782918D01*
X113525569Y-97782914D01*
X113608504Y-97722658D01*
X113608505Y-97722658D01*
X112864971Y-96979125D01*
X112930579Y-96961546D01*
X113043521Y-96896339D01*
X113135739Y-96804121D01*
X113200946Y-96691179D01*
X113218525Y-96625572D01*
X113962058Y-97369105D01*
X113962058Y-97369104D01*
X114022314Y-97286169D01*
X114022318Y-97286163D01*
X114129502Y-97075802D01*
X114202465Y-96851247D01*
X114239400Y-96618052D01*
X114239400Y-96381947D01*
X114202465Y-96148752D01*
X114129502Y-95924197D01*
X114022314Y-95713828D01*
X113962058Y-95630894D01*
X113962058Y-95630893D01*
X113218525Y-96374427D01*
X113200946Y-96308821D01*
X113135739Y-96195879D01*
X113043521Y-96103661D01*
X112930579Y-96038454D01*
X112864972Y-96020874D01*
X113608505Y-95277340D01*
X113608504Y-95277338D01*
X113525574Y-95217087D01*
X113319300Y-95111985D01*
X113268504Y-95064011D01*
X113251709Y-94996190D01*
X113274246Y-94930055D01*
X113328961Y-94886603D01*
X113375595Y-94877500D01*
X116602103Y-94877500D01*
X116669142Y-94897185D01*
G37*
%TD.AperFunction*%
%TA.AperFunction,Conductor*%
G36*
X121036994Y-50520185D02*
G01*
X121082749Y-50572989D01*
X121092693Y-50642147D01*
X121080440Y-50680795D01*
X121044781Y-50750776D01*
X120981522Y-50945465D01*
X120949500Y-51147648D01*
X120949500Y-51352351D01*
X120981522Y-51554534D01*
X121044781Y-51749223D01*
X121137715Y-51931613D01*
X121258028Y-52097213D01*
X121402786Y-52241971D01*
X121534579Y-52337722D01*
X121568390Y-52362287D01*
X121632778Y-52395094D01*
X121662714Y-52410348D01*
X121713510Y-52458323D01*
X121730305Y-52526144D01*
X121707767Y-52592279D01*
X121662714Y-52631318D01*
X121568386Y-52679381D01*
X121402786Y-52799694D01*
X121258028Y-52944452D01*
X121137715Y-53110052D01*
X121044781Y-53292442D01*
X120981522Y-53487131D01*
X120949500Y-53689314D01*
X120949500Y-53894017D01*
X120981522Y-54096200D01*
X121044781Y-54290889D01*
X121137715Y-54473279D01*
X121258028Y-54638879D01*
X121402786Y-54783637D01*
X121557749Y-54896222D01*
X121568390Y-54903953D01*
X121646412Y-54943707D01*
X121663264Y-54952294D01*
X121714060Y-55000269D01*
X121730855Y-55068090D01*
X121708317Y-55134225D01*
X121663264Y-55173264D01*
X121568650Y-55221472D01*
X121403105Y-55341749D01*
X121403104Y-55341749D01*
X121258417Y-55486436D01*
X121258417Y-55486437D01*
X121138140Y-55651982D01*
X121045244Y-55834302D01*
X120982009Y-56028918D01*
X120973391Y-56083332D01*
X122216988Y-56083332D01*
X122184075Y-56140339D01*
X122150000Y-56267506D01*
X122150000Y-56399158D01*
X122184075Y-56526325D01*
X122216988Y-56583332D01*
X120973391Y-56583332D01*
X120982009Y-56637745D01*
X121045244Y-56832361D01*
X121138140Y-57014681D01*
X121258417Y-57180226D01*
X121258417Y-57180227D01*
X121403104Y-57324914D01*
X121568652Y-57445193D01*
X121663263Y-57493399D01*
X121714060Y-57541373D01*
X121730855Y-57609194D01*
X121708318Y-57675329D01*
X121663265Y-57714368D01*
X121568388Y-57762711D01*
X121402786Y-57883026D01*
X121258028Y-58027784D01*
X121137715Y-58193384D01*
X121044781Y-58375774D01*
X120981522Y-58570463D01*
X120949500Y-58772646D01*
X120949500Y-58977349D01*
X120981522Y-59179532D01*
X121044781Y-59374221D01*
X121137715Y-59556611D01*
X121258028Y-59722211D01*
X121402786Y-59866969D01*
X121557749Y-59979554D01*
X121568390Y-59987285D01*
X121632778Y-60020092D01*
X121662714Y-60035346D01*
X121713510Y-60083321D01*
X121730305Y-60151142D01*
X121707767Y-60217277D01*
X121662714Y-60256316D01*
X121568386Y-60304379D01*
X121402786Y-60424692D01*
X121258028Y-60569450D01*
X121137715Y-60735050D01*
X121044781Y-60917440D01*
X120981522Y-61112129D01*
X120949500Y-61314312D01*
X120949500Y-61519015D01*
X120981522Y-61721198D01*
X121044781Y-61915887D01*
X121137715Y-62098277D01*
X121258028Y-62263877D01*
X121402786Y-62408635D01*
X121526750Y-62498698D01*
X121568390Y-62528951D01*
X121632778Y-62561758D01*
X121662714Y-62577012D01*
X121713510Y-62624987D01*
X121730305Y-62692808D01*
X121707767Y-62758943D01*
X121662714Y-62797982D01*
X121568386Y-62846045D01*
X121402786Y-62966358D01*
X121258028Y-63111116D01*
X121137715Y-63276716D01*
X121044781Y-63459106D01*
X120981522Y-63653795D01*
X120949500Y-63855978D01*
X120949500Y-64060681D01*
X120981522Y-64262864D01*
X121044781Y-64457553D01*
X121137715Y-64639943D01*
X121258028Y-64805543D01*
X121402786Y-64950301D01*
X121557749Y-65062886D01*
X121568390Y-65070617D01*
X121632778Y-65103424D01*
X121662714Y-65118678D01*
X121713510Y-65166653D01*
X121730305Y-65234474D01*
X121707767Y-65300609D01*
X121662714Y-65339648D01*
X121568386Y-65387711D01*
X121402786Y-65508024D01*
X121258028Y-65652782D01*
X121137715Y-65818382D01*
X121044781Y-66000772D01*
X120981522Y-66195461D01*
X120949500Y-66397644D01*
X120949500Y-66602347D01*
X120981522Y-66804530D01*
X121044781Y-66999219D01*
X121137715Y-67181609D01*
X121258028Y-67347209D01*
X121402786Y-67491967D01*
X121557749Y-67604552D01*
X121568390Y-67612283D01*
X121607046Y-67631979D01*
X121662714Y-67660344D01*
X121713510Y-67708319D01*
X121730305Y-67776140D01*
X121707767Y-67842275D01*
X121662714Y-67881314D01*
X121568386Y-67929377D01*
X121402786Y-68049690D01*
X121258028Y-68194448D01*
X121137715Y-68360048D01*
X121044781Y-68542438D01*
X120981522Y-68737127D01*
X120949500Y-68939310D01*
X120949500Y-69144013D01*
X120981522Y-69346196D01*
X121044781Y-69540885D01*
X121108691Y-69666315D01*
X121135542Y-69719012D01*
X121137715Y-69723275D01*
X121200363Y-69809504D01*
X121223843Y-69875310D01*
X121208017Y-69943364D01*
X121187726Y-69970070D01*
X120712181Y-70445616D01*
X120650858Y-70479101D01*
X120581167Y-70474117D01*
X120525233Y-70432246D01*
X120500816Y-70366781D01*
X120500500Y-70357935D01*
X120500500Y-65934110D01*
X120500500Y-65934108D01*
X120466392Y-65806814D01*
X120400500Y-65692686D01*
X120307314Y-65599500D01*
X120213491Y-65545331D01*
X120193187Y-65533608D01*
X120129539Y-65516554D01*
X120065892Y-65499500D01*
X110065892Y-65499500D01*
X109934108Y-65499500D01*
X109806812Y-65533608D01*
X109692686Y-65599500D01*
X109692683Y-65599502D01*
X109599502Y-65692683D01*
X109599500Y-65692686D01*
X109533608Y-65806812D01*
X109499500Y-65934108D01*
X109499500Y-77982933D01*
X109479815Y-78049972D01*
X109427011Y-78095727D01*
X109357853Y-78105671D01*
X109294297Y-78076646D01*
X109287819Y-78070614D01*
X108812273Y-77595068D01*
X108778788Y-77533745D01*
X108783772Y-77464053D01*
X108799633Y-77434506D01*
X108862287Y-77348270D01*
X108955220Y-77165879D01*
X109018477Y-76971194D01*
X109050500Y-76769012D01*
X109050500Y-76564308D01*
X109034586Y-76463831D01*
X109018477Y-76362125D01*
X108955218Y-76167436D01*
X108898541Y-76056203D01*
X108862287Y-75985050D01*
X108831402Y-75942540D01*
X108741971Y-75819446D01*
X108597213Y-75674688D01*
X108431614Y-75554375D01*
X108337285Y-75506312D01*
X108286489Y-75458337D01*
X108269694Y-75390516D01*
X108292231Y-75324381D01*
X108337285Y-75285342D01*
X108431610Y-75237281D01*
X108512055Y-75178835D01*
X108597213Y-75116965D01*
X108597215Y-75116962D01*
X108597219Y-75116960D01*
X108741966Y-74972213D01*
X108741968Y-74972209D01*
X108741971Y-74972207D01*
X108794732Y-74899584D01*
X108862287Y-74806604D01*
X108955220Y-74624213D01*
X109018477Y-74429528D01*
X109050500Y-74227346D01*
X109050500Y-74022642D01*
X109018477Y-73820460D01*
X108955220Y-73625775D01*
X108955218Y-73625772D01*
X108955218Y-73625770D01*
X108901310Y-73519971D01*
X108862287Y-73443384D01*
X108854556Y-73432743D01*
X108741971Y-73277780D01*
X108597213Y-73133022D01*
X108431614Y-73012709D01*
X108337285Y-72964646D01*
X108286489Y-72916671D01*
X108269694Y-72848850D01*
X108292231Y-72782715D01*
X108337285Y-72743676D01*
X108431610Y-72695615D01*
X108508826Y-72639515D01*
X108597213Y-72575299D01*
X108597215Y-72575296D01*
X108597219Y-72575294D01*
X108741966Y-72430547D01*
X108741968Y-72430543D01*
X108741971Y-72430541D01*
X108794732Y-72357918D01*
X108862287Y-72264938D01*
X108955220Y-72082547D01*
X109018477Y-71887862D01*
X109050500Y-71685680D01*
X109050500Y-71480976D01*
X109025953Y-71325992D01*
X109018477Y-71278793D01*
X108975440Y-71146339D01*
X108955220Y-71084109D01*
X108955218Y-71084106D01*
X108955218Y-71084104D01*
X108882393Y-70941179D01*
X108862287Y-70901718D01*
X108837860Y-70868097D01*
X108741971Y-70736114D01*
X108597213Y-70591356D01*
X108431614Y-70471043D01*
X108337285Y-70422980D01*
X108286489Y-70375005D01*
X108269694Y-70307184D01*
X108292231Y-70241049D01*
X108337285Y-70202010D01*
X108355873Y-70192539D01*
X108431610Y-70153949D01*
X108470767Y-70125500D01*
X108597213Y-70033633D01*
X108597215Y-70033630D01*
X108597219Y-70033628D01*
X108741966Y-69888881D01*
X108741968Y-69888877D01*
X108741971Y-69888875D01*
X108826528Y-69772490D01*
X108862287Y-69723272D01*
X108955220Y-69540881D01*
X109018477Y-69346196D01*
X109050500Y-69144014D01*
X109050500Y-68939310D01*
X109035829Y-68846682D01*
X109018477Y-68737127D01*
X108955218Y-68542438D01*
X108886112Y-68406812D01*
X108862287Y-68360052D01*
X108824491Y-68308030D01*
X108741971Y-68194448D01*
X108597213Y-68049690D01*
X108431614Y-67929377D01*
X108337285Y-67881314D01*
X108286489Y-67833339D01*
X108269694Y-67765518D01*
X108292231Y-67699383D01*
X108337285Y-67660344D01*
X108431610Y-67612283D01*
X108488664Y-67570831D01*
X108597213Y-67491967D01*
X108597215Y-67491964D01*
X108597219Y-67491962D01*
X108741966Y-67347215D01*
X108741968Y-67347211D01*
X108741971Y-67347209D01*
X108806172Y-67258842D01*
X108862287Y-67181606D01*
X108955220Y-66999215D01*
X109018477Y-66804530D01*
X109050500Y-66602348D01*
X109050500Y-66397644D01*
X109035457Y-66302670D01*
X109018477Y-66195461D01*
X108955218Y-66000772D01*
X108886768Y-65866433D01*
X108862287Y-65818386D01*
X108853878Y-65806812D01*
X108741971Y-65652782D01*
X108597213Y-65508024D01*
X108431614Y-65387711D01*
X108337285Y-65339648D01*
X108286489Y-65291673D01*
X108269694Y-65223852D01*
X108292231Y-65157717D01*
X108337285Y-65118678D01*
X108431610Y-65070617D01*
X108452770Y-65055243D01*
X108597213Y-64950301D01*
X108597215Y-64950298D01*
X108597219Y-64950296D01*
X108741966Y-64805549D01*
X108741968Y-64805545D01*
X108741971Y-64805543D01*
X108797850Y-64728631D01*
X108862287Y-64639940D01*
X108955220Y-64457549D01*
X109018477Y-64262864D01*
X109050500Y-64060682D01*
X109050500Y-63855978D01*
X109034858Y-63757217D01*
X109018477Y-63653795D01*
X108966929Y-63495149D01*
X108955220Y-63459111D01*
X108955218Y-63459108D01*
X108955218Y-63459106D01*
X108921503Y-63392937D01*
X108862287Y-63276720D01*
X108854556Y-63266079D01*
X108741971Y-63111116D01*
X108597213Y-62966358D01*
X108431614Y-62846045D01*
X108337285Y-62797982D01*
X108286489Y-62750007D01*
X108269694Y-62682186D01*
X108292231Y-62616051D01*
X108337285Y-62577012D01*
X108431610Y-62528951D01*
X108476062Y-62496655D01*
X108597213Y-62408635D01*
X108597215Y-62408632D01*
X108597219Y-62408630D01*
X108741966Y-62263883D01*
X108741968Y-62263879D01*
X108741971Y-62263877D01*
X108798754Y-62185721D01*
X108862287Y-62098274D01*
X108955220Y-61915883D01*
X109018477Y-61721198D01*
X109050500Y-61519016D01*
X109050500Y-61314312D01*
X109018477Y-61112130D01*
X108955220Y-60917445D01*
X108955218Y-60917442D01*
X108955218Y-60917440D01*
X108921503Y-60851271D01*
X108862287Y-60735054D01*
X108852493Y-60721573D01*
X108741971Y-60569450D01*
X108597213Y-60424692D01*
X108431614Y-60304379D01*
X108337285Y-60256316D01*
X108286489Y-60208341D01*
X108269694Y-60140520D01*
X108292231Y-60074385D01*
X108337285Y-60035346D01*
X108431610Y-59987285D01*
X108515251Y-59926517D01*
X108597213Y-59866969D01*
X108597215Y-59866966D01*
X108597219Y-59866964D01*
X108741966Y-59722217D01*
X108741968Y-59722213D01*
X108741971Y-59722211D01*
X108804747Y-59635805D01*
X108862287Y-59556608D01*
X108955220Y-59374217D01*
X109018477Y-59179532D01*
X109050500Y-58977350D01*
X109050500Y-58772646D01*
X109027351Y-58626489D01*
X109018477Y-58570463D01*
X108955218Y-58375774D01*
X108921503Y-58309605D01*
X108862287Y-58193388D01*
X108833658Y-58153983D01*
X108741971Y-58027784D01*
X108597213Y-57883026D01*
X108431614Y-57762713D01*
X108337285Y-57714650D01*
X108286489Y-57666675D01*
X108269694Y-57598854D01*
X108292231Y-57532719D01*
X108337285Y-57493680D01*
X108431610Y-57445619D01*
X108452770Y-57430245D01*
X108597213Y-57325303D01*
X108597215Y-57325300D01*
X108597219Y-57325298D01*
X108741966Y-57180551D01*
X108741968Y-57180547D01*
X108741971Y-57180545D01*
X108794732Y-57107922D01*
X108862287Y-57014942D01*
X108955220Y-56832551D01*
X109018477Y-56637866D01*
X109050500Y-56435684D01*
X109050500Y-56230980D01*
X109025900Y-56075666D01*
X109018477Y-56028797D01*
X108955218Y-55834108D01*
X108890030Y-55706171D01*
X108862287Y-55651722D01*
X108823454Y-55598272D01*
X108741971Y-55486118D01*
X108597213Y-55341360D01*
X108431614Y-55221047D01*
X108337285Y-55172984D01*
X108286489Y-55125009D01*
X108269694Y-55057188D01*
X108292231Y-54991053D01*
X108337285Y-54952014D01*
X108431610Y-54903953D01*
X108452770Y-54888579D01*
X108597213Y-54783637D01*
X108597215Y-54783634D01*
X108597219Y-54783632D01*
X108741966Y-54638885D01*
X108741968Y-54638881D01*
X108741971Y-54638879D01*
X108794732Y-54566256D01*
X108862287Y-54473276D01*
X108955220Y-54290885D01*
X109018477Y-54096200D01*
X109050500Y-53894018D01*
X109050500Y-53689314D01*
X109027965Y-53547034D01*
X109018477Y-53487131D01*
X108955218Y-53292442D01*
X108893600Y-53171512D01*
X108862287Y-53110056D01*
X108854556Y-53099415D01*
X108741971Y-52944452D01*
X108597213Y-52799694D01*
X108431611Y-52679379D01*
X108336734Y-52631036D01*
X108285939Y-52583062D01*
X108269144Y-52515241D01*
X108291682Y-52449106D01*
X108336736Y-52410067D01*
X108431347Y-52361861D01*
X108596894Y-52241582D01*
X108596895Y-52241582D01*
X108741582Y-52096895D01*
X108741582Y-52096894D01*
X108861859Y-51931349D01*
X108954755Y-51749029D01*
X109017990Y-51554413D01*
X109026609Y-51500000D01*
X107783012Y-51500000D01*
X107815925Y-51442993D01*
X107850000Y-51315826D01*
X107850000Y-51184174D01*
X107815925Y-51057007D01*
X107783012Y-51000000D01*
X109026609Y-51000000D01*
X109017990Y-50945586D01*
X108954754Y-50750967D01*
X108919000Y-50680794D01*
X108906104Y-50612125D01*
X108932381Y-50547385D01*
X108989487Y-50507128D01*
X109029485Y-50500500D01*
X120969955Y-50500500D01*
X121036994Y-50520185D01*
G37*
%TD.AperFunction*%
%TD*%
M02*
