M48
; DRILL file {KiCad 9.0.7} date 2026-01-19T13:59:52-0500
; FORMAT={-:-/ absolute / metric / decimal}
; #@! TF.CreationDate,2026-01-19T13:59:52-05:00
; #@! TF.GenerationSoftware,Kicad,Pcbnew,9.0.7
; #@! TF.FileFunction,Plated,1,2,PTH
FMAT,2
METRIC
; #@! TA.AperFunction,Plated,PTH,ViaDrill
T1C0.300
; #@! TA.AperFunction,Plated,PTH,ViaDrill
T2C0.500
; #@! TA.AperFunction,Plated,PTH,ComponentDrill
T3C0.762
; #@! TA.AperFunction,Plated,PTH,ComponentDrill
T4C0.889
; #@! TA.AperFunction,Plated,PTH,ComponentDrill
T5C0.991
; #@! TA.AperFunction,Plated,PTH,ComponentDrill
T6C1.000
; #@! TA.AperFunction,Plated,PTH,ComponentDrill
T7C1.100
%
G90
G05
T1
X101.0Y-114.0
T2
X94.5Y-110.5
X106.0Y-101.5
X120.5Y-100.5
T3
X109.65Y-103.42
X109.65Y-105.2
X109.65Y-106.98
X109.65Y-108.76
X109.65Y-110.54
X109.65Y-112.32
X109.65Y-114.1
X109.65Y-115.88
X120.35Y-104.31
X120.35Y-106.09
X120.35Y-107.87
X120.35Y-109.65
X120.35Y-111.43
X120.35Y-113.21
X120.35Y-114.99
X120.35Y-116.77
X130.5Y-120.0
X132.5Y-120.0
T4
X129.5Y-107.5
X129.5Y-112.5
X132.0Y-107.5
X132.0Y-112.5
X134.5Y-107.5
X134.5Y-112.5
T5
X112.739Y-90.0
X112.739Y-96.5
X117.239Y-90.0
X117.239Y-96.5
X125.511Y-70.75
X125.511Y-77.25
X130.011Y-70.75
X130.011Y-77.25
T6
X101.5Y-71.5
X101.5Y-74.0
X101.5Y-76.5
X107.35Y-51.25
X107.35Y-53.792
X107.35Y-56.333
X107.35Y-58.875
X107.35Y-61.417
X107.35Y-63.958
X107.35Y-66.5
X107.35Y-69.042
X107.35Y-71.583
X107.35Y-74.125
X107.35Y-76.667
X107.35Y-79.208
X107.35Y-81.75
X122.65Y-51.25
X122.65Y-53.792
X122.65Y-56.333
X122.65Y-58.875
X122.65Y-61.417
X122.65Y-63.958
X122.65Y-66.5
X122.65Y-69.042
X122.65Y-71.583
X122.65Y-74.125
X122.65Y-76.667
X122.65Y-79.208
X122.65Y-81.75
T7
X95.0Y-79.92
X95.0Y-85.0
X95.0Y-90.08
X95.0Y-93.42
X95.0Y-98.5
X95.0Y-103.58
X100.0Y-54.92
X100.0Y-60.0
X100.0Y-65.08
X130.0Y-54.92
X130.0Y-60.0
X130.0Y-65.08
M30
